SplineFontDB: 3.0
FontName: RougeScript-Regular
FullName: Rouge Script
FamilyName: Rouge Script
Weight: Book
Copyright: Copyright (c) 2011 Typesenses (typesenses@live.com.ar), with Reserved Font Name "Rouge Script"
Version: 1.002
ItalicAngle: 0
UnderlinePosition: -63
UnderlineWidth: 62
Ascent: 1000
Descent: 250
sfntRevision: 0x00010083
LayerCount: 2
Layer: 0 1 "Back"  1
Layer: 1 1 "Fore"  0
XUID: [1021 288 713564382 6570945]
FSType: 0
OS2Version: 2
OS2_WeightWidthSlopeOnly: 0
OS2_UseTypoMetrics: 1
CreationTime: 1325696360
ModificationTime: 1325696452
PfmFamily: 17
TTFWeight: 400
TTFWidth: 5
LineGap: 0
VLineGap: 0
Panose: 2 0 0 0 0 0 0 0 0 0
OS2TypoAscent: 50
OS2TypoAOffset: 1
OS2TypoDescent: -169
OS2TypoDOffset: 1
OS2TypoLinegap: 0
OS2WinAscent: 0
OS2WinAOffset: 1
OS2WinDescent: 0
OS2WinDOffset: 1
HheadAscent: 0
HheadAOffset: 1
HheadDescent: 0
HheadDOffset: 1
OS2SubXSize: 875
OS2SubYSize: 812
OS2SubXOff: 0
OS2SubYOff: 175
OS2SupXSize: 875
OS2SupYSize: 812
OS2SupXOff: 0
OS2SupYOff: 596
OS2StrikeYSize: 77
OS2StrikeYPos: 390
OS2Vendor: 'PYRS'
OS2CodePages: 00000001.00000000
OS2UnicodeRanges: 00000023.00000000.00000000.00000000
Lookup: 258 0 0 "'kern' Horizontal Kerning in Latin lookup 0"  {"'kern' Horizontal Kerning in Latin lookup 0 subtable"  } ['kern' ('DFLT' <'dflt' > 'latn' <'dflt' > ) ]
MarkAttachClasses: 1
DEI: 91125
TtTable: prep
PUSHW_1
 511
SCANCTRL
PUSHB_1
 4
SCANTYPE
EndTTInstrs
ShortTable: maxp 16
  1
  0
  221
  194
  6
  0
  0
  2
  0
  1
  1
  0
  64
  0
  0
  0
EndShort
LangName: 1033 "" "" "" "SabrinaMarielaLopez: Rouge Script: 2011" "" "Version 1.002" "" "Rouge Script is a trademark of Sabrina Mariela Lopez." "Sabrina Mariela Lopez" "Sabrina Mariela Lopez" "" "www.typesenses.com" "www.typesenses.com" "This Font Software is licensed under the SIL Open Font License, Version 1.1. This license is available with a FAQ at: http://scripts.sil.org/OFL" "http://scripts.sil.org/OFL" 
GaspTable: 1 65535 15 1
Encoding: UnicodeBmp
UnicodeInterp: none

StartChar: exclam
Encoding: 33 33 4
Width: 299
GlyphClass: 2
Flags: W
LayerCount: 2
Fore
SplineSet
158 153 m 0,0,1
 136 153 136 153 136 197 c 0,2,3
 136 207 136 207 140.5 237 c 128,-1,4
 145 267 145 267 178 498.5 c 128,-1,5
 211 730 211 730 219 785 c 0,6,7
 222 806 222 806 239.5 806 c 128,-1,8
 257 806 257 806 267.5 784.5 c 128,-1,9
 278 763 278 763 278 745.5 c 128,-1,10
 278 728 278 728 275 714 c 0,11,12
 269 681 269 681 175 173 c 0,13,14
 171 153 171 153 158 153 c 0,0,1
140 72 m 0,15,16
 163 72 163 72 163 41 c 128,-1,17
 163 10 163 10 133 -9 c 0,18,19
 118 -19 118 -19 107 -19 c 0,20,21
 91 -19 91 -19 87 -6 c 1,22,23
 96 -6 96 -6 100 13.5 c 128,-1,24
 104 33 104 33 112.5 52.5 c 128,-1,25
 121 72 121 72 140 72 c 0,15,16
EndSplineSet
EndChar

StartChar: quotedbl
Encoding: 34 34 5
Width: 339
GlyphClass: 2
Flags: W
LayerCount: 2
Fore
SplineSet
188 666.5 m 128,-1,1
 169 615 169 615 158 615 c 128,-1,2
 147 615 147 615 147 636.5 c 128,-1,3
 147 658 147 658 149 676 c 0,4,5
 154 724 154 724 163.5 759.5 c 128,-1,6
 173 795 173 795 197 795 c 0,7,8
 209 795 209 795 214.5 786.5 c 128,-1,9
 220 778 220 778 218 765 c 1,10,0
 207 718 207 718 188 666.5 c 128,-1,1
307 666.5 m 128,-1,12
 288 615 288 615 277 615 c 128,-1,13
 266 615 266 615 266 636.5 c 128,-1,14
 266 658 266 658 268 676 c 0,15,16
 273 724 273 724 282.5 759.5 c 128,-1,17
 292 795 292 795 315 795 c 128,-1,18
 338 795 338 795 338 772 c 0,19,20
 338 768 338 768 332 743 c 128,-1,11
 326 718 326 718 307 666.5 c 128,-1,12
EndSplineSet
EndChar

StartChar: numbersign
Encoding: 35 35 6
Width: 669
GlyphClass: 2
Flags: W
LayerCount: 2
Fore
SplineSet
0 214 m 0,0,1
 0 237 0 237 50 237 c 0,2,3
 70 237 70 237 160 235 c 1,4,-1
 178 367 l 1,5,-1
 34 367 l 2,6,7
 22 367 22 367 23 376 c 0,8,9
 25 398 25 398 73 398 c 0,10,11
 94 398 94 398 182 396 c 1,12,13
 200 523 200 523 209 579 c 0,14,15
 212 600 212 600 229 600 c 128,-1,16
 246 600 246 600 254 574 c 0,17,18
 258 561 258 561 258 544 c 128,-1,19
 258 527 258 527 255 508 c 2,20,-1
 234 395 l 1,21,22
 279 394 279 394 368 390 c 1,23,-1
 396 579 l 2,24,25
 400 600 400 600 416.5 600 c 128,-1,26
 433 600 433 600 441 574 c 0,27,28
 445 561 445 561 445 544 c 128,-1,29
 445 527 445 527 442 508 c 2,30,-1
 420 389 l 1,31,32
 474 387 474 387 564 387 c 0,33,34
 574 387 574 387 574 382 c 0,35,36
 574 368 574 368 532 367 c 1,37,-1
 416 367 l 1,38,39
 412 344 412 344 402.5 297 c 128,-1,40
 393 250 393 250 389 228 c 1,41,42
 505 226 505 226 541 226 c 0,43,44
 552 226 552 226 551 220 c 0,45,46
 547 206 547 206 509 206 c 2,47,-1
 385 206 l 1,48,49
 348 3 348 3 344 -18 c 128,-1,50
 340 -39 340 -39 327 -39 c 128,-1,51
 314 -39 314 -39 314 -17 c 128,-1,52
 314 5 314 5 343 206 c 1,53,-1
 198 206 l 1,54,55
 161 3 161 3 157 -18 c 128,-1,56
 153 -39 153 -39 140 -39 c 128,-1,57
 127 -39 127 -39 127 -17 c 128,-1,58
 127 5 127 5 156 206 c 1,59,-1
 11 206 l 2,60,61
 0 206 0 206 0 214 c 0,0,1
229 367 m 1,62,63
 208 254 208 254 204 234 c 1,64,-1
 346 229 l 1,65,-1
 365 367 l 1,66,-1
 229 367 l 1,62,63
EndSplineSet
EndChar

StartChar: dollar
Encoding: 36 36 7
Width: 469
GlyphClass: 2
Flags: W
LayerCount: 2
Fore
SplineSet
152 -114 m 0,0,1
 139 -114 139 -114 139 -87 c 0,2,3
 139 -79 139 -79 140 -70 c 2,4,-1
 144 -37 l 1,5,6
 66 -36 66 -36 25.5 1.5 c 128,-1,7
 -15 39 -15 39 -15 95 c 0,8,9
 -15 111 -15 111 0 118 c 128,-1,10
 15 125 15 125 30 117.5 c 128,-1,11
 45 110 45 110 45 91 c 0,12,13
 45 43 45 43 67.5 15.5 c 128,-1,14
 90 -12 90 -12 148 -13 c 1,15,-1
 192 293 l 1,16,17
 161 323 161 323 144.5 341 c 128,-1,18
 128 359 128 359 112 392 c 128,-1,19
 96 425 96 425 96 471 c 128,-1,20
 96 517 96 517 133.5 556 c 128,-1,21
 171 595 171 595 237 599 c 1,22,-1
 251 689 l 2,23,24
 253 700 253 700 259 700 c 0,25,26
 261 700 261 700 263 698 c 1,27,28
 278 692 278 692 278 664 c 0,29,30
 278 656 278 656 277 647 c 2,31,-1
 269 599 l 1,32,33
 315 595 315 595 342 570.5 c 128,-1,34
 369 546 369 546 369 510 c 0,35,36
 369 498 369 498 353.5 493 c 128,-1,37
 338 488 338 488 323 493 c 128,-1,38
 308 498 308 498 308 510 c 0,39,40
 308 565 308 565 265 574 c 1,41,-1
 229 351 l 1,42,43
 251 329 251 329 262 319 c 128,-1,44
 273 309 273 309 285.5 296 c 128,-1,45
 298 283 298 283 303.5 275.5 c 128,-1,46
 309 268 309 268 319 255 c 128,-1,47
 329 242 329 242 333 231.5 c 128,-1,48
 337 221 337 221 342 208 c 0,49,50
 352 186 352 186 352 153 c 0,51,52
 352 78 352 78 301 24.5 c 128,-1,53
 250 -29 250 -29 168 -36 c 1,54,-1
 158 -104 l 2,55,56
 156 -114 156 -114 152 -114 c 0,0,1
258.5 37 m 128,-1,58
 290 79 290 79 290 140 c 128,-1,59
 290 201 290 201 216 271 c 1,60,61
 207 210 207 210 190 106.5 c 128,-1,62
 173 3 173 3 171 -12 c 1,63,57
 227 -5 227 -5 258.5 37 c 128,-1,58
176 546 m 128,-1,65
 154 520 154 520 154 475.5 c 128,-1,66
 154 431 154 431 205 376 c 1,67,68
 210 407 210 407 219.5 475.5 c 128,-1,69
 229 544 229 544 234 575 c 1,70,64
 198 572 198 572 176 546 c 128,-1,65
EndSplineSet
EndChar

StartChar: percent
Encoding: 37 37 8
Width: 745
GlyphClass: 2
Flags: W
LayerCount: 2
Fore
SplineSet
173 -87 m 0,0,1
 166 -102 166 -102 157 -102 c 128,-1,2
 148 -102 148 -102 148 -87 c 128,-1,3
 148 -72 148 -72 167 -32 c 128,-1,4
 186 8 186 8 252.5 152.5 c 128,-1,5
 319 297 319 297 393 459.5 c 128,-1,6
 467 622 467 622 478 646 c 1,7,8
 490 667 490 667 503 667 c 128,-1,9
 516 667 516 667 521 656 c 0,10,11
 531 631 531 631 502 575 c 0,12,13
 499 568 499 568 354 279.5 c 128,-1,14
 209 -9 209 -9 173 -87 c 0,0,1
250 477 m 0,15,16
 250 577 250 577 200 577 c 0,17,18
 169 577 169 577 145 551 c 0,19,20
 132 538 132 538 122.5 540 c 128,-1,21
 113 542 113 542 116 547 c 0,22,23
 152 600 152 600 211 600 c 0,24,25
 276 600 276 600 291 521 c 0,26,27
 295 500 295 500 295 477 c 0,28,29
 295 417 295 417 266 350 c 0,30,31
 218 237 218 237 140 237 c 0,32,33
 97 237 97 237 72 264 c 1,34,35
 45 295 45 295 45 337 c 128,-1,36
 45 379 45 379 54 417 c 128,-1,37
 63 455 63 455 89 488 c 128,-1,38
 115 521 115 521 147 530 c 0,39,40
 152 531 152 531 155 526.5 c 128,-1,41
 158 522 158 522 157.5 516.5 c 128,-1,42
 157 511 157 511 154 510 c 0,43,44
 123 499 123 499 107.5 447 c 128,-1,45
 92 395 92 395 92 354 c 0,46,47
 92 259 92 259 140 259 c 128,-1,48
 188 259 188 259 219 333.5 c 128,-1,49
 250 408 250 408 250 477 c 0,15,16
579 199 m 0,50,51
 579 299 579 299 529 299 c 0,52,53
 498 299 498 299 474 273 c 0,54,55
 461 260 461 260 451.5 262 c 128,-1,56
 442 264 442 264 445 269 c 0,57,58
 481 322 481 322 540 322 c 0,59,60
 605 322 605 322 620 243 c 0,61,62
 624 222 624 222 624 199 c 0,63,64
 624 139 624 139 595 72 c 0,65,66
 547 -41 547 -41 469 -41 c 0,67,68
 426 -41 426 -41 401 -14 c 1,69,70
 374 17 374 17 374 59 c 128,-1,71
 374 101 374 101 383 139 c 128,-1,72
 392 177 392 177 418 210 c 128,-1,73
 444 243 444 243 476 252 c 0,74,75
 481 253 481 253 484 248.5 c 128,-1,76
 487 244 487 244 486.5 238.5 c 128,-1,77
 486 233 486 233 483 232 c 0,78,79
 452 221 452 221 436.5 169 c 128,-1,80
 421 117 421 117 421 76 c 0,81,82
 421 -19 421 -19 469 -19 c 128,-1,83
 517 -19 517 -19 548 55.5 c 128,-1,84
 579 130 579 130 579 199 c 0,50,51
EndSplineSet
EndChar

StartChar: ampersand
Encoding: 38 38 9
Width: 773
GlyphClass: 2
Flags: W
LayerCount: 2
Fore
SplineSet
673 450 m 0,0,1
 673 529 673 529 622 534 c 1,2,3
 628 551 628 551 646 551 c 0,4,5
 692 551 692 551 707 497 c 0,6,7
 712 477 712 477 712 457 c 0,8,9
 712 409 712 409 684 358 c 0,10,11
 613 229 613 229 443 229 c 0,12,13
 416 229 416 229 405 231 c 1,14,15
 396 130 396 130 332 55 c 1,16,17
 423 -41 423 -41 519 -41 c 0,18,19
 577 -41 577 -41 606 -18 c 128,-1,20
 635 5 635 5 635 34 c 0,21,22
 635 38 635 38 639.5 40 c 128,-1,23
 644 42 644 42 648 40 c 128,-1,24
 652 38 652 38 652 32 c 0,25,26
 652 -1 652 -1 617.5 -33 c 128,-1,27
 583 -65 583 -65 518 -65 c 0,28,29
 414 -65 414 -65 309 30 c 1,30,31
 233 -37 233 -37 128 -37 c 0,32,33
 47 -37 47 -37 6 0.5 c 128,-1,34
 -35 38 -35 38 -35 100.5 c 128,-1,35
 -35 163 -35 163 7.5 215.5 c 128,-1,36
 50 268 50 268 124 321 c 1,37,38
 104 385 104 385 104 433 c 128,-1,39
 104 481 104 481 116 518 c 128,-1,40
 128 555 128 555 164 577.5 c 128,-1,41
 200 600 200 600 251 600 c 128,-1,42
 302 600 302 600 326 576.5 c 128,-1,43
 350 553 350 553 350 514 c 0,44,45
 350 487 350 487 341 471 c 128,-1,46
 332 455 332 455 326.5 446 c 128,-1,47
 321 437 321 437 308.5 425 c 128,-1,48
 296 413 296 413 289 406.5 c 128,-1,49
 282 400 282 400 265 387 c 128,-1,50
 248 374 248 374 241 369 c 128,-1,51
 234 364 234 364 213.5 350 c 128,-1,52
 193 336 193 336 187 331 c 1,53,54
 226 179 226 179 317 72 c 1,55,56
 374 140 374 140 384 236 c 1,57,58
 315 256 315 256 315 307 c 0,59,60
 315 328 315 328 330 336.5 c 128,-1,61
 345 345 345 345 362.5 345 c 128,-1,62
 380 345 380 345 393 320 c 128,-1,63
 406 295 406 295 406 255 c 1,64,65
 422 252 422 252 443 252 c 0,66,67
 579 252 579 252 641 350 c 0,68,69
 673 400 673 400 673 450 c 0,0,1
131 -13 m 0,70,71
 226 -13 226 -13 292 46 c 1,72,73
 188 149 188 149 134 292 c 1,74,75
 19 199 19 199 19 91 c 0,76,77
 19 45 19 45 45.5 16 c 128,-1,78
 72 -13 72 -13 131 -13 c 0,70,71
267 576 m 0,79,80
 172 576 172 576 172 440 c 0,81,82
 172 403 172 403 180 360 c 1,83,84
 249 408 249 408 284 443.5 c 128,-1,85
 319 479 319 479 319 522 c 0,86,87
 319 576 319 576 267 576 c 0,79,80
358 322 m 0,88,89
 340 322 340 322 340 301 c 0,90,91
 340 278 340 278 385 260 c 1,92,93
 383 322 383 322 358 322 c 0,88,89
EndSplineSet
EndChar

StartChar: quotesingle
Encoding: 39 39 10
Width: 343
GlyphClass: 2
Flags: W
LayerCount: 2
Fore
SplineSet
275 680 m 128,-1,1
 286 718 286 718 286 756 c 128,-1,2
 286 794 286 794 314 794 c 128,-1,3
 342 794 342 794 342 759 c 0,4,5
 342 697 342 697 299 650 c 0,6,7
 280 630 280 630 267 629 c 1,8,9
 247 629 247 629 246 639 c 1,10,-1
 245 642 l 1,11,0
 264 642 264 642 275 680 c 128,-1,1
EndSplineSet
EndChar

StartChar: parenleft
Encoding: 40 40 11
Width: 305
GlyphClass: 2
Flags: W
LayerCount: 2
Fore
SplineSet
292 815 m 1,0,1
 302 815 302 815 302 805.5 c 128,-1,2
 302 796 302 796 295 796 c 1,3,4
 235 787 235 787 178.5 662.5 c 128,-1,5
 122 538 122 538 95 400 c 128,-1,6
 68 262 68 262 68 146 c 0,7,8
 68 -35 68 -35 127 -72 c 0,9,10
 134 -77 134 -77 131.5 -83 c 128,-1,11
 129 -89 129 -89 126 -89 c 128,-1,12
 123 -89 123 -89 119 -87 c 0,13,14
 55 -52 55 -52 30 50 c 1,15,16
 13 115 13 115 13 173 c 128,-1,17
 13 231 13 231 23 315.5 c 128,-1,18
 33 400 33 400 69 519.5 c 128,-1,19
 105 639 105 639 166 723 c 128,-1,20
 227 807 227 807 292 815 c 1,0,1
EndSplineSet
EndChar

StartChar: parenright
Encoding: 41 41 12
Width: 390
GlyphClass: 2
Flags: W
LayerCount: 2
Fore
SplineSet
-4 -93 m 1,0,1
 -14 -93 -14 -93 -14 -83.5 c 128,-1,2
 -14 -74 -14 -74 -7 -74 c 1,3,4
 53 -65 53 -65 109.5 59.5 c 128,-1,5
 166 184 166 184 193 322 c 128,-1,6
 220 460 220 460 220 576 c 0,7,8
 220 757 220 757 161 794 c 0,9,10
 154 799 154 799 156.5 805 c 128,-1,11
 159 811 159 811 162 811 c 128,-1,12
 165 811 165 811 169 809 c 0,13,14
 233 774 233 774 259 672 c 0,15,16
 275 607 275 607 275 549 c 128,-1,17
 275 491 275 491 265 406.5 c 128,-1,18
 255 322 255 322 219 202.5 c 128,-1,19
 183 83 183 83 122 -1 c 128,-1,20
 61 -85 61 -85 -4 -93 c 1,0,1
EndSplineSet
EndChar

StartChar: asterisk
Encoding: 42 42 13
Width: 655
GlyphClass: 2
Flags: W
LayerCount: 2
Fore
SplineSet
172 692 m 0,0,1
 259 661 259 661 295 636 c 1,2,3
 281 678 281 678 281 770 c 0,4,5
 281 782 281 782 289 790 c 128,-1,6
 297 798 297 798 308.5 798 c 128,-1,7
 320 798 320 798 328.5 790 c 128,-1,8
 337 782 337 782 337 770 c 0,9,10
 337 689 337 689 323 640 c 1,11,12
 361 667 361 667 440 696 c 0,13,14
 451 700 451 700 462 694 c 0,15,16
 478 686 478 686 478 675 c 0,17,18
 478 650 478 650 459 643 c 0,19,20
 380 614 380 614 332 611 c 1,21,22
 369 586 369 586 426 518 c 1,23,24
 433 508 433 508 433 498 c 128,-1,25
 433 488 433 488 422 479 c 0,26,27
 400 462 400 462 382 482 c 1,28,29
 327 549 327 549 309 596 c 1,30,31
 295 553 295 553 240 480 c 0,32,33
 232 468 232 468 220 468 c 128,-1,34
 208 468 208 468 200 474.5 c 128,-1,35
 192 481 192 481 190 492.5 c 128,-1,36
 188 504 188 504 195 513 c 0,37,38
 248 583 248 583 286 611 c 1,39,40
 242 611 242 611 155 638 c 0,41,42
 135 645 135 645 135 664 c 0,43,44
 135 681 135 681 148 688 c 128,-1,45
 161 695 161 695 172 692 c 0,0,1
EndSplineSet
EndChar

StartChar: plus
Encoding: 43 43 14
Width: 673
GlyphClass: 2
Flags: W
LayerCount: 2
Fore
SplineSet
75 291 m 0,0,1
 75 314 75 314 125 314 c 0,2,3
 155 314 155 314 279 310 c 1,4,5
 292 437 292 437 301 506 c 0,6,7
 302 517 302 517 308 517 c 0,8,9
 310 517 310 517 313 515 c 0,10,11
 328 509 328 509 328 476 c 128,-1,12
 328 443 328 443 307 309 c 1,13,14
 435 305 435 305 501 305 c 0,15,16
 511 305 511 305 511 300 c 0,17,18
 511 286 511 286 469 285 c 1,19,20
 362 285 362 285 304 284 c 1,21,22
 282 134 282 134 273 45 c 0,23,24
 271 35 271 35 267 35 c 0,25,26
 255 35 255 35 255 56.5 c 128,-1,27
 255 78 255 78 277 284 c 1,28,29
 207 283 207 283 86 283 c 0,30,31
 75 283 75 283 75 291 c 0,0,1
EndSplineSet
EndChar

StartChar: comma
Encoding: 44 44 15
Width: 215
GlyphClass: 2
Flags: W
LayerCount: 2
Fore
SplineSet
59 -42 m 128,-1,1
 70 -4 70 -4 70 34 c 128,-1,2
 70 72 70 72 98 72 c 128,-1,3
 126 72 126 72 126 37 c 0,4,5
 126 -25 126 -25 83 -72 c 0,6,7
 64 -92 64 -92 51 -93 c 1,8,9
 31 -93 31 -93 30 -83 c 1,10,-1
 29 -80 l 1,11,0
 48 -80 48 -80 59 -42 c 128,-1,1
EndSplineSet
EndChar

StartChar: hyphen
Encoding: 45 45 16
Width: 610
GlyphClass: 2
Flags: W
LayerCount: 2
Fore
SplineSet
423 285 m 2,0,-1
 106 283 l 2,1,2
 95 283 95 283 95 291 c 0,3,4
 95 314 95 314 145 314 c 1,5,-1
 455 305 l 2,6,7
 465 305 465 305 465 300 c 0,8,9
 465 286 465 286 423 285 c 2,0,-1
EndSplineSet
EndChar

StartChar: period
Encoding: 46 46 17
Width: 209
GlyphClass: 2
Flags: W
LayerCount: 2
Fore
SplineSet
100 72 m 0,0,1
 123 72 123 72 123 41 c 128,-1,2
 123 10 123 10 93 -9 c 0,3,4
 78 -19 78 -19 67 -19 c 0,5,6
 51 -19 51 -19 47 -6 c 1,7,8
 56 -6 56 -6 60 13.5 c 128,-1,9
 64 33 64 33 72.5 52.5 c 128,-1,10
 81 72 81 72 100 72 c 0,0,1
EndSplineSet
EndChar

StartChar: slash
Encoding: 47 47 18
Width: 508
GlyphClass: 2
Flags: W
LayerCount: 2
Fore
SplineSet
45 -87 m 0,0,1
 38 -102 38 -102 29 -102 c 128,-1,2
 20 -102 20 -102 20 -87 c 128,-1,3
 20 -72 20 -72 39 -32 c 128,-1,4
 58 8 58 8 124.5 152.5 c 128,-1,5
 191 297 191 297 265 459.5 c 128,-1,6
 339 622 339 622 350 646 c 1,7,8
 362 667 362 667 378.5 667 c 128,-1,9
 395 667 395 667 395 642 c 0,10,11
 395 615 395 615 374 575 c 0,12,13
 371 568 371 568 226 279.5 c 128,-1,14
 81 -9 81 -9 45 -87 c 0,0,1
EndSplineSet
EndChar

StartChar: zero
Encoding: 48 48 19
Width: 503
GlyphClass: 2
Flags: W
LayerCount: 2
Fore
SplineSet
357 395 m 0,0,1
 357 573 357 573 265 573 c 0,2,3
 203 573 203 573 162 524 c 0,4,5
 144 503 144 503 127 503 c 0,6,7
 117 503 117 503 122 512 c 1,8,9
 183 600 183 600 281.5 600 c 128,-1,10
 380 600 380 600 411 491 c 0,11,12
 423 448 423 448 423 387 c 128,-1,13
 423 326 423 326 396 240 c 0,14,15
 352 97 352 97 265 31 c 0,16,17
 216 -7 216 -7 163.5 -7 c 128,-1,18
 111 -7 111 -7 75 18 c 0,19,20
 4 68 4 68 4 198 c 0,21,22
 4 281 4 281 49 378 c 0,23,24
 70 424 70 424 104 458 c 128,-1,25
 138 492 138 492 177 503 c 0,26,27
 183 505 183 505 186.5 500 c 128,-1,28
 190 495 190 495 189 488 c 128,-1,29
 188 481 188 481 184 480 c 0,30,31
 152 471 152 471 125 420 c 1,32,33
 72 324 72 324 72 167 c 0,34,35
 72 104 72 104 95 59.5 c 128,-1,36
 118 15 118 15 161 15 c 0,37,38
 246 15 246 15 305 154 c 0,39,40
 357 275 357 275 357 395 c 0,0,1
EndSplineSet
EndChar

StartChar: one
Encoding: 49 49 20
Width: 385
GlyphClass: 2
Flags: W
LayerCount: 2
Fore
SplineSet
191 -20 m 0,0,1
 132 -20 132 -20 132 104 c 0,2,3
 132 167 132 167 152.5 260.5 c 128,-1,4
 173 354 173 354 215 452 c 1,5,6
 130 404 130 404 79.5 349 c 128,-1,7
 29 294 29 294 29 215 c 0,8,9
 29 197 29 197 36 192 c 128,-1,10
 43 187 43 187 45 187 c 1,11,12
 43 175 43 175 28 175 c 128,-1,13
 13 175 13 175 -1 190 c 128,-1,14
 -15 205 -15 205 -15 240.5 c 128,-1,15
 -15 276 -15 276 6 315 c 128,-1,16
 27 354 27 354 68 386 c 0,17,18
 135 439 135 439 230 485 c 1,19,20
 295 624 295 624 355 624 c 0,21,22
 386 624 386 624 386 592 c 0,23,24
 386 564 386 564 358.5 540.5 c 128,-1,25
 331 517 331 517 274 485 c 1,26,27
 224 349 224 349 203 178 c 0,28,29
 196 116 196 116 196 76 c 0,30,31
 196 4 196 4 220 0 c 1,32,33
 210 -20 210 -20 191 -20 c 0,0,1
355 600 m 0,34,35
 322 600 322 600 286 514 c 1,36,37
 367 557 367 557 367 587 c 0,38,39
 367 600 367 600 355 600 c 0,34,35
EndSplineSet
EndChar

StartChar: two
Encoding: 50 50 21
Width: 489
GlyphClass: 2
Flags: W
LayerCount: 2
Fore
SplineSet
344 197 m 0,0,1
 380 197 380 197 380 139 c 128,-1,2
 380 81 380 81 346 33 c 0,3,4
 301 -32 301 -32 223 -32 c 0,5,6
 187 -32 187 -32 159 -17 c 128,-1,7
 131 -2 131 -2 116 16 c 0,8,9
 77 63 77 63 50.5 63 c 128,-1,10
 24 63 24 63 10 43.5 c 128,-1,11
 -4 24 -4 24 -4 9 c 0,12,13
 -4 -3 -4 -3 -23.5 -3.5 c 128,-1,14
 -43 -4 -43 -4 -43 9 c 0,15,16
 -43 42 -43 42 52 118 c 0,17,18
 148 195 148 195 228 282 c 1,19,20
 269 325 269 325 296 379 c 128,-1,21
 323 433 323 433 323 484 c 0,22,23
 323 575 323 575 236 575 c 0,24,25
 161 575 161 575 120 494 c 1,26,27
 97 446 97 446 97 415 c 0,28,29
 97 313 97 313 151 313 c 1,30,31
 151 299 151 299 129 299 c 0,32,33
 67 299 67 299 49 360 c 0,34,35
 43 380 43 380 43 412.5 c 128,-1,36
 43 445 43 445 70 494 c 0,37,38
 129 600 129 600 251 600 c 0,39,40
 319 600 319 600 354 567.5 c 128,-1,41
 389 535 389 535 389 484 c 128,-1,42
 389 433 389 433 366.5 387.5 c 128,-1,43
 344 342 344 342 302 299 c 128,-1,44
 260 256 260 256 222 223.5 c 128,-1,45
 184 191 184 191 131 150.5 c 128,-1,46
 78 110 78 110 56 90 c 1,47,48
 63 91 63 91 68 91 c 0,49,50
 92 91 92 91 140.5 65 c 128,-1,51
 189 39 189 39 233 39 c 0,52,53
 307 39 307 39 340 100 c 0,54,55
 354 126 354 126 354 143 c 0,56,57
 354 184 354 184 329 184 c 1,58,59
 331 197 331 197 344 197 c 0,0,1
EndSplineSet
EndChar

StartChar: three
Encoding: 51 51 22
Width: 498
GlyphClass: 2
Flags: W
LayerCount: 2
Fore
SplineSet
329 348 m 1,0,1
 394 301 394 301 394 209 c 256,2,3
 394 117 394 117 325 40 c 1,4,5
 293 6 293 6 242 -16 c 128,-1,6
 191 -38 191 -38 130 -38 c 0,7,8
 25 -38 25 -38 -12 31 c 0,9,10
 -30 64 -30 64 -30 98.5 c 128,-1,11
 -30 133 -30 133 -9 168 c 0,12,13
 31 237 31 237 112 237 c 0,14,15
 124 237 124 237 131.5 230.5 c 128,-1,16
 139 224 139 224 141 212 c 1,17,18
 128 216 128 216 112 216 c 0,19,20
 57 216 57 216 29 159 c 0,21,22
 14 129 14 129 14 100.5 c 128,-1,23
 14 72 14 72 27 44 c 0,24,25
 53 -13 53 -13 123 -13 c 128,-1,26
 193 -13 193 -13 241 26 c 0,27,28
 327 97 327 97 327 222 c 0,29,30
 327 287 327 287 298 325 c 1,31,32
 247 294 247 294 187 294 c 128,-1,33
 127 294 127 294 127 327 c 0,34,35
 127 351 127 351 156 366 c 128,-1,36
 185 381 185 381 222 381 c 128,-1,37
 259 381 259 381 289 369 c 1,38,39
 331 422 331 422 331 481 c 0,40,41
 331 514 331 514 311.5 545 c 128,-1,42
 292 576 292 576 234 576 c 128,-1,43
 176 576 176 576 149 517 c 0,44,45
 138 493 138 493 138 474.5 c 128,-1,46
 138 456 138 456 146.5 441.5 c 128,-1,47
 155 427 155 427 169 426 c 1,48,49
 169 412 169 412 147 412 c 0,50,51
 108 412 108 412 97 453 c 1,52,53
 95 465 95 465 95 476 c 0,54,55
 95 512 95 512 122 546 c 0,56,57
 166 600 166 600 247.5 600 c 128,-1,58
 329 600 329 600 365 556 c 0,59,60
 392 522 392 522 392 480 c 0,61,62
 392 406 392 406 329 348 c 1,0,1
151 331 m 0,63,64
 151 315 151 315 191.5 315 c 128,-1,65
 232 315 232 315 271 349 c 1,66,67
 248 363 248 363 209 363 c 128,-1,68
 170 363 170 363 155 340 c 0,69,70
 151 335 151 335 151 331 c 0,63,64
EndSplineSet
EndChar

StartChar: four
Encoding: 52 52 23
Width: 514
GlyphClass: 2
Flags: W
LayerCount: 2
Fore
SplineSet
408 498 m 0,0,1
 423 498 423 498 423 489 c 2,2,-1
 423 486 l 1,3,4
 392 486 392 486 358.5 382.5 c 128,-1,5
 325 279 325 279 310 163 c 1,6,-1
 320 163 l 2,7,8
 373 163 373 163 390 201 c 0,9,10
 395 211 395 211 395 221 c 128,-1,11
 395 231 395 231 388.5 236 c 128,-1,12
 382 241 382 241 376 241 c 1,13,14
 380 255 380 255 397 255 c 0,15,16
 423 255 423 255 423 220.5 c 128,-1,17
 423 186 423 186 394.5 163 c 128,-1,18
 366 140 366 140 321 140 c 2,19,-1
 307 140 l 1,20,21
 303 98 303 98 303 69 c 0,22,23
 303 0 303 0 326 0 c 1,24,25
 316 -20 316 -20 297 -20 c 0,26,27
 241 -20 241 -20 241 85 c 0,28,29
 241 113 241 113 246 147 c 1,30,31
 209 154 209 154 149.5 172.5 c 128,-1,32
 90 191 90 191 89 191 c 0,33,34
 45 140 45 140 -2.5 140 c 128,-1,35
 -50 140 -50 140 -50 175 c 0,36,37
 -50 195 -50 195 -26.5 207.5 c 128,-1,38
 -3 220 -3 220 19.5 220 c 128,-1,39
 42 220 42 220 70 216 c 1,40,41
 103 272 103 272 121.5 361 c 128,-1,42
 140 450 140 450 140 525 c 128,-1,43
 140 600 140 600 116 600 c 1,44,45
 126 620 126 620 145 620 c 0,46,47
 203 620 203 620 203 512 c 0,48,49
 203 449 203 449 177 362 c 128,-1,50
 151 275 151 275 103 209 c 1,51,52
 107 208 107 208 161.5 191 c 128,-1,53
 216 174 216 174 249 169 c 1,54,55
 267 286 267 286 316 392 c 128,-1,56
 365 498 365 498 408 498 c 0,0,1
-26 175 m 0,57,58
 -26 161 -26 161 2.5 161 c 128,-1,59
 31 161 31 161 58 199 c 1,60,61
 43 202 43 202 29 202 c 0,62,63
 -17 202 -17 202 -25 181 c 0,64,65
 -26 178 -26 178 -26 175 c 0,57,58
EndSplineSet
EndChar

StartChar: five
Encoding: 53 53 24
Width: 498
GlyphClass: 2
Flags: W
LayerCount: 2
Fore
SplineSet
384 672 m 0,0,1
 408 672 408 672 408 624.5 c 128,-1,2
 408 577 408 577 372.5 539 c 128,-1,3
 337 501 337 501 278 501 c 0,4,5
 244 501 244 501 215 511 c 0,6,7
 176 525 176 525 162 542 c 1,8,9
 159 525 159 525 153.5 477 c 128,-1,10
 148 429 148 429 143 404 c 1,11,12
 168 409 168 409 191 409 c 0,13,14
 325 409 325 409 372 314 c 0,15,16
 392 274 392 274 392 229 c 128,-1,17
 392 184 392 184 373 134 c 0,18,19
 335 36 335 36 246 -10 c 0,20,21
 193 -38 193 -38 131 -38 c 0,22,23
 27 -38 27 -38 -11 31 c 0,24,25
 -31 67 -31 67 -31 101.5 c 128,-1,26
 -31 136 -31 136 -15 168 c 0,27,28
 20 237 20 237 92 237 c 0,29,30
 102 237 102 237 102.5 226.5 c 128,-1,31
 103 216 103 216 92 216 c 0,32,33
 44 216 44 216 21 161 c 0,34,35
 9 133 9 133 9 105 c 128,-1,36
 9 77 9 77 23 49 c 0,37,38
 52 -13 52 -13 136.5 -13 c 128,-1,39
 221 -13 221 -13 278 77 c 0,40,41
 321 145 321 145 321 222 c 0,42,43
 321 341 321 341 237 376 c 0,44,45
 210 388 210 388 184 388 c 128,-1,46
 158 388 158 388 140 383 c 1,47,48
 120 280 120 280 73 280 c 0,49,50
 40 280 40 280 40 311 c 0,51,52
 40 345 40 345 80 375 c 0,53,54
 99 389 99 389 121 397 c 1,55,56
 124 416 124 416 128.5 451 c 128,-1,57
 133 486 133 486 136 507.5 c 128,-1,58
 139 529 139 529 145 553 c 0,59,60
 155 600 155 600 178 600 c 2,61,-1
 179 600 l 2,62,63
 190 600 190 600 204 588 c 0,64,65
 246 550 246 550 303.5 550 c 128,-1,66
 361 550 361 550 382 600 c 0,67,68
 388 616 388 616 388 629 c 128,-1,69
 388 642 388 642 381.5 650 c 128,-1,70
 375 658 375 658 367 658 c 0,71,72
 366 658 366 658 367 662 c 0,73,74
 370 672 370 672 384 672 c 0,0,1
73 300 m 1,75,76
 102 300 102 300 118 376 c 1,77,78
 77 357 77 357 65 324 c 0,79,80
 62 317 62 317 62 311 c 0,81,82
 62 301 62 301 73 300 c 1,75,76
EndSplineSet
EndChar

StartChar: six
Encoding: 54 54 25
Width: 480
GlyphClass: 2
Flags: W
LayerCount: 2
Fore
SplineSet
322 235 m 0,0,1
 322 347 322 347 252 347 c 0,2,3
 199 347 199 347 163 289.5 c 128,-1,4
 127 232 127 232 125 166 c 0,5,6
 125 152 125 152 114.5 156 c 128,-1,7
 104 160 104 160 105 173 c 0,8,9
 108 248 108 248 153 311 c 128,-1,10
 198 374 198 374 275 374 c 128,-1,11
 352 374 352 374 375 293 c 0,12,13
 382 267 382 267 382 224.5 c 128,-1,14
 382 182 382 182 352 117 c 1,15,16
 308 18 308 18 228 -16 c 0,17,18
 197 -29 197 -29 163 -29 c 0,19,20
 43 -29 43 -29 10 84 c 0,21,22
 -1 123 -1 123 -1 183 c 128,-1,23
 -1 243 -1 243 33 334 c 0,24,25
 85 476 85 476 180 550 c 1,26,27
 246 600 246 600 314 600 c 0,28,29
 352 600 352 600 371 580 c 128,-1,30
 390 560 390 560 390 534 c 128,-1,31
 390 508 390 508 371 503 c 1,32,33
 353 500 353 500 352 514 c 0,34,35
 352 517 352 517 352 529.5 c 128,-1,36
 352 542 352 542 339 558 c 128,-1,37
 326 574 326 574 298 574 c 0,38,39
 205 574 205 574 136.5 434 c 128,-1,40
 68 294 68 294 68 158 c 0,41,42
 68 -7 68 -7 163 -7 c 0,43,44
 234 -7 234 -7 283 85 c 0,45,46
 322 159 322 159 322 235 c 0,0,1
EndSplineSet
EndChar

StartChar: seven
Encoding: 55 55 26
Width: 368
GlyphClass: 2
Flags: W
LayerCount: 2
Fore
SplineSet
85 607 m 1,0,1
 66 607 66 607 58 583 c 0,2,3
 56 575 56 575 56 568 c 0,4,5
 56 546 56 546 77 533 c 128,-1,6
 98 520 98 520 143.5 520 c 128,-1,7
 189 520 189 520 280 560 c 128,-1,8
 371 600 371 600 392 600 c 0,9,10
 398 600 398 600 398 588 c 128,-1,11
 398 576 398 576 392 576 c 0,12,13
 331 576 331 576 250.5 432 c 128,-1,14
 170 288 170 288 128 144 c 0,15,16
 103 60 103 60 103 30 c 128,-1,17
 103 0 103 0 115 0 c 1,18,19
 105 -20 105 -20 86 -20 c 0,20,21
 39 -20 39 -20 39 42 c 0,22,23
 39 68 39 68 47 105 c 0,24,25
 77 234 77 234 175 392 c 0,26,27
 229 480 229 480 283 535 c 1,28,29
 163 479 163 479 91 479 c 128,-1,30
 19 479 19 479 3 529 c 0,31,32
 -1 542 -1 542 -1 560.5 c 128,-1,33
 -1 579 -1 579 16.5 600.5 c 128,-1,34
 34 622 34 622 62 622 c 0,35,36
 79 622 79 622 85 607 c 1,0,1
EndSplineSet
EndChar

StartChar: eight
Encoding: 56 56 27
Width: 459
GlyphClass: 2
Flags: W
LayerCount: 2
Fore
SplineSet
138.5 560.5 m 128,-1,1
 181 600 181 600 244 600 c 128,-1,2
 307 600 307 600 338 574.5 c 128,-1,3
 369 549 369 549 369 502.5 c 128,-1,4
 369 456 369 456 336 418 c 128,-1,5
 303 380 303 380 241 339 c 1,6,7
 326 260 326 260 344 208 c 0,8,9
 352 183 352 183 352 153 c 0,10,11
 352 73 352 73 294.5 18 c 128,-1,12
 237 -37 237 -37 152.5 -37 c 128,-1,13
 68 -37 68 -37 26.5 0.5 c 128,-1,14
 -15 38 -15 38 -15 85.5 c 128,-1,15
 -15 133 -15 133 -1 166 c 128,-1,16
 13 199 13 199 42 228 c 0,17,18
 84 270 84 270 162 322 c 1,19,20
 96 390 96 390 96 455.5 c 128,-1,0
 96 521 96 521 138.5 560.5 c 128,-1,1
290 133 m 0,21,22
 290 161 290 161 283.5 176 c 128,-1,23
 277 191 277 191 274 199.5 c 128,-1,24
 271 208 271 208 262 219.5 c 128,-1,25
 253 231 253 231 249 236.5 c 128,-1,26
 245 242 245 242 233 254 c 2,27,-1
 217 270 l 2,28,29
 213 274 213 274 199.5 286.5 c 128,-1,30
 186 299 186 299 183 302 c 1,31,32
 112 256 112 256 73 208.5 c 128,-1,33
 34 161 34 161 34 103 c 128,-1,34
 34 45 34 45 62 16 c 128,-1,35
 90 -13 90 -13 153 -13 c 128,-1,36
 216 -13 216 -13 253 30 c 128,-1,37
 290 73 290 73 290 133 c 0,21,22
299.5 558 m 128,-1,39
 279 576 279 576 241 576 c 128,-1,40
 203 576 203 576 178.5 549.5 c 128,-1,41
 154 523 154 523 154 474.5 c 128,-1,42
 154 426 154 426 219 361 c 1,43,44
 268 398 268 398 294 432.5 c 128,-1,45
 320 467 320 467 320 503.5 c 128,-1,38
 320 540 320 540 299.5 558 c 128,-1,39
EndSplineSet
EndChar

StartChar: nine
Encoding: 57 57 28
Width: 499
GlyphClass: 2
Flags: W
LayerCount: 2
Fore
SplineSet
89 331 m 0,0,1
 89 221 89 221 159 221 c 0,2,3
 211 221 211 221 248 280 c 128,-1,4
 285 339 285 339 287 405 c 0,5,6
 287 419 287 419 297.5 415 c 128,-1,7
 308 411 308 411 307 398 c 0,8,9
 304 323 304 323 259 260 c 128,-1,10
 214 197 214 197 136.5 197 c 128,-1,11
 59 197 59 197 34 278 c 0,12,13
 26 307 26 307 26 349.5 c 128,-1,14
 26 392 26 392 51 452 c 0,15,16
 94 551 94 551 178 586 c 0,17,18
 212 600 212 600 249 600 c 0,19,20
 361 600 361 600 399 493 c 0,21,22
 415 448 415 448 415 388.5 c 128,-1,23
 415 329 415 329 389 251 c 0,24,25
 342 108 342 108 241 30 c 0,26,27
 164 -29 164 -29 75 -29 c 0,28,29
 25 -29 25 -29 -1.5 -4 c 128,-1,30
 -28 21 -28 21 -28 48 c 128,-1,31
 -28 75 -28 75 -7 78 c 1,32,33
 11 77 11 77 14 63 c 1,34,35
 14 36 14 36 32.5 16.5 c 128,-1,36
 51 -3 51 -3 91 -3 c 0,37,38
 194 -3 194 -3 269 130 c 256,39,40
 344 263 344 263 344 421 c 0,41,42
 344 528 344 528 297 564 c 0,43,44
 279 578 279 578 255 578 c 0,45,46
 181 578 181 578 130 484 c 0,47,48
 89 409 89 409 89 331 c 0,0,1
EndSplineSet
EndChar

StartChar: colon
Encoding: 58 58 29
Width: 293
GlyphClass: 2
Flags: W
LayerCount: 2
Fore
SplineSet
88 72 m 0,0,1
 112 72 112 72 112 41 c 128,-1,2
 112 10 112 10 83 -9 c 0,3,4
 69 -19 69 -19 58 -19 c 0,5,6
 42 -19 42 -19 38 -6 c 1,7,8
 52 -6 52 -6 54 21 c 0,9,10
 59 72 59 72 88 72 c 0,0,1
129 352 m 0,11,12
 153 352 153 352 153 321 c 128,-1,13
 153 290 153 290 124 271 c 0,14,15
 110 261 110 261 99 261 c 0,16,17
 83 261 83 261 79 274 c 1,18,19
 93 274 93 274 95 301 c 0,20,21
 100 352 100 352 129 352 c 0,11,12
EndSplineSet
EndChar

StartChar: semicolon
Encoding: 59 59 30
Width: 235
GlyphClass: 2
Flags: W
LayerCount: 2
Fore
SplineSet
58 37 m 0,0,1
 56 72 56 72 85 72 c 128,-1,2
 114 72 114 72 114 34 c 0,3,4
 114 -27 114 -27 75 -72 c 0,5,6
 56 -93 56 -93 43 -93 c 0,7,8
 23 -93 23 -93 22 -83 c 1,9,-1
 21 -80 l 1,10,11
 40 -80 40 -80 49 -44.5 c 128,-1,12
 58 -9 58 -9 58 12 c 128,-1,13
 58 33 58 33 58 37 c 0,0,1
118 352 m 0,14,15
 143 352 143 352 143 320.5 c 128,-1,16
 143 289 143 289 122.5 275 c 128,-1,17
 102 261 102 261 91 261 c 0,18,19
 74 261 74 261 70 274 c 1,20,21
 83 274 83 274 85 301 c 0,22,23
 89 352 89 352 118 352 c 0,14,15
EndSplineSet
EndChar

StartChar: less
Encoding: 60 60 31
Width: 508
GlyphClass: 2
Flags: W
LayerCount: 2
Fore
SplineSet
339 420 m 1,0,1
 356 417 356 417 356 383 c 128,-1,2
 356 349 356 349 286.5 290.5 c 128,-1,3
 217 232 217 232 152 226 c 1,4,5
 208 198 208 198 255 138 c 128,-1,6
 302 78 302 78 302 37 c 0,7,8
 302 11 302 11 290 6 c 1,9,-1
 285 5 l 1,10,11
 285 68 285 68 208.5 138 c 128,-1,12
 132 208 132 208 40 208 c 1,13,14
 40 216 40 216 51 225 c 0,15,16
 71 241 71 241 94 241 c 0,17,18
 185 241 185 241 262 303.5 c 128,-1,19
 339 366 339 366 339 420 c 1,0,1
EndSplineSet
EndChar

StartChar: equal
Encoding: 61 61 32
Width: 724
GlyphClass: 2
Flags: W
LayerCount: 2
Fore
SplineSet
531 369 m 2,0,-1
 113 367 l 2,1,2
 101 367 101 367 102 376 c 0,3,4
 104 392 104 392 134 397 c 1,5,-1
 152 398 l 1,6,-1
 563 389 l 2,7,8
 573 389 573 389 573 384 c 0,9,10
 573 370 573 370 531 369 c 2,0,-1
508 208 m 2,11,-1
 90 206 l 2,12,13
 79 206 79 206 79 214 c 0,14,15
 79 237 79 237 129 237 c 1,16,-1
 540 228 l 2,17,18
 550 228 550 228 550 223 c 0,19,20
 550 209 550 209 508 208 c 2,11,-1
EndSplineSet
EndChar

StartChar: greater
Encoding: 62 62 33
Width: 548
GlyphClass: 2
Flags: W
LayerCount: 2
Fore
SplineSet
109 5 m 1,0,1
 92 8 92 8 92 42 c 128,-1,2
 92 76 92 76 162 134 c 128,-1,3
 232 192 232 192 298 198 c 1,4,5
 241 225 241 225 193.5 285.5 c 128,-1,6
 146 346 146 346 146 387 c 0,7,8
 146 414 146 414 158 418 c 1,9,-1
 162 420 l 1,10,11
 162 357 162 357 238.5 287 c 128,-1,12
 315 217 315 217 407 217 c 1,13,14
 404 205 404 205 388.5 194.5 c 128,-1,15
 373 184 373 184 354 184 c 0,16,17
 262 184 262 184 185.5 122 c 128,-1,18
 109 60 109 60 109 5 c 1,0,1
EndSplineSet
EndChar

StartChar: question
Encoding: 63 63 34
Width: 579
GlyphClass: 2
Flags: W
LayerCount: 2
Fore
SplineSet
190 72 m 0,0,1
 214 72 214 72 214 41 c 128,-1,2
 214 10 214 10 185 -9 c 0,3,4
 171 -19 171 -19 160 -19 c 0,5,6
 144 -19 144 -19 140 -6 c 1,7,8
 154 -6 154 -6 156 21 c 0,9,10
 161 72 161 72 190 72 c 0,0,1
216 161 m 0,11,12
 216 148 216 148 196.5 148 c 128,-1,13
 177 148 177 148 177 161 c 0,14,15
 177 252 177 252 282 354 c 0,16,17
 325 397 325 397 368.5 440.5 c 128,-1,18
 412 484 412 484 442.5 541 c 128,-1,19
 473 598 473 598 473 660 c 0,20,21
 473 751 473 751 386 751 c 0,22,23
 311 751 311 751 270 670 c 1,24,25
 247 622 247 622 247 591 c 0,26,27
 247 489 247 489 301 489 c 1,28,29
 301 475 301 475 279 475 c 0,30,31
 217 475 217 475 199 536 c 0,32,33
 193 556 193 556 193 588.5 c 128,-1,34
 193 621 193 621 220 670 c 0,35,36
 279 776 279 776 401 776 c 0,37,38
 469 776 469 776 504 743.5 c 128,-1,39
 539 711 539 711 539 660.5 c 128,-1,40
 539 610 539 610 521 568.5 c 128,-1,41
 503 527 503 527 474.5 494 c 128,-1,42
 446 461 446 461 412 429 c 128,-1,43
 378 397 378 397 343.5 366 c 128,-1,44
 309 335 309 335 280 304 c 0,45,46
 216 234 216 234 216 161 c 0,11,12
EndSplineSet
EndChar

StartChar: at
Encoding: 64 64 35
Width: 793
GlyphClass: 2
Flags: W
LayerCount: 2
Fore
SplineSet
295 98 m 0,0,1
 231 98 231 98 231 187 c 0,2,3
 231 245 231 245 265 308 c 0,4,5
 317 402 317 402 393 402 c 0,6,7
 413 402 413 402 424.5 390.5 c 128,-1,8
 436 379 436 379 436 370 c 128,-1,9
 436 361 436 361 430 358 c 128,-1,10
 424 355 424 355 418.5 355.5 c 128,-1,11
 413 356 413 356 413 360 c 0,12,13
 413 377 413 377 393 377 c 0,14,15
 352 377 352 377 318 311 c 0,16,17
 283 241 283 241 283 186 c 128,-1,18
 283 131 283 131 300 123 c 1,19,20
 320 123 320 123 347 163 c 0,21,22
 387 221 387 221 407 263 c 2,23,-1
 443 337 l 1,24,25
 450 354 450 354 455.5 356.5 c 128,-1,26
 461 359 461 359 466 359 c 0,27,28
 477 359 477 359 481.5 345 c 128,-1,29
 486 331 486 331 481 305.5 c 128,-1,30
 476 280 476 280 473 265 c 128,-1,31
 470 250 470 250 466 223 c 128,-1,32
 462 196 462 196 462 180.5 c 128,-1,33
 462 165 462 165 464 148 c 0,34,35
 468 115 468 115 495 115 c 0,36,37
 560 115 560 115 598 216 c 0,38,39
 615 261 615 261 615 311 c 128,-1,40
 615 361 615 361 590 416 c 0,41,42
 544 516 544 516 398.5 516 c 128,-1,43
 253 516 253 516 167 395 c 1,44,45
 103 303 103 303 103 190 c 0,46,47
 103 58 103 58 181 -5 c 0,48,49
 227 -42 227 -42 293 -42 c 0,50,51
 381 -42 381 -42 428 14 c 0,52,53
 438 26 438 26 444 44 c 1,54,-1
 460 43 l 1,55,56
 443 -24 443 -24 362 -52 c 0,57,58
 328 -64 328 -64 285 -64 c 0,59,60
 144 -64 144 -64 85 43 c 0,61,62
 53 101 53 101 53 158 c 128,-1,63
 53 215 53 215 66 264 c 0,64,65
 101 394 101 394 198.5 465.5 c 128,-1,66
 296 537 296 537 416 537 c 0,67,68
 573 537 573 537 624 423 c 0,69,70
 644 378 644 378 644 329.5 c 128,-1,71
 644 281 644 281 627 230 c 0,72,73
 597 140 597 140 538 108 c 0,74,75
 516 96 516 96 493 96 c 0,76,77
 415 96 415 96 415 190 c 0,78,79
 415 211 415 211 419 236 c 1,80,81
 343 98 343 98 295 98 c 0,0,1
EndSplineSet
EndChar

StartChar: A
Encoding: 65 65 36
Width: 1005
GlyphClass: 2
Flags: W
LayerCount: 2
Fore
SplineSet
414 23 m 1,0,1
 337 105 337 105 337 228 c 0,2,3
 337 325 337 325 397 386 c 0,4,5
 441 430 441 430 504.5 430 c 128,-1,6
 568 430 568 430 619 399 c 1,7,8
 708 606 708 606 763 686 c 1,9,10
 756 688 756 688 711.5 705 c 128,-1,11
 667 722 667 722 655 726 c 2,12,-1
 607 742 l 2,13,14
 523 770 523 770 459 770 c 0,15,16
 329 770 329 770 267 672 c 1,17,18
 231 617 231 617 231 558 c 0,19,20
 231 462 231 462 293 445 c 0,21,22
 302 442 302 442 312 442 c 1,23,24
 306 420 306 420 279 420 c 0,25,26
 218 420 218 420 193 485 c 0,27,28
 181 516 181 516 181 554 c 128,-1,29
 181 592 181 592 201 639 c 0,30,31
 243 740 243 740 349 777 c 0,32,33
 399 794 399 794 442.5 794 c 128,-1,34
 486 794 486 794 514.5 789.5 c 128,-1,35
 543 785 543 785 583 772.5 c 128,-1,36
 623 760 623 760 641.5 754 c 128,-1,37
 660 748 660 748 713.5 727.5 c 128,-1,38
 767 707 767 707 775 704 c 1,39,40
 861 818 861 818 963 818 c 0,41,42
 971 818 971 818 975 813 c 128,-1,43
 979 808 979 808 980 799 c 1,44,45
 876 799 876 799 798 696 c 1,46,47
 850 677 850 677 899 666 c 1,48,49
 953 736 953 736 998 736 c 0,50,51
 1008 736 1008 736 1015 730.5 c 128,-1,52
 1022 725 1022 725 1025 714 c 1,53,54
 986 714 986 714 944 659 c 1,55,56
 951 658 951 658 965 658 c 0,57,58
 1064 658 1064 658 1104 717 c 1,59,60
 1121 740 1121 740 1121 756 c 0,61,62
 1121 801 1121 801 1081 801 c 1,63,64
 1090 815 1090 815 1110 815 c 0,65,66
 1149 815 1149 815 1161 776 c 0,67,68
 1164 764 1164 764 1164 753 c 0,69,70
 1164 720 1164 720 1136 688 c 0,71,72
 1087 634 1087 634 985 634 c 0,73,74
 955 634 955 634 931 638 c 1,75,76
 864 531 864 531 823 334 c 0,77,78
 794 197 794 197 794 130.5 c 128,-1,79
 794 64 794 64 799 32 c 1,80,81
 856 76 856 76 908 143 c 128,-1,82
 960 210 960 210 983 255 c 2,83,-1
 1006 300 l 1,84,-1
 1033 300 l 1,85,86
 1025 279 1025 279 998.5 233.5 c 128,-1,87
 972 188 972 188 947 154 c 1,88,89
 883 62 883 62 805 6 c 1,90,91
 818 -32 818 -32 842 -32 c 1,92,93
 832 -52 832 -52 806.5 -52 c 128,-1,94
 781 -52 781 -52 760 -22 c 1,95,96
 688 -59 688 -59 620 -59 c 0,97,98
 521 -59 521 -59 449 -7 c 1,99,100
 344 -127 344 -127 196 -127 c 128,-1,101
 48 -127 48 -127 -19 -22 c 0,102,103
 -56 37 -56 37 -56 105 c 0,104,105
 -56 133 -56 133 -50 162 c 0,106,107
 -29 259 -29 259 45 300 c 0,108,109
 84 322 84 322 132 322 c 0,110,111
 235 322 235 322 271 242 c 0,112,113
 286 209 286 209 286 174.5 c 128,-1,114
 286 140 286 140 272 105 c 0,115,116
 238 21 238 21 161 21 c 0,117,118
 149 21 149 21 141 26.5 c 128,-1,119
 133 32 133 32 129 43 c 1,120,121
 156 43 156 43 180 57 c 0,122,123
 220 81 220 81 243 144 c 1,124,125
 249 165 249 165 249 178.5 c 128,-1,126
 249 192 249 192 247 209.5 c 128,-1,127
 245 227 245 227 234 250 c 128,-1,128
 223 273 223 273 196 287 c 128,-1,129
 169 301 169 301 132 301 c 0,130,131
 37 301 37 301 -8 217 c 0,132,133
 -34 169 -34 169 -34 126 c 128,-1,134
 -34 83 -34 83 -25 49 c 0,135,136
 1 -46 1 -46 84 -82 c 0,137,138
 123 -99 123 -99 170 -99 c 0,139,140
 305 -99 305 -99 414 23 c 1,0,1
748 -1 m 1,141,142
 731 39 731 39 731 96.5 c 128,-1,143
 731 154 731 154 707 229.5 c 128,-1,144
 683 305 683 305 637 353 c 1,145,146
 546 113 546 113 467 13 c 1,147,148
 529 -36 529 -36 606 -36 c 128,-1,149
 683 -36 683 -36 748 -1 c 1,141,142
609 377 m 1,150,151
 571 404 571 404 520.5 404 c 128,-1,152
 470 404 470 404 431 366 c 1,153,154
 375 309 375 309 375 217 c 0,155,156
 375 115 375 115 432 46 c 1,157,158
 496 128 496 128 555 255 c 0,159,160
 576 302 576 302 609 377 c 1,150,151
739 218 m 1,161,162
 755 336 755 336 795 453.5 c 128,-1,163
 835 571 835 571 886 647 c 1,164,165
 844 657 844 657 785 678 c 1,166,167
 738 608 738 608 691 493 c 0,168,169
 677 457 677 457 647 378 c 1,170,171
 709 323 709 323 739 218 c 1,161,162
EndSplineSet
EndChar

StartChar: B
Encoding: 66 66 37
Width: 852
GlyphClass: 2
Flags: W
LayerCount: 2
Fore
SplineSet
449 -121 m 0,0,1
 330 -121 330 -121 330 1 c 0,2,3
 330 66 330 66 373 143 c 0,4,5
 428 243 428 243 513 282 c 0,6,7
 553 300 553 300 592 300 c 0,8,9
 598 300 598 300 600 294 c 128,-1,10
 602 288 602 288 599.5 282.5 c 128,-1,11
 597 277 597 277 591 277 c 0,12,13
 500 277 500 277 426 181 c 0,14,15
 358 92 358 92 358 0 c 0,16,17
 358 -72 358 -72 412 -88 c 0,18,19
 424 -91 424 -91 439 -91 c 0,20,21
 491 -91 491 -91 537 -54 c 0,22,23
 624 16 624 16 653 173 c 0,24,25
 658 203 658 203 658 237 c 0,26,27
 658 351 658 351 592 425 c 1,28,29
 491 326 491 326 353 326 c 2,30,-1
 346 326 l 1,31,32
 319 102 319 102 253 18 c 1,33,34
 225 -16 225 -16 181 -39 c 128,-1,35
 137 -62 137 -62 83.5 -62 c 128,-1,36
 30 -62 30 -62 -5 -44 c 0,37,38
 -66 -14 -66 -14 -77 66 c 0,39,40
 -79 77 -79 77 -79 94 c 128,-1,41
 -79 111 -79 111 -69 140.5 c 128,-1,42
 -59 170 -59 170 -40 198.5 c 128,-1,43
 -21 227 -21 227 10 245 c 128,-1,44
 41 263 41 263 64 263 c 0,45,46
 97 263 97 263 105 249 c 1,47,-1
 107 244 l 1,48,49
 20 244 20 244 -26 170 c 0,50,51
 -52 128 -52 128 -52 96 c 0,52,53
 -52 -19 -52 -19 41 -33 c 0,54,55
 51 -35 51 -35 75 -35 c 128,-1,56
 99 -35 99 -35 128.5 -21 c 128,-1,57
 158 -7 158 -7 179.5 21 c 128,-1,58
 201 49 201 49 217 80 c 128,-1,59
 233 111 233 111 245 158 c 0,60,61
 267 240 267 240 283 336 c 1,62,63
 231 353 231 353 215 391 c 0,64,65
 209 405 209 405 209 424 c 128,-1,66
 209 443 209 443 227 466 c 1,67,68
 254 504 254 504 315 519 c 1,69,70
 334 607 334 607 362 653.5 c 128,-1,71
 390 700 390 700 437 700 c 0,72,73
 451 700 451 700 457 683 c 1,74,75
 419 683 419 683 399 642.5 c 128,-1,76
 379 602 379 602 368 526 c 1,77,78
 374 527 374 527 387 527 c 0,79,80
 495 527 495 527 575 481 c 1,81,82
 628 560 628 560 628 628.5 c 128,-1,83
 628 697 628 697 588.5 744 c 128,-1,84
 549 791 549 791 459 791 c 0,85,86
 277 791 277 791 171 660 c 0,87,88
 90 561 90 561 90 444 c 0,89,90
 90 361 90 361 137 329 c 0,91,92
 157 315 157 315 184 315 c 1,93,94
 174 292 174 292 153 292 c 0,95,96
 79 292 79 292 53 369 c 0,97,98
 41 403 41 403 41 450.5 c 128,-1,99
 41 498 41 498 68 564 c 0,100,101
 120 695 120 695 243 763 c 0,102,103
 338 816 338 816 459 816 c 0,104,105
 535 816 535 816 587 792 c 0,106,107
 688 746 688 746 688 631 c 0,108,109
 688 539 688 539 616 451 c 1,110,111
 717 363 717 363 717 202 c 0,112,113
 717 47 717 47 609 -56 c 0,114,115
 541 -121 541 -121 449 -121 c 0,0,1
387 504 m 1,116,-1
 365 503 l 1,117,118
 356 423 356 423 349 352 c 1,119,-1
 352 352 l 2,120,121
 474 352 474 352 557 456 c 1,122,123
 491 504 491 504 387 504 c 1,116,-1
310 492 m 1,124,125
 238 468 238 468 238 417 c 0,126,127
 238 380 238 380 287 362 c 1,128,129
 303 460 303 460 310 492 c 1,124,125
EndSplineSet
EndChar

StartChar: C
Encoding: 67 67 38
Width: 658
GlyphClass: 2
Flags: W
LayerCount: 2
Fore
SplineSet
327 829 m 0,0,1
 333 817 333 817 313 813 c 1,2,3
 289 811 289 811 283 824 c 1,4,5
 253 914 253 914 132 914 c 0,6,7
 56 914 56 914 -5 878 c 0,8,9
 -118 810 -118 810 -138 664 c 0,10,11
 -141 641 -141 641 -141 608 c 128,-1,12
 -141 575 -141 575 -126.5 524 c 128,-1,13
 -112 473 -112 473 -62.5 424 c 128,-1,14
 -13 375 -13 375 61 357 c 1,15,16
 92 471 92 471 155 570.5 c 128,-1,17
 218 670 218 670 314 736.5 c 128,-1,18
 410 803 410 803 509 803 c 128,-1,19
 608 803 608 803 628 729 c 0,20,21
 634 710 634 710 634 689 c 0,22,23
 634 628 634 628 588 554 c 1,24,25
 516 435 516 435 378 373 c 0,26,27
 270 324 270 324 145 324 c 2,28,-1
 125 324 l 1,29,30
 104 250 104 250 104 203 c 128,-1,31
 104 156 104 156 107 132 c 0,32,33
 117 41 117 41 170 1 c 1,34,35
 190 181 190 181 303 276 c 0,36,37
 362 325 362 325 438.5 325 c 128,-1,38
 515 325 515 325 535 252 c 0,39,40
 540 232 540 232 540 211 c 0,41,42
 540 156 540 156 505 93 c 0,43,44
 450 -4 450 -4 352 -39 c 1,45,46
 281 -63 281 -63 211 -47 c 1,47,48
 210 -60 210 -60 210 -73 c 0,49,50
 210 -146 210 -146 243 -200.5 c 128,-1,51
 276 -255 276 -255 355 -255 c 1,52,53
 352 -274 352 -274 322 -274 c 0,54,55
 242 -274 242 -274 204.5 -208 c 128,-1,56
 167 -142 167 -142 167 -52 c 0,57,58
 167 -42 167 -42 167 -33 c 1,59,60
 81 4 81 4 53 109 c 0,61,62
 39 159 39 159 39 215 c 128,-1,63
 39 271 39 271 55 334 c 1,64,65
 -15 350 -15 350 -66 392 c 0,66,67
 -154 465 -154 465 -167 605 c 0,68,69
 -168 618 -168 618 -168 648.5 c 128,-1,70
 -168 679 -168 679 -149 732 c 128,-1,71
 -130 785 -130 785 -94.5 832.5 c 128,-1,72
 -59 880 -59 880 1 909.5 c 128,-1,73
 61 939 61 939 133 939 c 0,74,75
 275 939 275 939 327 829 c 0,0,1
503 777 m 0,76,77
 446 777 446 777 387.5 739.5 c 128,-1,78
 329 702 329 702 281 641 c 0,79,80
 179 511 179 511 132 348 c 1,81,-1
 146 348 l 2,82,83
 342 348 342 348 476 473 c 0,84,85
 565 556 565 556 585 652 c 0,86,87
 589 673 589 673 589 690 c 0,88,89
 589 742 589 742 551 765 c 0,90,91
 532 777 532 777 503 777 c 0,76,77
442 298 m 0,92,93
 361 298 361 298 294.5 199 c 128,-1,94
 228 100 228 100 213 -21 c 1,95,96
 239 -29 239 -29 268 -29 c 0,97,98
 378 -29 378 -29 453 67 c 0,99,100
 512 141 512 141 512 213 c 0,101,102
 512 298 512 298 442 298 c 0,92,93
EndSplineSet
EndChar

StartChar: D
Encoding: 68 68 39
Width: 830
GlyphClass: 2
Flags: W
LayerCount: 2
Fore
SplineSet
-13 91 m 0,0,1
 -2 91 -2 91 9.5 89.5 c 128,-1,2
 21 88 21 88 29 87 c 128,-1,3
 37 86 37 86 51 81.5 c 128,-1,4
 65 77 65 77 70.5 75.5 c 128,-1,5
 76 74 76 74 92.5 67.5 c 128,-1,6
 109 61 109 61 112 59.5 c 128,-1,7
 115 58 115 58 134.5 50 c 128,-1,8
 154 42 154 42 155 41 c 1,9,10
 204 97 204 97 238 215 c 1,11,12
 89 225 89 225 24 335 c 0,13,14
 -11 396 -11 396 -11 467 c 0,15,16
 -11 508 -11 508 0 552 c 0,17,18
 34 677 34 677 141 748 c 0,19,20
 234 809 234 809 359 809 c 0,21,22
 447 809 447 809 516.5 780 c 128,-1,23
 586 751 586 751 628 702 c 0,24,25
 720 594 720 594 720 447 c 0,26,27
 720 293 720 293 664 185 c 0,28,29
 552 -33 552 -33 363 -33 c 0,30,31
 279 -33 279 -33 189 2 c 1,32,33
 132 -41 132 -41 51 -41 c 0,34,35
 -56 -41 -56 -41 -85 9 c 0,36,37
 -92 22 -92 22 -92 37.5 c 128,-1,38
 -92 53 -92 53 -72 72 c 128,-1,39
 -52 91 -52 91 -13 91 c 0,0,1
497 397 m 0,40,41
 498 402 498 402 503.5 403 c 128,-1,42
 509 404 509 404 512.5 401 c 128,-1,43
 516 398 516 398 515 392 c 0,44,45
 493 324 493 324 440 276 c 128,-1,46
 387 228 387 228 307 217 c 1,47,48
 275 82 275 82 210 19 c 1,49,50
 285 -7 285 -7 349 -7 c 128,-1,51
 413 -7 413 -7 461 20 c 128,-1,52
 509 47 509 47 544 93 c 128,-1,53
 579 139 579 139 607 198.5 c 128,-1,54
 635 258 635 258 646 323.5 c 128,-1,55
 657 389 657 389 657 454.5 c 128,-1,56
 657 520 657 520 636.5 579.5 c 128,-1,57
 616 639 616 639 581 685 c 128,-1,58
 546 731 546 731 486 758 c 128,-1,59
 426 785 426 785 349 785 c 0,60,61
 185 785 185 785 98 669 c 0,62,63
 37 589 37 589 37 489 c 0,64,65
 37 353 37 353 130 283 c 0,66,67
 180 246 180 246 245 239 c 1,68,69
 257 287 257 287 273.5 368.5 c 128,-1,70
 290 450 290 450 302 502.5 c 128,-1,71
 314 555 314 555 332 610 c 0,72,73
 369 721 369 721 443 721 c 0,74,75
 457 721 457 721 463 704 c 1,76,77
 399 704 399 704 374 600 c 1,78,79
 360 547 360 547 342.5 419.5 c 128,-1,80
 325 292 325 292 313 240 c 1,81,82
 383 250 383 250 430.5 293 c 128,-1,83
 478 336 478 336 497 397 c 0,40,41
-62 30 m 0,84,85
 -62 11 -62 11 -35 -1.5 c 128,-1,86
 -8 -14 -8 -14 42 -14 c 128,-1,87
 92 -14 92 -14 137 23 c 1,88,89
 37 66 37 66 -6.5 66 c 128,-1,90
 -50 66 -50 66 -60 41 c 0,91,92
 -62 35 -62 35 -62 30 c 0,84,85
EndSplineSet
EndChar

StartChar: E
Encoding: 69 69 40
Width: 657
GlyphClass: 2
Flags: W
LayerCount: 2
Fore
SplineSet
229 939 m 0,0,1
 235 939 235 939 238.5 934.5 c 128,-1,2
 242 930 242 930 242 926 c 2,3,-1
 242 922 l 1,4,5
 177 922 177 922 130 884 c 0,6,7
 64 830 64 830 64 754 c 0,8,9
 64 721 64 721 78 688 c 0,10,11
 100 634 100 634 159 605 c 1,12,13
 183 694 183 694 258.5 757.5 c 128,-1,14
 334 821 334 821 444 821 c 0,15,16
 527 821 527 821 550 765 c 0,17,18
 557 748 557 748 557 720.5 c 128,-1,19
 557 693 557 693 527 652 c 0,20,21
 453 554 453 554 290 554 c 0,22,23
 240 554 240 554 203 563 c 1,24,25
 200 544 200 544 200 523 c 128,-1,26
 200 502 200 502 207 481 c 1,27,28
 268 503 268 503 336.5 503 c 128,-1,29
 405 503 405 503 420 468 c 0,30,31
 423 460 423 460 423 453 c 0,32,33
 423 432 423 432 391 411 c 128,-1,34
 359 390 359 390 292 390 c 128,-1,35
 225 390 225 390 184 436 c 1,36,37
 95 379 95 379 53 268 c 0,38,39
 25 194 25 194 25 142 c 0,40,41
 25 -33 25 -33 130 -81 c 1,42,43
 130 -78 130 -78 130 -75 c 0,44,45
 130 18 130 18 160.5 107 c 128,-1,46
 191 196 191 196 257 260.5 c 128,-1,47
 323 325 323 325 409 325 c 128,-1,48
 495 325 495 325 520 247 c 0,49,50
 529 219 529 219 529 176.5 c 128,-1,51
 529 134 529 134 499 69 c 0,52,53
 447 -42 447 -42 342 -92 c 0,54,55
 278 -122 278 -122 204 -122 c 0,56,57
 192 -122 192 -122 172 -120 c 1,58,59
 175 -202 175 -202 209 -253 c 128,-1,60
 243 -304 243 -304 307 -304 c 1,61,62
 303 -321 303 -321 282 -321 c 0,63,64
 215 -321 215 -321 176.5 -263 c 128,-1,65
 138 -205 138 -205 132 -113 c 1,66,67
 60 -95 60 -95 16 -42 c 0,68,69
 -38 22 -38 22 -38 121 c 0,70,71
 -38 258 -38 258 43 362 c 0,72,73
 94 428 94 428 166 464 c 1,74,75
 150 498 150 498 150 528.5 c 128,-1,76
 150 559 150 559 153 580 c 1,77,78
 108 601 108 601 80 636.5 c 128,-1,79
 52 672 52 672 47 700 c 128,-1,80
 42 728 42 728 42 748 c 128,-1,81
 42 768 42 768 49.5 800.5 c 128,-1,82
 57 833 57 833 80.5 865.5 c 128,-1,83
 104 898 104 898 143 918.5 c 128,-1,84
 182 939 182 939 229 939 c 0,0,1
417 301 m 0,85,86
 350 301 350 301 292.5 238.5 c 128,-1,87
 235 176 235 176 204.5 86 c 128,-1,88
 174 -4 174 -4 172 -93 c 1,89,90
 186 -96 186 -96 202 -96 c 0,91,92
 348 -96 348 -96 435 17 c 0,93,94
 499 100 499 100 499 186 c 128,-1,95
 499 272 499 272 449 294 c 0,96,97
 435 301 435 301 417 301 c 0,85,86
510 733 m 0,98,99
 510 797 510 797 432.5 797.5 c 128,-1,100
 355 798 355 798 291.5 734 c 128,-1,101
 228 670 228 670 208 587 c 1,102,103
 245 579 245 579 289 579 c 0,104,105
 405 579 405 579 471 651 c 0,106,107
 510 693 510 693 510 733 c 0,98,99
336 481 m 0,108,109
 274 481 274 481 219 456 c 1,110,111
 246 414 246 414 309.5 414 c 128,-1,112
 373 414 373 414 391 442 c 0,113,114
 395 449 395 449 395 454 c 0,115,116
 395 467 395 467 377.5 474 c 128,-1,117
 360 481 360 481 336 481 c 0,108,109
EndSplineSet
EndChar

StartChar: F
Encoding: 70 70 41
Width: 652
GlyphClass: 2
Flags: W
LayerCount: 2
Fore
SplineSet
321 348 m 1,0,1
 293 354 293 354 275 367 c 1,2,-1
 275 386 l 1,3,4
 295 373 295 373 324 367 c 1,5,6
 354 551 354 551 369 586 c 128,-1,7
 384 621 384 621 399 647 c 0,8,9
 429 696 429 696 480 696 c 0,10,11
 494 696 494 696 500 679 c 1,12,13
 434 679 434 679 411 560 c 0,14,15
 398 495 398 495 393 442 c 128,-1,16
 388 389 388 389 388 386 c 0,17,18
 388 375 388 375 386 365 c 1,19,20
 429 371 429 371 463 388 c 1,21,22
 469 449 469 449 496 495.5 c 128,-1,23
 523 542 523 542 564 542 c 0,24,25
 589 542 589 542 589 515 c 0,26,27
 589 462 589 462 529 409 c 0,28,29
 516 397 516 397 501 387 c 1,30,31
 498 366 498 366 498 349 c 0,32,33
 498 275 498 275 534 275 c 1,34,35
 533 263 533 263 511.5 263 c 128,-1,36
 490 263 490 263 476 292 c 128,-1,37
 462 321 462 321 462 366 c 1,38,39
 426 350 426 350 384 346 c 1,40,41
 359 133 359 133 320 59 c 0,42,43
 271 -33 271 -33 207 -59 c 0,44,45
 167 -75 167 -75 116.5 -75 c 128,-1,46
 66 -75 66 -75 29 -56 c 1,47,48
 -33 -22 -33 -22 -42 64 c 0,49,50
 -43 74 -43 74 -43 92.5 c 128,-1,51
 -43 111 -43 111 -32 144.5 c 128,-1,52
 -21 178 -21 178 -1.5 209.5 c 128,-1,53
 18 241 18 241 50 260.5 c 128,-1,54
 82 280 82 280 105 280 c 0,55,56
 137 280 137 280 145 266 c 2,57,-1
 148 261 l 1,58,59
 64 261 64 261 15 184 c 0,60,61
 -17 133 -17 133 -17 79 c 0,62,63
 -17 -25 -17 -25 67 -44 c 0,64,65
 83 -48 83 -48 110 -48 c 128,-1,66
 137 -48 137 -48 167 -33.5 c 128,-1,67
 197 -19 197 -19 219 12.5 c 128,-1,68
 241 44 241 44 256.5 76 c 128,-1,69
 272 108 272 108 285 160 c 0,70,71
 303 238 303 238 321 348 c 1,0,1
720 816 m 0,72,73
 753 816 753 816 753 781.5 c 128,-1,74
 753 747 753 747 721.5 721.5 c 128,-1,75
 690 696 690 696 622.5 696 c 128,-1,76
 555 696 555 696 439 733 c 128,-1,77
 323 770 323 770 263 770 c 0,78,79
 134 770 134 770 62 667 c 0,80,81
 13 597 13 597 13 517 c 0,82,83
 13 403 13 403 91 366 c 0,84,85
 118 353 118 353 152 353 c 1,86,87
 152 346 152 346 144 338 c 128,-1,88
 136 330 136 330 126 330 c 0,89,90
 21 330 21 330 -20 417 c 0,91,92
 -39 458 -39 458 -39 503 c 128,-1,93
 -39 548 -39 548 -21 598 c 0,94,95
 18 706 18 706 118 758 c 0,96,97
 183 791 183 791 255.5 791 c 128,-1,98
 328 791 328 791 435.5 758.5 c 128,-1,99
 543 726 543 726 600 726 c 0,100,101
 686 726 686 726 699 766 c 0,102,103
 706 785 706 785 695 791 c 0,104,105
 693 792 693 792 692 792 c 1,106,107
 698 816 698 816 720 816 c 0,72,73
563 523 m 0,108,109
 546 523 546 523 530 491.5 c 128,-1,110
 514 460 514 460 505 415 c 1,111,112
 555 455 555 455 568 501 c 0,113,114
 570 509 570 509 570 516 c 128,-1,115
 570 523 570 523 563 523 c 0,108,109
EndSplineSet
EndChar

StartChar: G
Encoding: 71 71 42
Width: 572
GlyphClass: 2
Flags: W
LayerCount: 2
Fore
SplineSet
101 415 m 1,0,1
 62 285 62 285 62 208 c 0,2,3
 62 27 62 27 166 27 c 0,4,5
 231 27 231 27 301 107 c 1,6,7
 315 186 315 186 320 217.5 c 128,-1,8
 325 249 325 249 331.5 281.5 c 128,-1,9
 338 314 338 314 343 332.5 c 128,-1,10
 348 351 348 351 355 375 c 128,-1,11
 362 399 362 399 370 412 c 128,-1,12
 378 425 378 425 388 438 c 0,13,14
 406 462 406 462 436 462 c 0,15,16
 471 462 471 462 471 414 c 0,17,18
 471 397 471 397 467 375 c 0,19,20
 448 274 448 274 373 160 c 1,21,-1
 362 144 l 1,22,23
 338 -66 338 -66 287 -182 c 0,24,25
 237 -296 237 -296 165 -351 c 0,26,27
 77 -419 77 -419 -51 -419 c 0,28,29
 -200 -419 -200 -419 -260 -316 c 0,30,31
 -289 -266 -289 -266 -289 -220.5 c 128,-1,32
 -289 -175 -289 -175 -278 -139 c 0,33,34
 -252 -49 -252 -49 -179 -12 c 0,35,36
 -144 5 -144 5 -104 5 c 0,37,38
 2 5 2 5 41 -77 c 0,39,40
 58 -113 58 -113 58 -146 c 128,-1,41
 58 -179 58 -179 46 -209 c 0,42,43
 20 -278 20 -278 -39 -278 c 0,44,45
 -58 -278 -58 -278 -66 -259 c 1,46,47
 -21 -259 -21 -259 4 -198 c 0,48,49
 16 -168 16 -168 16 -137.5 c 128,-1,50
 16 -107 16 -107 2 -75 c 0,51,52
 -25 -14 -25 -14 -107 -14 c 128,-1,53
 -189 -14 -189 -14 -236 -93 c 0,54,55
 -268 -146 -268 -146 -268 -204 c 0,56,57
 -268 -228 -268 -228 -262 -253 c 0,58,59
 -241 -347 -241 -347 -154 -380 c 0,60,61
 -115 -395 -115 -395 -55 -395 c 128,-1,62
 5 -395 5 -395 61.5 -367.5 c 128,-1,63
 118 -340 118 -340 154.5 -298.5 c 128,-1,64
 191 -257 191 -257 219 -192 c 1,65,66
 267 -86 267 -86 294 65 c 1,67,68
 226 2 226 2 164.5 2 c 128,-1,69
 103 2 103 2 62.5 38.5 c 128,-1,70
 22 75 22 75 11 126 c 128,-1,71
 0 177 0 177 0 225 c 0,72,73
 0 319 0 319 33 424 c 1,74,75
 -25 438 -25 438 -63 476 c 0,76,77
 -121 534 -121 534 -121 622 c 0,78,79
 -121 690 -121 690 -94 738 c 0,80,81
 -37 839 -37 839 65 839 c 0,82,83
 80 839 80 839 81 827 c 1,84,-1
 82 823 l 1,85,86
 33 823 33 823 -7 799 c 0,87,88
 -84 753 -84 753 -99 655 c 0,89,90
 -101 638 -101 638 -101 616.5 c 128,-1,91
 -101 595 -101 595 -92 561 c 128,-1,92
 -83 527 -83 527 -48 493.5 c 128,-1,93
 -13 460 -13 460 40 447 c 1,94,95
 93 600 93 600 189 706.5 c 128,-1,96
 285 813 285 813 395 813 c 0,97,98
 478 813 478 813 478 726 c 0,99,100
 478 664 478 664 427 589 c 0,101,102
 354 480 354 480 233 436 c 0,103,104
 173 415 173 415 109 415 c 2,105,-1
 101 415 l 1,0,1
384 790 m 0,106,107
 308 790 308 790 232.5 687 c 128,-1,108
 157 584 157 584 109 439 c 1,109,-1
 110 439 l 2,110,111
 256 439 256 439 358 549 c 1,112,113
 439 638 439 638 439 727 c 0,114,115
 439 776 439 776 402 788 c 0,116,117
 394 790 394 790 384 790 c 0,106,107
369 204 m 1,118,119
 444 334 444 334 444 408 c 0,120,121
 444 431 444 431 431 431 c 0,122,123
 406 431 406 431 394 382 c 128,-1,124
 382 333 382 333 376 272.5 c 128,-1,125
 370 212 370 212 369 204 c 1,118,119
EndSplineSet
EndChar

StartChar: H
Encoding: 72 72 43
Width: 810
GlyphClass: 2
Flags: W
LayerCount: 2
Fore
SplineSet
192 637 m 1,0,-1
 363 626 l 1,1,2
 411 735 411 735 486 735 c 0,3,4
 500 735 500 735 506 718 c 1,5,6
 445 718 445 718 410 629 c 1,7,8
 511 645 511 645 552 715 c 0,9,10
 568 743 568 743 568 760 c 0,11,12
 568 800 568 800 540 800 c 1,13,14
 546 817 546 817 564 817 c 0,15,16
 598 817 598 817 598 770.5 c 128,-1,17
 598 724 598 724 561 680 c 0,18,19
 507 615 507 615 401 604 c 1,20,21
 379 532 379 532 365 424 c 128,-1,22
 351 316 351 316 349 303 c 1,23,24
 387 330 387 330 480 392 c 128,-1,25
 573 454 573 454 601 473 c 1,26,27
 646 636 646 636 717.5 743 c 128,-1,28
 789 850 789 850 868 850 c 0,29,30
 895 850 895 850 910.5 833 c 128,-1,31
 926 816 926 816 926 789 c 0,32,33
 926 716 926 716 856 640 c 128,-1,34
 786 564 786 564 661 476 c 1,35,36
 616 295 616 295 616 126 c 0,37,38
 616 -24 616 -24 659 -98 c 0,39,40
 693 -156 693 -156 751 -156 c 1,41,42
 745 -176 745 -176 723 -176 c 0,43,44
 656 -176 656 -176 614.5 -122 c 128,-1,45
 573 -68 573 -68 563 3 c 128,-1,46
 553 74 553 74 553 123 c 0,47,48
 553 274 553 274 589 426 c 1,49,50
 363 276 363 276 344 263 c 1,51,52
 314 62 314 62 267 -11 c 1,53,54
 222 -79 222 -79 153 -79 c 0,55,56
 121 -79 121 -79 102 -57 c 128,-1,57
 83 -35 83 -35 83 2 c 0,58,59
 83 103 83 103 276 249 c 1,60,61
 319 514 319 514 353 602 c 1,62,63
 353 602 353 602 204 613 c 1,64,65
 83 613 83 613 31 521 c 0,66,67
 6 475 6 475 6 440 c 0,68,69
 6 326 6 326 74 312 c 0,70,71
 80 311 80 311 87 311 c 1,72,73
 87 303 87 303 79.5 296 c 128,-1,74
 72 289 72 289 60 289 c 0,75,76
 -4 289 -4 289 -29 355 c 0,77,78
 -40 384 -40 384 -40 421 c 128,-1,79
 -40 458 -40 458 -19 505 c 0,80,81
 22 599 22 599 119 627 c 0,82,83
 153 637 153 637 192 637 c 1,0,-1
900 790 m 0,84,85
 900 828 900 828 868 828 c 0,86,87
 816 828 816 828 764.5 743.5 c 128,-1,88
 713 659 713 659 675 525 c 1,89,90
 782 603 782 603 841 667.5 c 128,-1,91
 900 732 900 732 900 790 c 0,84,85
109 1 m 0,92,93
 109 -54 109 -54 151.5 -54 c 128,-1,94
 194 -54 194 -54 220 13 c 128,-1,95
 246 80 246 80 269 209 c 1,96,97
 109 85 109 85 109 1 c 0,92,93
EndSplineSet
EndChar

StartChar: I
Encoding: 73 73 44
Width: 648
GlyphClass: 2
Flags: W
LayerCount: 2
Fore
SplineSet
148 -113 m 0,0,1
 -1 -113 -1 -113 -62 -9 c 0,2,3
 -92 42 -92 42 -92 88 c 128,-1,4
 -92 134 -92 134 -82 169 c 0,5,6
 -57 260 -57 260 15 297 c 0,7,8
 49 314 49 314 89 314 c 0,9,10
 195 314 195 314 234 232 c 0,11,12
 251 196 251 196 251 163 c 128,-1,13
 251 130 251 130 239 100 c 0,14,15
 213 31 213 31 154 31 c 0,16,17
 135 31 135 31 126 50 c 1,18,19
 169 50 169 50 193 111 c 0,20,21
 205 141 205 141 205 171.5 c 128,-1,22
 205 202 205 202 192 234 c 0,23,24
 167 295 167 295 87 295 c 128,-1,25
 7 295 7 295 -40 217 c 0,26,27
 -71 165 -71 165 -71 107 c 0,28,29
 -71 83 -71 83 -66 57 c 0,30,31
 -45 -37 -45 -37 42 -71 c 0,32,33
 81 -86 81 -86 139 -86 c 128,-1,34
 197 -86 197 -86 247.5 -59.5 c 128,-1,35
 298 -33 298 -33 329.5 14 c 128,-1,36
 361 61 361 61 383 118 c 128,-1,37
 405 175 405 175 419.5 246 c 128,-1,38
 434 317 434 317 444 380 c 0,39,40
 472 559 472 559 495 627 c 1,41,42
 402 634 402 634 398 634 c 0,43,44
 256 634 256 634 199 541 c 0,45,46
 173 499 173 499 173 467 c 0,47,48
 173 364 173 364 235 354 c 0,49,50
 240 353 240 353 245 353 c 1,51,52
 245 345 245 345 237 338 c 128,-1,53
 229 331 229 331 217 331 c 0,54,55
 160 331 160 331 136 390 c 0,56,57
 125 419 125 419 125 453 c 128,-1,58
 125 487 125 487 145 529 c 0,59,60
 189 624 189 624 306 650 c 0,61,62
 343 658 343 658 373.5 658 c 128,-1,63
 404 658 404 658 503 649 c 1,64,65
 548 763 548 763 632 763 c 0,66,67
 647 763 647 763 653 746 c 1,68,69
 580 746 580 746 549 646 c 1,70,-1
 569 646 l 2,71,72
 672 646 672 646 713 711 c 0,73,74
 729 736 729 736 729 754 c 0,75,76
 729 801 729 801 696 801 c 1,77,78
 702 819 702 819 719 819 c 0,79,80
 748 819 748 819 758 783 c 0,81,82
 761 770 761 770 761 758 c 0,83,84
 761 722 761 722 733 687 c 0,85,86
 680 623 680 623 568 623 c 2,87,-1
 543 623 l 1,88,89
 525 553 525 553 516 452.5 c 128,-1,90
 507 352 507 352 496.5 286.5 c 128,-1,91
 486 221 486 221 472.5 166 c 128,-1,92
 459 111 459 111 432.5 58 c 128,-1,93
 406 5 406 5 370 -31.5 c 128,-1,94
 334 -68 334 -68 277 -90.5 c 128,-1,95
 220 -113 220 -113 148 -113 c 0,0,1
EndSplineSet
EndChar

StartChar: J
Encoding: 74 74 45
Width: 670
GlyphClass: 2
Flags: W
LayerCount: 2
Fore
SplineSet
709 801 m 1,0,1
 715 819 715 819 732.5 819 c 128,-1,2
 750 819 750 819 761.5 804.5 c 128,-1,3
 773 790 773 790 773 767 c 128,-1,4
 773 744 773 744 760.5 723.5 c 128,-1,5
 748 703 748 703 730.5 689 c 128,-1,6
 713 675 713 675 681 662 c 1,7,8
 639 643 639 643 554 619 c 1,9,10
 530 531 530 531 518.5 406.5 c 128,-1,11
 507 282 507 282 495 199 c 128,-1,12
 483 116 483 116 468 44.5 c 128,-1,13
 453 -27 453 -27 424 -95.5 c 128,-1,14
 395 -164 395 -164 356 -212 c 128,-1,15
 317 -260 317 -260 255.5 -289 c 128,-1,16
 194 -318 194 -318 115 -318 c 0,17,18
 -42 -318 -42 -318 -109 -207 c 0,19,20
 -144 -149 -144 -149 -144 -80 c 0,21,22
 -144 -47 -144 -47 -136 -12 c 0,23,24
 -112 90 -112 90 -36 137 c 0,25,26
 9 165 9 165 62 165 c 0,27,28
 170 165 170 165 210 80 c 0,29,30
 226 44 226 44 226 9.5 c 128,-1,31
 226 -25 226 -25 215 -58 c 0,32,33
 188 -132 188 -132 127 -132 c 0,34,35
 110 -132 110 -132 99 -113 c 1,36,37
 140 -113 140 -113 164 -55 c 0,38,39
 179 -19 179 -19 179 13 c 128,-1,40
 179 45 179 45 170 72 c 0,41,42
 144 146 144 146 56 146 c 128,-1,43
 -32 146 -32 146 -86 58 c 0,44,45
 -123 -3 -123 -3 -123 -72 c 0,46,47
 -123 -96 -123 -96 -118 -120 c 0,48,49
 -100 -226 -100 -226 -11 -269 c 0,50,51
 36 -292 36 -292 108 -292 c 128,-1,52
 180 -292 180 -292 241 -245 c 128,-1,53
 302 -198 302 -198 335.5 -126.5 c 128,-1,54
 369 -55 369 -55 394.5 46.5 c 128,-1,55
 420 148 420 148 433 240 c 0,56,57
 467 491 467 491 501 604 c 1,58,59
 318 551 318 551 253 486 c 0,60,61
 225 458 225 458 206 415.5 c 128,-1,62
 187 373 187 373 187 321 c 128,-1,63
 187 269 187 269 213 233 c 128,-1,64
 239 197 239 197 279 197 c 1,65,66
 279 189 279 189 271 182 c 128,-1,67
 263 175 263 175 251 175 c 0,68,69
 202 175 202 175 170.5 217 c 128,-1,70
 139 259 139 259 139 310.5 c 128,-1,71
 139 362 139 362 151.5 398 c 128,-1,72
 164 434 164 434 182.5 460.5 c 128,-1,73
 201 487 201 487 232.5 511 c 128,-1,74
 264 535 264 535 292 551 c 128,-1,75
 320 567 320 567 363 584 c 0,76,77
 427 608 427 608 510 632 c 1,78,79
 557 763 557 763 645 763 c 0,80,81
 660 763 660 763 666 746 c 1,82,83
 597 746 597 746 563 648 c 1,84,85
 651 674 651 674 695.5 699 c 128,-1,86
 740 724 740 724 740 763 c 0,87,88
 740 780 740 780 731 790.5 c 128,-1,89
 722 801 722 801 709 801 c 1,0,1
EndSplineSet
EndChar

StartChar: K
Encoding: 75 75 46
Width: 786
GlyphClass: 2
Flags: W
LayerCount: 2
Fore
SplineSet
198 637 m 1,0,-1
 368 626 l 1,1,-1
 371 626 l 1,2,3
 418 735 418 735 492 735 c 0,4,5
 506 735 506 735 512 718 c 1,6,7
 451 718 451 718 418 630 c 1,8,9
 517 645 517 645 557 715 c 0,10,11
 573 742 573 742 573 759 c 0,12,13
 573 800 573 800 545 800 c 1,14,15
 552 818 552 818 569 818 c 0,16,17
 603 818 603 818 603 771 c 128,-1,18
 603 724 603 724 566 680 c 1,19,20
 511 617 511 617 410 605 c 1,21,22
 396 559 396 559 384 479 c 1,23,24
 463 462 463 462 508 392 c 1,25,26
 580 452 580 452 663 604 c 0,27,28
 695 662 695 662 729 716 c 0,29,30
 805 836 805 836 889 836 c 0,31,32
 899 836 899 836 904.5 831.5 c 128,-1,33
 910 827 910 827 911 818 c 1,34,35
 819 818 819 818 760 686 c 0,36,37
 734 628 734 628 707.5 566 c 128,-1,38
 681 504 681 504 635.5 443 c 128,-1,39
 590 382 590 382 530 350 c 1,40,41
 562 280 562 280 589 106 c 0,42,43
 598 49 598 49 613 -5 c 0,44,45
 643 -120 643 -120 730 -120 c 1,46,47
 728 -138 728 -138 704 -138 c 0,48,49
 581 -138 581 -138 549 -21 c 0,50,51
 534 34 534 34 527.5 90.5 c 128,-1,52
 521 147 521 147 514 218.5 c 128,-1,53
 507 290 507 290 494 334 c 1,54,55
 440 313 440 313 366 313 c 2,56,-1
 358 313 l 1,57,58
 322 100 322 100 249 14 c 0,59,60
 184 -62 184 -62 78 -62 c 0,61,62
 29 -62 29 -62 -7 -44 c 0,63,64
 -67 -14 -67 -14 -78 66 c 0,65,66
 -80 77 -80 77 -80 94 c 128,-1,67
 -80 111 -80 111 -70 140.5 c 128,-1,68
 -60 170 -60 170 -41 198.5 c 128,-1,69
 -22 227 -22 227 9.5 245 c 128,-1,70
 41 263 41 263 63 263 c 0,71,72
 96 263 96 263 104 249 c 2,73,-1
 107 244 l 1,74,75
 19 244 19 244 -27 170 c 0,76,77
 -53 127 -53 127 -53 95 c 0,78,79
 -53 -19 -53 -19 40 -33 c 0,80,81
 50 -35 50 -35 73.5 -35 c 128,-1,82
 97 -35 97 -35 126 -22 c 128,-1,83
 155 -9 155 -9 177.5 18 c 128,-1,84
 200 45 200 45 217 75 c 128,-1,85
 234 105 234 105 249 150 c 0,86,87
 270 212 270 212 295 324 c 1,88,89
 229 348 229 348 229 405 c 0,90,91
 229 430 229 430 252 457 c 128,-1,92
 275 484 275 484 329 485 c 1,93,94
 347 563 347 563 362 603 c 1,95,-1
 210 613 l 1,96,97
 99 613 99 613 51 530 c 0,98,99
 28 490 28 490 28 460 c 128,-1,100
 28 430 28 430 35 409 c 0,101,102
 55 356 55 356 100 353 c 1,103,104
 100 345 100 345 92 338 c 128,-1,105
 84 331 84 331 72 331 c 0,106,107
 13 331 13 331 -8 391 c 0,108,109
 -17 416 -17 416 -17 449.5 c 128,-1,110
 -17 483 -17 483 4 526 c 0,111,112
 59 637 59 637 198 637 c 1,0,-1
367 338 m 2,113,114
 427 338 427 338 480 372 c 1,115,116
 447 441 447 441 380 456 c 1,117,-1
 362 338 l 1,118,-1
 367 338 l 2,113,114
323 461 m 1,119,120
 287 458 287 458 271.5 440 c 128,-1,121
 256 422 256 422 256 409 c 0,122,123
 256 368 256 368 300 349 c 1,124,125
 309 391 309 391 323 461 c 1,119,120
EndSplineSet
EndChar

StartChar: L
Encoding: 76 76 47
Width: 680
GlyphClass: 2
Flags: W
LayerCount: 2
Fore
SplineSet
588 831 m 0,0,1
 680 831 680 831 680 693 c 0,2,3
 680 605 680 605 632 490 c 0,4,5
 562 323 562 323 442 233 c 0,6,7
 396 199 396 199 348 181 c 1,8,9
 300 57 300 57 227 0 c 1,10,11
 327 -74 327 -74 372 -96.5 c 128,-1,12
 417 -119 417 -119 459 -119 c 0,13,14
 532 -119 532 -119 555 -68 c 0,15,16
 562 -52 562 -52 562 -38 c 128,-1,17
 562 -24 562 -24 554.5 -14.5 c 128,-1,18
 547 -5 547 -5 537 -5 c 1,19,20
 540 7 540 7 552 7 c 0,21,22
 586 7 586 7 597 -31 c 0,23,24
 601 -44 601 -44 601 -65 c 128,-1,25
 601 -86 601 -86 578 -112 c 0,26,27
 546 -150 546 -150 483 -150 c 0,28,29
 384 -150 384 -150 272 -65 c 0,30,31
 253 -51 253 -51 206 -15 c 1,32,33
 144 -54 144 -54 69 -54 c 0,34,35
 -42 -54 -42 -54 -75 2 c 0,36,37
 -84 19 -84 19 -84 37.5 c 128,-1,38
 -84 56 -84 56 -68 76 c 0,39,40
 -43 107 -43 107 4 107 c 0,41,42
 79 107 79 107 191 26 c 1,43,44
 236 72 236 72 272 163 c 1,45,46
 262 162 262 162 243 162 c 0,47,48
 80 162 80 162 4 292 c 0,49,50
 -42 372 -42 372 -42 469 c 0,51,52
 -42 502 -42 502 -37 536 c 0,53,54
 -19 663 -19 663 57 730 c 1,55,56
 109 774 109 774 175 774 c 128,-1,57
 241 774 241 774 277 731 c 128,-1,58
 313 688 313 688 315 625 c 0,59,60
 315 616 315 616 305 610.5 c 128,-1,61
 295 605 295 605 285 607.5 c 128,-1,62
 275 610 275 610 275 620 c 0,63,64
 273 680 273 680 251 715.5 c 128,-1,65
 229 751 229 751 172 751 c 0,66,67
 82 751 82 751 27 652 c 0,68,69
 -17 574 -17 574 -17 480 c 0,70,71
 -17 308 -17 308 94 231 c 0,72,73
 155 188 155 188 242 188 c 0,74,75
 262 188 262 188 283 191 c 1,76,77
 306 253 306 253 332 353.5 c 128,-1,78
 358 454 358 454 378.5 528.5 c 128,-1,79
 399 603 399 603 427 677 c 0,80,81
 485 831 485 831 588 831 c 0,0,1
577 802 m 1,82,83
 507 802 507 802 470 667 c 0,84,85
 452 602 452 602 438 533 c 0,86,87
 397 322 397 322 362 218 c 1,88,89
 485 281 485 281 563 454 c 0,90,91
 626 592 626 592 625 708 c 1,92,93
 622 800 622 800 577 802 c 1,82,83
-57 35 m 0,94,95
 -57 12 -57 12 -26.5 -9 c 128,-1,96
 4 -30 4 -30 65 -30 c 128,-1,97
 126 -30 126 -30 173 9 c 1,98,99
 75 82 75 82 4 82 c 0,100,101
 -41 82 -41 82 -54 51 c 0,102,103
 -57 42 -57 42 -57 35 c 0,94,95
EndSplineSet
EndChar

StartChar: M
Encoding: 77 77 48
Width: 1223
GlyphClass: 2
Flags: W
LayerCount: 2
Fore
SplineSet
806 702 m 1,0,-1
 745 721 l 1,1,2
 697 647 697 647 643 455 c 0,3,4
 581 238 581 238 540 150.5 c 128,-1,5
 499 63 499 63 454.5 3 c 128,-1,6
 410 -57 410 -57 344 -92 c 128,-1,7
 278 -127 278 -127 196 -127 c 0,8,9
 49 -127 49 -127 -18 -22 c 0,10,11
 -55 37 -55 37 -55 105 c 0,12,13
 -55 133 -55 133 -49 162 c 0,14,15
 -28 259 -28 259 46 300 c 0,16,17
 85 322 85 322 133 322 c 0,18,19
 236 322 236 322 272 242 c 0,20,21
 287 209 287 209 287 174.5 c 128,-1,22
 287 140 287 140 273 105 c 0,23,24
 239 21 239 21 162 21 c 0,25,26
 150 21 150 21 142 26.5 c 128,-1,27
 134 32 134 32 130 43 c 1,28,29
 157 43 157 43 181 57 c 0,30,31
 221 81 221 81 243 144 c 0,32,33
 250 165 250 165 250 178.5 c 128,-1,34
 250 192 250 192 248 209.5 c 128,-1,35
 246 227 246 227 235 250 c 128,-1,36
 224 273 224 273 197 287 c 128,-1,37
 170 301 170 301 133 301 c 0,38,39
 38 301 38 301 -7 217 c 0,40,41
 -33 169 -33 169 -33 126 c 128,-1,42
 -33 83 -33 83 -24 49 c 0,43,44
 2 -46 2 -46 85 -82 c 0,45,46
 124 -99 124 -99 184 -99 c 128,-1,47
 244 -99 244 -99 305.5 -65.5 c 128,-1,48
 367 -32 367 -32 411.5 25.5 c 128,-1,49
 456 83 456 83 492 154 c 128,-1,50
 528 225 528 225 557.5 307.5 c 128,-1,51
 587 390 587 390 611 464 c 0,52,53
 675 654 675 654 722 729 c 1,54,55
 571 776 571 776 503 776 c 0,56,57
 374 776 374 776 311 678 c 0,58,59
 275 622 275 622 275 563 c 0,60,61
 275 546 275 546 279 528 c 0,62,63
 290 462 290 462 338 449 c 0,64,65
 347 447 347 447 356 447 c 1,66,67
 350 426 350 426 323 426 c 0,68,69
 262 426 262 426 237 491 c 0,70,71
 225 522 225 522 225 560 c 128,-1,72
 225 598 225 598 245 645 c 0,73,74
 287 746 287 746 393 783 c 0,75,76
 443 800 443 800 507.5 800 c 128,-1,77
 572 800 572 800 735 748 c 1,78,79
 784 818 784 818 847 818 c 0,80,81
 855 818 855 818 859 813 c 128,-1,82
 863 808 863 808 864 799 c 1,83,84
 805 799 805 799 759 740 c 1,85,86
 804 726 804 726 817 721 c 1,87,88
 859 794 859 794 896 794 c 0,89,90
 913 794 913 794 916 784 c 2,91,-1
 917 781 l 1,92,93
 889 781 889 781 858 707 c 1,94,-1
 1001 661 l 1,95,96
 1068 787 1068 787 1141 787 c 0,97,98
 1151 787 1151 787 1157 782 c 128,-1,99
 1163 777 1163 777 1165 767 c 1,100,101
 1090 767 1090 767 1027 653 c 1,102,103
 1081 639 1081 639 1094 637 c 1,104,105
 1153 754 1153 754 1200 754 c 0,106,107
 1217 754 1217 754 1220 744 c 2,108,-1
 1221 741 l 1,109,110
 1188 741 1188 741 1141 630 c 1,111,112
 1148 629 1148 629 1160 629 c 0,113,114
 1259 629 1259 629 1299 688 c 1,115,116
 1316 711 1316 711 1316 727 c 0,117,118
 1316 772 1316 772 1276 772 c 1,119,120
 1285 786 1285 786 1305 786 c 0,121,122
 1344 786 1344 786 1356 747 c 0,123,124
 1359 735 1359 735 1359 724 c 0,125,126
 1359 691 1359 691 1331 659 c 0,127,128
 1282 605 1282 605 1180 605 c 0,129,130
 1156 605 1156 605 1133 609 c 1,131,132
 1089 496 1089 496 1057.5 348 c 128,-1,133
 1026 200 1026 200 1026 84 c 128,-1,134
 1026 -32 1026 -32 1073 -32 c 1,135,136
 1063 -52 1063 -52 1044 -52 c 0,137,138
 966 -52 966 -52 966 119 c 0,139,140
 966 220 966 220 998 359.5 c 128,-1,141
 1030 499 1030 499 1085 618 c 1,142,143
 1059 623 1059 623 1017 635 c 1,144,145
 973 549 973 549 924.5 383.5 c 128,-1,146
 876 218 876 218 838.5 112 c 128,-1,147
 801 6 801 6 763 6 c 0,148,149
 687 6 687 6 687 188 c 0,150,151
 687 299 687 299 719.5 448 c 128,-1,152
 752 597 752 597 806 702 c 1,0,-1
754 147 m 0,153,154
 754 63 754 63 774.5 63 c 128,-1,155
 795 63 795 63 825.5 159 c 128,-1,156
 856 255 856 255 901.5 405 c 128,-1,157
 947 555 947 555 991 642 c 1,158,159
 901 670 901 670 850 687 c 1,160,161
 784 510 784 510 759 227 c 1,162,163
 754 182 754 182 754 147 c 0,153,154
EndSplineSet
EndChar

StartChar: N
Encoding: 78 78 49
Width: 1104
GlyphClass: 2
Flags: W
LayerCount: 2
Fore
SplineSet
227 645 m 0,0,1
 291 800 291 800 495 800 c 0,2,3
 566 800 566 800 704 754 c 1,4,5
 750 818 750 818 809 818 c 0,6,7
 817 818 817 818 821 813 c 128,-1,8
 825 808 825 808 826 799 c 1,9,10
 771 799 771 799 729 747 c 1,11,12
 761 739 761 739 793 735 c 1,13,14
 827 804 827 804 862 804 c 0,15,16
 878 804 878 804 882 790 c 1,17,18
 858 790 858 790 837 733 c 1,19,20
 895 734 895 734 916 779 c 0,21,22
 923 793 923 793 923 805.5 c 128,-1,23
 923 818 923 818 914.5 826.5 c 128,-1,24
 906 835 906 835 895 835 c 1,25,26
 900 850 900 850 916 850 c 0,27,28
 945 850 945 850 954 816 c 0,29,30
 957 806 957 806 957 796 c 0,31,32
 957 766 957 766 928 737.5 c 128,-1,33
 899 709 899 709 841 709 c 2,34,-1
 829 709 l 1,35,36
 800 614 800 614 788.5 480.5 c 128,-1,37
 777 347 777 347 777 258 c 0,38,39
 777 33 777 33 817 33 c 0,40,41
 834 33 834 33 859 114 c 128,-1,42
 884 195 884 195 915.5 310 c 128,-1,43
 947 425 947 425 985.5 540.5 c 128,-1,44
 1024 656 1024 656 1081 737 c 128,-1,45
 1138 818 1138 818 1203 818 c 0,46,47
 1217 818 1217 818 1226.5 811 c 128,-1,48
 1236 804 1236 804 1240 789 c 1,49,50
 1166 789 1166 789 1105.5 705.5 c 128,-1,51
 1045 622 1045 622 1006 502 c 128,-1,52
 967 382 967 382 934.5 262.5 c 128,-1,53
 902 143 902 143 869.5 59.5 c 128,-1,54
 837 -24 837 -24 805 -24 c 0,55,56
 755 -24 755 -24 731 58 c 128,-1,57
 707 140 707 140 707 246 c 0,58,59
 707 368 707 368 728.5 500.5 c 128,-1,60
 750 633 750 633 783 713 c 1,61,62
 747 719 747 719 715 728 c 1,63,64
 659 642 659 642 608 410 c 0,65,66
 560 194 560 194 479 46 c 0,67,68
 437 -29 437 -29 364.5 -78 c 128,-1,69
 292 -127 292 -127 196 -127 c 0,70,71
 49 -127 49 -127 -18 -22 c 0,72,73
 -55 37 -55 37 -55 105 c 0,74,75
 -55 133 -55 133 -49 162 c 0,76,77
 -28 259 -28 259 46 300 c 0,78,79
 85 322 85 322 133 322 c 0,80,81
 236 322 236 322 272 242 c 0,82,83
 287 209 287 209 287 174.5 c 128,-1,84
 287 140 287 140 273 105 c 0,85,86
 239 21 239 21 162 21 c 0,87,88
 150 21 150 21 142 26.5 c 128,-1,89
 134 32 134 32 130 43 c 1,90,91
 157 43 157 43 181 57 c 0,92,93
 221 81 221 81 243 144 c 0,94,95
 250 165 250 165 250 178.5 c 128,-1,96
 250 192 250 192 248 209.5 c 128,-1,97
 246 227 246 227 235 250 c 128,-1,98
 224 273 224 273 197 287 c 128,-1,99
 170 301 170 301 133 301 c 0,100,101
 38 301 38 301 -7 217 c 0,102,103
 -33 169 -33 169 -33 126 c 128,-1,104
 -33 83 -33 83 -24 49 c 0,105,106
 2 -46 2 -46 85 -82 c 0,107,108
 124 -99 124 -99 171 -99 c 0,109,110
 257 -99 257 -99 325 -52 c 128,-1,111
 393 -5 393 -5 435 66.5 c 128,-1,112
 477 138 477 138 514.5 234 c 128,-1,113
 552 330 552 330 575 418 c 0,114,115
 635 641 635 641 692 735 c 1,116,117
 687 736 687 736 665.5 743 c 128,-1,118
 644 750 644 750 636.5 752 c 128,-1,119
 629 754 629 754 609.5 759 c 128,-1,120
 590 764 590 764 579 766 c 128,-1,121
 568 768 568 768 551 771 c 0,122,123
 521 776 521 776 485 776 c 0,124,125
 355 776 355 776 293 678 c 1,126,127
 257 623 257 623 257 564 c 0,128,129
 257 468 257 468 319 451 c 0,130,131
 328 448 328 448 338 448 c 1,132,133
 332 426 332 426 305 426 c 0,134,135
 244 426 244 426 219 491 c 0,136,137
 207 522 207 522 207 560 c 128,-1,138
 207 598 207 598 227 645 c 0,0,1
EndSplineSet
EndChar

StartChar: O
Encoding: 79 79 50
Width: 686
GlyphClass: 2
Flags: W
LayerCount: 2
Fore
SplineSet
481 700 m 0,0,1
 604 700 604 700 604 518 c 0,2,3
 604 419 604 419 557 291 c 0,4,5
 493 114 493 114 387 18 c 0,6,7
 310 -53 310 -53 231 -53 c 0,8,9
 84 -53 84 -53 28 83 c 0,10,11
 -1 152 -1 152 -1 230.5 c 128,-1,12
 -1 309 -1 309 19 392 c 0,13,14
 63 575 63 575 177 696.5 c 128,-1,15
 291 818 291 818 432 818 c 0,16,17
 440 818 440 818 445 813 c 128,-1,18
 450 808 450 808 451 797 c 1,19,20
 313 797 313 797 203 642 c 0,21,22
 106 505 106 505 76 323 c 0,23,24
 66 262 66 262 66 210 c 0,25,26
 66 109 66 109 107 40 c 128,-1,27
 148 -29 148 -29 232 -29 c 0,28,29
 344 -29 344 -29 444 123 c 0,30,31
 532 257 532 257 564 425 c 0,32,33
 576 487 576 487 576 547.5 c 128,-1,34
 576 608 576 608 547 646 c 1,35,36
 524 673 524 673 490 673 c 0,37,38
 401 673 401 673 342 552 c 0,39,40
 290 446 290 446 290 340 c 0,41,42
 290 191 290 191 373 191 c 1,43,44
 370 172 370 172 340 172 c 0,45,46
 268 172 268 172 243 263 c 0,47,48
 233 302 233 302 233 355.5 c 128,-1,49
 233 409 233 409 256 484 c 0,50,51
 298 619 298 619 387 673 c 0,52,53
 431 700 431 700 481 700 c 0,0,1
EndSplineSet
EndChar

StartChar: P
Encoding: 80 80 51
Width: 679
GlyphClass: 2
Flags: W
LayerCount: 2
Fore
SplineSet
276 276 m 1,0,1
 191 299 191 299 191 373 c 0,2,3
 191 402 191 402 206.5 417.5 c 128,-1,4
 222 433 222 433 233 433 c 0,5,6
 251 433 251 433 254 422 c 2,7,-1
 255 418 l 1,8,9
 229 418 229 418 219 389 c 0,10,11
 216 379 216 379 216 369 c 0,12,13
 216 343 216 343 236 326 c 128,-1,14
 256 309 256 309 281 302 c 1,15,16
 315 504 315 504 325 546 c 0,17,18
 367 718 367 718 452 718 c 0,19,20
 466 718 466 718 472 701 c 1,21,22
 430 701 430 701 407 655 c 0,23,24
 385 609 385 609 376.5 553 c 128,-1,25
 368 497 368 497 364 465 c 128,-1,26
 360 433 360 433 354.5 380.5 c 128,-1,27
 349 328 349 328 345 295 c 1,28,29
 468 299 468 299 548 404 c 0,30,31
 615 492 615 492 615 595 c 0,32,33
 615 711 615 711 533 762 c 0,34,35
 485 791 485 791 416 791 c 0,36,37
 222 791 222 791 121 653 c 0,38,39
 51 559 51 559 51 443 c 0,40,41
 51 329 51 329 111 282 c 0,42,43
 138 260 138 260 173 260 c 1,44,45
 164 237 164 237 142 237 c 0,46,47
 58 237 58 237 23 323 c 0,48,49
 4 369 4 369 4 422 c 128,-1,50
 4 475 4 475 22 534 c 0,51,52
 65 674 65 674 183 751 c 0,53,54
 282 816 282 816 416 816 c 0,55,56
 585 816 585 816 647 707 c 0,57,58
 676 657 676 657 676 605 c 128,-1,59
 676 553 676 553 659 502 c 0,60,61
 621 388 621 388 521 322 c 1,62,63
 440 270 440 270 342 269 c 1,64,65
 312 57 312 57 243 -28 c 0,66,67
 182 -104 182 -104 79 -104 c 0,68,69
 30 -104 30 -104 -6 -86 c 0,70,71
 -67 -56 -67 -56 -78 24 c 0,72,73
 -80 35 -80 35 -80 52 c 128,-1,74
 -80 69 -80 69 -70 98.5 c 128,-1,75
 -60 128 -60 128 -41 156.5 c 128,-1,76
 -22 185 -22 185 9 203 c 128,-1,77
 40 221 40 221 63 221 c 0,78,79
 97 221 97 221 103 207 c 1,80,-1
 106 202 l 1,81,82
 19 202 19 202 -26 128 c 0,83,84
 -53 85 -53 85 -53 53 c 0,85,86
 -53 -61 -53 -61 40 -75 c 0,87,88
 50 -77 50 -77 62 -77 c 0,89,90
 171 -77 171 -77 226 74 c 0,91,92
 253 149 253 149 276 276 c 1,0,1
EndSplineSet
EndChar

StartChar: Q
Encoding: 81 81 52
Width: 686
GlyphClass: 2
Flags: W
LayerCount: 2
Fore
SplineSet
480 700 m 0,0,1
 603 700 603 700 603 518 c 0,2,3
 603 419 603 419 556 291 c 0,4,5
 492 114 492 114 386 18 c 0,6,7
 309 -53 309 -53 230 -53 c 0,8,9
 83 -53 83 -53 27 83 c 0,10,11
 -2 152 -2 152 -2 230.5 c 128,-1,12
 -2 309 -2 309 18 392 c 0,13,14
 62 575 62 575 176 696.5 c 128,-1,15
 290 818 290 818 431 818 c 0,16,17
 439 818 439 818 444 813 c 128,-1,18
 449 808 449 808 450 797 c 1,19,20
 312 797 312 797 202 642 c 0,21,22
 105 505 105 505 75 323 c 0,23,24
 65 262 65 262 65 210 c 0,25,26
 65 109 65 109 106 40 c 128,-1,27
 147 -29 147 -29 231 -29 c 0,28,29
 343 -29 343 -29 443 123 c 0,30,31
 531 257 531 257 563 425 c 0,32,33
 575 487 575 487 575 547.5 c 128,-1,34
 575 608 575 608 546 646 c 1,35,36
 523 673 523 673 489 673 c 0,37,38
 400 673 400 673 341 552 c 0,39,40
 289 446 289 446 289 340 c 0,41,42
 289 191 289 191 372 191 c 1,43,44
 369 172 369 172 339 172 c 0,45,46
 267 172 267 172 242 263 c 0,47,48
 232 302 232 302 232 355.5 c 128,-1,49
 232 409 232 409 255 484 c 0,50,51
 297 619 297 619 386 673 c 0,52,53
 430 700 430 700 480 700 c 0,0,1
-40 -98 m 1,54,55
 -35 -74 -35 -74 -9 -74 c 128,-1,56
 17 -74 17 -74 57.5 -94.5 c 128,-1,57
 98 -115 98 -115 134 -139 c 128,-1,58
 170 -163 170 -163 221.5 -183.5 c 128,-1,59
 273 -204 273 -204 320 -204 c 0,60,61
 413 -204 413 -204 443 -146 c 0,62,63
 452 -128 452 -128 452 -113 c 128,-1,64
 452 -98 452 -98 443 -86 c 0,65,66
 435 -76 435 -76 423 -75 c 1,67,68
 428 -56 428 -56 448 -56 c 0,69,70
 487 -56 487 -56 500 -97 c 0,71,72
 505 -112 505 -112 505 -135.5 c 128,-1,73
 505 -159 505 -159 480 -190 c 0,74,75
 438 -244 438 -244 345 -244 c 0,76,77
 290 -244 290 -244 232 -221 c 128,-1,78
 174 -198 174 -198 134 -171 c 0,79,80
 26 -98 26 -98 -40 -98 c 1,54,55
EndSplineSet
EndChar

StartChar: R
Encoding: 82 82 53
Width: 729
GlyphClass: 2
Flags: W
LayerCount: 2
Fore
SplineSet
437 700 m 0,0,1
 451 700 451 700 457 683 c 1,2,3
 414 683 414 683 393.5 631.5 c 128,-1,4
 373 580 373 580 362 480 c 1,5,6
 447 464 447 464 492 380 c 1,7,8
 556 421 556 421 591.5 490 c 128,-1,9
 627 559 627 559 627 626 c 128,-1,10
 627 693 627 693 576.5 742 c 128,-1,11
 526 791 526 791 432 791 c 0,12,13
 251 791 251 791 152 662 c 0,14,15
 83 571 83 571 83 468 c 128,-1,16
 83 365 83 365 136 329 c 0,17,18
 158 315 158 315 184 315 c 1,19,20
 174 292 174 292 153 292 c 0,21,22
 78 292 78 292 48 371 c 0,23,24
 33 409 33 409 33 457.5 c 128,-1,25
 33 506 33 506 55 566 c 0,26,27
 101 697 101 697 221 764 c 0,28,29
 313 816 313 816 415 816 c 128,-1,30
 517 816 517 816 576 789 c 0,31,32
 689 737 689 737 689 613 c 0,33,34
 689 513 689 513 605 422 c 1,35,36
 563 375 563 375 506 347 c 1,37,38
 531 282 531 282 551 105 c 0,39,40
 558 48 558 48 570 -6 c 0,41,42
 596 -120 596 -120 681 -120 c 1,43,44
 679 -138 679 -138 655 -138 c 0,45,46
 533 -138 533 -138 507 -22 c 0,47,48
 494 33 494 33 490.5 89 c 128,-1,49
 487 145 487 145 484 216.5 c 128,-1,50
 481 288 481 288 470 332 c 1,51,52
 415 312 415 312 353 312 c 2,53,-1
 344 312 l 1,54,55
 316 95 316 95 249 15 c 0,56,57
 222 -18 222 -18 178.5 -40 c 128,-1,58
 135 -62 135 -62 82.5 -62 c 128,-1,59
 30 -62 30 -62 -5 -44 c 0,60,61
 -66 -14 -66 -14 -77 66 c 0,62,63
 -79 77 -79 77 -79 94 c 128,-1,64
 -79 111 -79 111 -69 140.5 c 128,-1,65
 -59 170 -59 170 -40 198.5 c 128,-1,66
 -21 227 -21 227 10 245 c 128,-1,67
 41 263 41 263 64 263 c 0,68,69
 97 263 97 263 105 249 c 1,70,-1
 107 244 l 1,71,72
 20 244 20 244 -26 170 c 0,73,74
 -52 128 -52 128 -52 96 c 0,75,76
 -52 -19 -52 -19 41 -33 c 0,77,78
 51 -35 51 -35 63 -35 c 0,79,80
 105 -35 105 -35 138.5 -14 c 128,-1,81
 172 7 172 7 193.5 38 c 128,-1,82
 215 69 215 69 233 120 c 0,83,84
 260 199 260 199 281 323 c 1,85,86
 243 336 243 336 227 360.5 c 128,-1,87
 211 385 211 385 211 398 c 0,88,89
 211 438 211 438 239 460.5 c 128,-1,90
 267 483 267 483 308 484 c 1,91,92
 321 552 321 552 335 595.5 c 128,-1,93
 349 639 349 639 375 669.5 c 128,-1,94
 401 700 401 700 437 700 c 0,0,1
360 457 m 1,95,-1
 348 338 l 1,96,-1
 352 338 l 2,97,98
 408 338 408 338 461 362 c 1,99,100
 431 441 431 441 360 457 c 1,95,-1
285 349 m 1,101,102
 297 425 297 425 304 461 c 1,103,104
 268 458 268 458 253 439.5 c 128,-1,105
 238 421 238 421 238 409 c 0,106,107
 238 368 238 368 285 349 c 1,101,102
EndSplineSet
EndChar

StartChar: S
Encoding: 83 83 54
Width: 718
GlyphClass: 2
Flags: W
LayerCount: 2
Fore
SplineSet
20 -12 m 1,0,1
 -13 50 -13 50 -13 134 c 0,2,3
 -13 212 -13 212 13.5 273.5 c 128,-1,4
 40 335 40 335 71.5 372.5 c 128,-1,5
 103 410 103 410 148.5 432.5 c 128,-1,6
 194 455 194 455 255.5 455 c 128,-1,7
 317 455 317 455 360 414 c 1,8,-1
 491 524 l 1,9,10
 487 559 487 559 487 593 c 0,11,12
 487 815 487 815 604 815 c 0,13,14
 634 815 634 815 651 794 c 128,-1,15
 668 773 668 773 669 732 c 0,16,17
 672 656 672 656 547 539 c 1,18,19
 578 332 578 332 578 257.5 c 128,-1,20
 578 183 578 183 559 113.5 c 128,-1,21
 540 44 540 44 501 -13 c 128,-1,22
 462 -70 462 -70 394 -102 c 128,-1,23
 326 -134 326 -134 236 -134 c 0,24,25
 107 -134 107 -134 41 -46 c 1,26,27
 23 -109 23 -109 23 -189.5 c 128,-1,28
 23 -270 23 -270 65.5 -334.5 c 128,-1,29
 108 -399 108 -399 175 -399 c 0,30,31
 180 -399 180 -399 180.5 -409 c 128,-1,32
 181 -419 181 -419 175 -419 c 0,33,34
 96 -419 96 -419 45 -344.5 c 128,-1,35
 -6 -270 -6 -270 -6 -179 c 128,-1,36
 -6 -88 -6 -88 20 -12 c 1,0,1
377 395 m 1,37,38
 405 357 405 357 405 309.5 c 128,-1,39
 405 262 405 262 390.5 224.5 c 128,-1,40
 376 187 376 187 339.5 158.5 c 128,-1,41
 303 130 303 130 255 130 c 0,42,43
 236 130 236 130 233 146 c 2,44,-1
 232 151 l 1,45,46
 275 151 275 151 311 191 c 0,47,48
 363 247 363 247 363 317 c 0,49,50
 363 346 363 346 352 373 c 1,51,52
 240 277 240 277 163 185 c 128,-1,53
 86 93 86 93 50 -15 c 1,54,55
 107 -107 107 -107 229 -107 c 0,56,57
 304 -107 304 -107 360.5 -75.5 c 128,-1,58
 417 -44 417 -44 449 10 c 0,59,60
 512 116 512 116 512 267 c 0,61,62
 512 304 512 304 494 492 c 1,63,-1
 377 395 l 1,37,38
32 21 m 1,64,65
 101 194 101 194 337 394 c 1,66,67
 305 428 305 428 249 428 c 128,-1,68
 193 428 193 428 148 401 c 0,69,70
 65 351 65 351 29 233 c 0,71,72
 13 183 13 183 13 130 c 0,73,74
 13 71 13 71 32 21 c 1,64,65
538 644 m 0,75,76
 538 617 538 617 543 572 c 1,77,78
 642 669 642 669 642 736 c 0,79,80
 642 788 642 788 604 788 c 0,81,82
 538 788 538 788 538 644 c 0,75,76
EndSplineSet
EndChar

StartChar: T
Encoding: 84 84 55
Width: 553
GlyphClass: 2
Flags: W
LayerCount: 2
Fore
SplineSet
480 696 m 0,0,1
 494 696 494 696 500 679 c 1,2,3
 426 679 426 679 405 530 c 0,4,5
 395 463 395 463 388 382.5 c 128,-1,6
 381 302 381 302 367 221.5 c 128,-1,7
 353 141 353 141 327.5 74.5 c 128,-1,8
 302 8 302 8 248.5 -33.5 c 128,-1,9
 195 -75 195 -75 117 -75 c 0,10,11
 66 -75 66 -75 29 -56 c 1,12,13
 -33 -22 -33 -22 -42 64 c 0,14,15
 -43 74 -43 74 -43 92.5 c 128,-1,16
 -43 111 -43 111 -32 144.5 c 128,-1,17
 -21 178 -21 178 -1.5 209.5 c 128,-1,18
 18 241 18 241 50 260.5 c 128,-1,19
 82 280 82 280 105 280 c 0,20,21
 137 280 137 280 145 266 c 2,22,-1
 148 261 l 1,23,24
 64 261 64 261 15 184 c 0,25,26
 -17 133 -17 133 -17 79 c 0,27,28
 -17 -25 -17 -25 67 -44 c 0,29,30
 83 -48 83 -48 100 -48 c 0,31,32
 160 -48 160 -48 202 -7 c 128,-1,33
 244 34 244 34 266 99.5 c 128,-1,34
 288 165 288 165 303 244.5 c 128,-1,35
 318 324 318 324 330 403.5 c 128,-1,36
 342 483 342 483 358 548.5 c 128,-1,37
 374 614 374 614 404.5 655 c 128,-1,38
 435 696 435 696 480 696 c 0,0,1
691 824 m 0,39,40
 724 824 724 824 724 789.5 c 128,-1,41
 724 755 724 755 692.5 729.5 c 128,-1,42
 661 704 661 704 593.5 704 c 128,-1,43
 526 704 526 704 424.5 737 c 128,-1,44
 323 770 323 770 263 770 c 0,45,46
 134 770 134 770 62 667 c 0,47,48
 13 597 13 597 13 517 c 0,49,50
 13 403 13 403 91 366 c 0,51,52
 118 353 118 353 152 353 c 1,53,54
 152 346 152 346 144 338 c 128,-1,55
 136 330 136 330 126 330 c 0,56,57
 21 330 21 330 -20 417 c 0,58,59
 -39 458 -39 458 -39 503 c 128,-1,60
 -39 548 -39 548 -21 598 c 0,61,62
 18 706 18 706 118 758 c 0,63,64
 183 791 183 791 255.5 791 c 128,-1,65
 328 791 328 791 421 762.5 c 128,-1,66
 514 734 514 734 571 734 c 0,67,68
 657 734 657 734 670 774 c 0,69,70
 677 793 677 793 666 799 c 0,71,72
 664 800 664 800 663 800 c 1,73,74
 669 824 669 824 691 824 c 0,39,40
EndSplineSet
EndChar

StartChar: U
Encoding: 85 85 56
Width: 664
GlyphClass: 2
Flags: W
LayerCount: 2
Fore
SplineSet
530 493 m 0,0,1
 564 493 564 493 564 452 c 0,2,3
 564 427 564 427 552 387 c 0,4,5
 521 290 521 290 442 173 c 1,6,7
 441 156 441 156 441 140 c 0,8,9
 441 57 441 57 458 -2 c 0,10,11
 479 -71 479 -71 527 -71 c 1,12,13
 522 -91 522 -91 499 -91 c 0,14,15
 447 -91 447 -91 418 -39.5 c 128,-1,16
 389 12 389 12 383 95 c 1,17,18
 283 -22 283 -22 213 -22 c 0,19,20
 89 -22 89 -22 89 112 c 0,21,22
 89 168 89 168 112.5 241.5 c 128,-1,23
 136 315 136 315 165 375.5 c 128,-1,24
 194 436 194 436 217.5 511.5 c 128,-1,25
 241 587 241 587 241 651 c 128,-1,26
 241 715 241 715 204 754 c 128,-1,27
 167 793 167 793 102 793 c 0,28,29
 2 793 2 793 -61 691 c 0,30,31
 -110 610 -110 610 -110 520 c 0,32,33
 -110 406 -110 406 -43 375 c 0,34,35
 -23 366 -23 366 0 366 c 0,36,37
 77 366 77 366 117 452 c 0,38,39
 122 462 122 462 128.5 456.5 c 128,-1,40
 135 451 135 451 133 447 c 0,41,42
 114 400 114 400 80 371.5 c 128,-1,43
 46 343 46 343 0 343 c 0,44,45
 -90 343 -90 343 -122 434 c 0,46,47
 -135 473 -135 473 -135 522 c 128,-1,48
 -135 571 -135 571 -114 632 c 0,49,50
 -75 747 -75 747 11 794 c 0,51,52
 54 817 54 817 102 817 c 0,53,54
 194 817 194 817 243 754.5 c 128,-1,55
 292 692 292 692 292 589 c 0,56,57
 292 529 292 529 270.5 453.5 c 128,-1,58
 249 378 249 378 222 318 c 0,59,60
 153 162 153 162 153 82.5 c 128,-1,61
 153 3 153 3 212 3 c 0,62,63
 280 3 280 3 381 134 c 1,64,65
 381 138 381 138 381 143 c 0,66,67
 381 222 381 222 399 302 c 128,-1,68
 417 382 417 382 452 437.5 c 128,-1,69
 487 493 487 493 530 493 c 0,0,1
445 228 m 1,70,71
 537 379 537 379 537 443 c 0,72,73
 537 461 537 461 525 461 c 0,74,75
 499 461 499 461 476.5 392.5 c 128,-1,76
 454 324 454 324 445 228 c 1,70,71
EndSplineSet
EndChar

StartChar: V
Encoding: 86 86 57
Width: 667
GlyphClass: 2
Flags: W
LayerCount: 2
Fore
SplineSet
458 221 m 1,0,1
 402 280 402 280 402 422 c 0,2,3
 402 550 402 550 455 640 c 0,4,5
 490 700 490 700 536 700 c 128,-1,6
 582 700 582 700 582 599 c 0,7,8
 582 536 582 536 560.5 438.5 c 128,-1,9
 539 341 539 341 495 239 c 1,10,11
 521 210 521 210 557 210 c 1,12,13
 552 190 552 190 527.5 190 c 128,-1,14
 503 190 503 190 479 203 c 1,15,16
 431 102 431 102 372 40 c 128,-1,17
 313 -22 313 -22 251 -22 c 0,18,19
 124 -22 124 -22 124 112 c 0,20,21
 124 181 124 181 153 278 c 128,-1,22
 182 375 182 375 211 473.5 c 128,-1,23
 240 572 240 572 240 643.5 c 128,-1,24
 240 715 240 715 203 754 c 128,-1,25
 166 793 166 793 101 793 c 0,26,27
 1 793 1 793 -62 691 c 0,28,29
 -111 610 -111 610 -111 520 c 0,30,31
 -111 406 -111 406 -44 375 c 0,32,33
 -24 366 -24 366 -1 366 c 0,34,35
 76 366 76 366 116 452 c 0,36,37
 121 462 121 462 127.5 456.5 c 128,-1,38
 134 451 134 451 132 447 c 0,39,40
 113 400 113 400 79 371.5 c 128,-1,41
 45 343 45 343 -1 343 c 0,42,43
 -91 343 -91 343 -123 434 c 0,44,45
 -136 473 -136 473 -136 522 c 128,-1,46
 -136 571 -136 571 -115 632 c 0,47,48
 -76 747 -76 747 10 794 c 0,49,50
 53 817 53 817 101 817 c 0,51,52
 193 817 193 817 242 754.5 c 128,-1,53
 291 692 291 692 291 603 c 128,-1,54
 291 514 291 514 265.5 415 c 128,-1,55
 240 316 240 316 214 225 c 128,-1,56
 188 134 188 134 188 88 c 128,-1,57
 188 42 188 42 201.5 22.5 c 128,-1,58
 215 3 215 3 250 3 c 0,59,60
 307 3 307 3 360.5 63 c 128,-1,61
 414 123 414 123 458 221 c 1,0,1
555 607 m 0,62,63
 555 668 555 668 532.5 668 c 128,-1,64
 510 668 510 668 490 622 c 0,65,66
 452 537 452 537 452 414 c 0,67,68
 452 320 452 320 477 268 c 1,69,70
 555 469 555 469 555 607 c 0,62,63
EndSplineSet
EndChar

StartChar: W
Encoding: 87 87 58
Width: 912
GlyphClass: 2
Flags: W
LayerCount: 2
Fore
SplineSet
678 610 m 0,0,1
 704 697 704 697 752.5 697 c 128,-1,2
 801 697 801 697 801 567 c 128,-1,3
 801 437 801 437 740 266 c 1,4,5
 766 210 766 210 807 210 c 1,6,7
 802 190 802 190 774 190 c 128,-1,8
 746 190 746 190 721 217 c 1,9,10
 680 118 680 118 626.5 57.5 c 128,-1,11
 573 -3 573 -3 514 -3 c 0,12,13
 437 -3 437 -3 405 93 c 1,14,15
 317 -22 317 -22 234 -22 c 0,16,17
 107 -22 107 -22 107 112 c 0,18,19
 107 211 107 211 173.5 375.5 c 128,-1,20
 240 540 240 540 240 646 c 0,21,22
 240 715 240 715 203 754 c 128,-1,23
 166 793 166 793 101 793 c 0,24,25
 1 793 1 793 -62 691 c 0,26,27
 -111 610 -111 610 -111 520 c 0,28,29
 -111 406 -111 406 -44 375 c 0,30,31
 -24 366 -24 366 -1 366 c 0,32,33
 76 366 76 366 116 452 c 0,34,35
 121 462 121 462 127.5 456.5 c 128,-1,36
 134 451 134 451 132 447 c 0,37,38
 113 400 113 400 79 371.5 c 128,-1,39
 45 343 45 343 -1 343 c 0,40,41
 -91 343 -91 343 -123 434 c 0,42,43
 -136 473 -136 473 -136 522 c 128,-1,44
 -136 571 -136 571 -115 632 c 0,45,46
 -76 747 -76 747 10 794 c 0,47,48
 53 817 53 817 101 817 c 0,49,50
 193 817 193 817 242 754.5 c 128,-1,51
 291 692 291 692 291 603 c 128,-1,52
 291 514 291 514 261 415 c 128,-1,53
 231 316 231 316 201 225 c 128,-1,54
 171 134 171 134 171 88 c 128,-1,55
 171 42 171 42 184.5 22.5 c 128,-1,56
 198 3 198 3 233 3 c 0,57,58
 312 3 312 3 396 125 c 1,59,60
 388 178 388 178 388 227 c 0,61,62
 388 387 388 387 442 501 c 0,63,64
 481 581 481 581 525 581 c 0,65,66
 564 581 564 581 564 512 c 128,-1,67
 564 443 564 443 532 346 c 128,-1,68
 500 249 500 249 449 161 c 1,69,70
 461 24 461 24 525 24 c 0,71,72
 621 24 621 24 703 240 c 1,73,74
 657 317 657 317 657 458 c 0,75,76
 657 541 657 541 678 610 c 0,0,1
775 585 m 0,77,78
 775 665 775 665 748 665 c 0,79,80
 728 665 728 665 716.5 607.5 c 128,-1,81
 705 550 705 550 705 509 c 0,82,83
 705 377 705 377 725 305 c 1,84,85
 775 468 775 468 775 585 c 0,77,78
520 549 m 1,86,87
 494 549 494 549 470 438.5 c 128,-1,88
 446 328 446 328 446 220 c 0,89,90
 446 215 446 215 446 211 c 1,91,92
 485 286 485 286 511 367 c 0,93,94
 539 455 539 455 539 499.5 c 128,-1,95
 539 544 539 544 520 549 c 1,86,87
EndSplineSet
EndChar

StartChar: X
Encoding: 88 88 59
Width: 873
GlyphClass: 2
Flags: W
LayerCount: 2
Fore
SplineSet
398 650 m 0,0,1
 398 793 398 793 271 793 c 0,2,3
 177 793 177 793 116 701 c 0,4,5
 69 629 69 629 69 552 c 0,6,7
 69 450 69 450 139 426 c 0,8,9
 156 420 156 420 177 420 c 0,10,11
 254 420 254 420 294 505 c 0,12,13
 299 514 299 514 305.5 509.5 c 128,-1,14
 312 505 312 505 310 500 c 0,15,16
 291 453 291 453 257 424.5 c 128,-1,17
 223 396 223 396 177 396 c 0,18,19
 84 396 84 396 55 482 c 1,20,21
 43 514 43 514 43 558 c 128,-1,22
 43 602 43 602 68 661 c 0,23,24
 109 762 109 762 192 800 c 0,25,26
 230 817 230 817 281.5 817 c 128,-1,27
 333 817 333 817 373 793.5 c 128,-1,28
 413 770 413 770 429 730 c 0,29,30
 452 674 452 674 452 619 c 128,-1,31
 452 564 452 564 446 525 c 1,32,33
 527 670 527 670 603.5 750.5 c 128,-1,34
 680 831 680 831 767 831 c 0,35,36
 798 831 798 831 815.5 812 c 128,-1,37
 833 793 833 793 833 757.5 c 128,-1,38
 833 722 833 722 809 682 c 128,-1,39
 785 642 785 642 751.5 609.5 c 128,-1,40
 718 577 718 577 658 537 c 0,41,42
 564 475 564 475 428 401 c 1,43,44
 425 383 425 383 416 333 c 0,45,46
 387 186 387 186 387 118 c 0,47,48
 387 83 387 83 400 43.5 c 128,-1,49
 413 4 413 4 436.5 -8.5 c 128,-1,50
 460 -21 460 -21 495 -21 c 0,51,52
 590 -21 590 -21 656 83 c 0,53,54
 708 166 708 166 708 246.5 c 128,-1,55
 708 327 708 327 665 334 c 1,56,-1
 656 335 l 1,57,58
 598 335 598 335 563 277 c 128,-1,59
 528 219 528 219 528 165.5 c 128,-1,60
 528 112 528 112 550 101 c 1,61,62
 546 86 546 86 532 86 c 0,63,64
 488 86 488 86 488 165 c 0,65,66
 488 222 488 222 521 277 c 1,67,68
 567 358 567 358 648 358 c 0,69,70
 739 358 739 358 739 242 c 0,71,72
 739 179 739 179 702 106 c 0,73,74
 650 3 650 3 565 -32 c 0,75,76
 531 -46 531 -46 482 -46 c 128,-1,77
 433 -46 433 -46 393 -23.5 c 128,-1,78
 353 -1 353 -1 338 37 c 0,79,80
 319 86 319 86 319 139 c 128,-1,81
 319 192 319 192 327 236 c 1,82,83
 250 97 250 97 180.5 20.5 c 128,-1,84
 111 -56 111 -56 36 -56 c 0,85,86
 -7 -56 -7 -56 -32 -33 c 128,-1,87
 -57 -10 -57 -10 -57 29.5 c 128,-1,88
 -57 69 -57 69 -32 110 c 128,-1,89
 -7 151 -7 151 26.5 183 c 128,-1,90
 60 215 60 215 124 256 c 1,91,92
 205 310 205 310 358 392 c 1,93,94
 359 396 359 396 361 405 c 0,95,96
 398 578 398 578 398 650 c 0,0,1
348 346 m 1,97,-1
 351 359 l 1,98,99
 126 237 126 237 50 165 c 0,100,101
 -24 94 -24 94 -24 27 c 0,102,103
 -24 1 -24 1 -8 -14.5 c 128,-1,104
 8 -30 8 -30 39 -30 c 128,-1,105
 70 -30 70 -30 104.5 -7.5 c 128,-1,106
 139 15 139 15 167 46 c 128,-1,107
 195 77 195 77 230 134 c 0,108,109
 279 213 279 213 348 346 c 1,97,-1
753 804 m 0,110,111
 659 804 659 804 555 647 c 0,112,113
 506 572 506 572 433 435 c 1,114,-1
 433 431 l 1,115,116
 592 516 592 516 665.5 572 c 128,-1,117
 739 628 739 628 767 670.5 c 128,-1,118
 795 713 795 713 795 758.5 c 128,-1,119
 795 804 795 804 753 804 c 0,110,111
EndSplineSet
EndChar

StartChar: Y
Encoding: 89 89 60
Width: 643
GlyphClass: 2
Flags: W
LayerCount: 2
Fore
SplineSet
222 24 m 0,0,1
 292 24 292 24 385 149 c 1,2,3
 418 340 418 340 433 388 c 0,4,5
 464 493 464 493 519 493 c 0,6,7
 555 493 555 493 555 450 c 0,8,9
 555 426 555 426 544 390 c 0,10,11
 517 298 517 298 445 188 c 1,12,13
 417 -42 417 -42 369 -160 c 0,14,15
 318 -285 318 -285 245 -344 c 0,16,17
 153 -419 153 -419 23 -419 c 0,18,19
 -126 -419 -126 -419 -186 -316 c 0,20,21
 -215 -266 -215 -266 -215 -220.5 c 128,-1,22
 -215 -175 -215 -175 -204 -139 c 0,23,24
 -178 -49 -178 -49 -105 -12 c 0,25,26
 -70 5 -70 5 -30 5 c 0,27,28
 76 5 76 5 115 -77 c 0,29,30
 132 -113 132 -113 132 -146 c 128,-1,31
 132 -179 132 -179 120 -209 c 0,32,33
 94 -278 94 -278 35 -278 c 0,34,35
 16 -278 16 -278 8 -259 c 1,36,37
 53 -259 53 -259 78 -198 c 0,38,39
 90 -168 90 -168 90 -137.5 c 128,-1,40
 90 -107 90 -107 76 -75 c 0,41,42
 49 -14 49 -14 -33 -14 c 128,-1,43
 -115 -14 -115 -14 -162 -93 c 0,44,45
 -194 -146 -194 -146 -194 -204 c 0,46,47
 -194 -228 -194 -228 -188 -253 c 0,48,49
 -167 -347 -167 -347 -80 -380 c 0,50,51
 -41 -395 -41 -395 9.5 -395 c 128,-1,52
 60 -395 60 -395 104.5 -379.5 c 128,-1,53
 149 -364 149 -364 182.5 -339 c 128,-1,54
 216 -314 216 -314 244 -275 c 128,-1,55
 272 -236 272 -236 291.5 -196 c 128,-1,56
 311 -156 311 -156 327 -103 c 0,57,58
 353 -21 353 -21 376 98 c 1,59,60
 287 -1 287 -1 223 -1 c 0,61,62
 99 -1 99 -1 99 133 c 0,63,64
 99 233 99 233 170.5 385.5 c 128,-1,65
 242 538 242 538 242 646 c 0,66,67
 242 715 242 715 205 754 c 128,-1,68
 168 793 168 793 103 793 c 0,69,70
 3 793 3 793 -60 691 c 0,71,72
 -109 610 -109 610 -109 520 c 0,73,74
 -109 406 -109 406 -42 375 c 0,75,76
 -22 366 -22 366 1 366 c 0,77,78
 78 366 78 366 118 452 c 0,79,80
 123 462 123 462 129.5 456.5 c 128,-1,81
 136 451 136 451 134 447 c 0,82,83
 115 400 115 400 81 371.5 c 128,-1,84
 47 343 47 343 1 343 c 0,85,86
 -89 343 -89 343 -121 434 c 0,87,88
 -134 473 -134 473 -134 522 c 128,-1,89
 -134 571 -134 571 -113 632 c 0,90,91
 -74 747 -74 747 12 794 c 0,92,93
 55 817 55 817 103 817 c 0,94,95
 195 817 195 817 244 754.5 c 128,-1,96
 293 692 293 692 293 603 c 128,-1,97
 293 514 293 514 260.5 420.5 c 128,-1,98
 228 327 228 327 195.5 241 c 128,-1,99
 163 155 163 155 163 99 c 0,100,101
 163 24 163 24 222 24 c 0,0,1
514 461 m 1,102,103
 489 461 489 461 477 412 c 128,-1,104
 465 363 465 363 452 252 c 1,105,106
 524 379 524 379 527 438 c 1,107,108
 527 460 527 460 514 461 c 1,102,103
EndSplineSet
EndChar

StartChar: Z
Encoding: 90 90 61
Width: 825
GlyphClass: 2
Flags: W
LayerCount: 2
Fore
SplineSet
698 831 m 0,0,1
 748 831 748 831 748 786 c 0,2,3
 748 747 748 747 705.5 707.5 c 128,-1,4
 663 668 663 668 603 668 c 0,5,6
 580 668 580 668 569 670 c 1,7,8
 544 624 544 624 493.5 515 c 128,-1,9
 443 406 443 406 417 355 c 1,10,11
 539 407 539 407 586 546 c 0,12,13
 588 552 588 552 597 553.5 c 128,-1,14
 606 555 606 555 614 551 c 128,-1,15
 622 547 622 547 620 540 c 0,16,17
 595 465 595 465 538.5 407 c 128,-1,18
 482 349 482 349 402 324 c 1,19,20
 304 141 304 141 209 62 c 1,21,22
 260 26 260 26 288.5 8.5 c 128,-1,23
 317 -9 317 -9 364 -27 c 128,-1,24
 411 -45 411 -45 453 -45 c 0,25,26
 544 -45 544 -45 607 53 c 0,27,28
 658 131 658 131 657 210 c 1,29,30
 650 279 650 279 605 285 c 1,31,32
 547 285 547 285 509 225.5 c 128,-1,33
 471 166 471 166 471 113.5 c 128,-1,34
 471 61 471 61 490 51 c 1,35,36
 485 36 485 36 472 36 c 0,37,38
 430 36 430 36 430 102.5 c 128,-1,39
 430 169 430 169 466 227 c 0,40,41
 516 308 516 308 597 308 c 0,42,43
 684 308 684 308 684 200 c 0,44,45
 684 135 684 135 642 57 c 0,46,47
 587 -47 587 -47 500 -82 c 0,48,49
 466 -96 466 -96 427 -96 c 128,-1,50
 388 -96 388 -96 350.5 -86 c 128,-1,51
 313 -76 313 -76 277 -54 c 0,52,53
 229 -26 229 -26 163 30 c 1,54,55
 101 -7 101 -7 33 -7 c 0,56,57
 -76 -7 -76 -7 -106 48 c 0,58,59
 -115 64 -115 64 -115 83.5 c 128,-1,60
 -115 103 -115 103 -95 124 c 1,61,62
 -66 158 -66 158 -15 158 c 128,-1,63
 36 158 36 158 82 137.5 c 128,-1,64
 128 117 128 117 186 78 c 1,65,66
 272 149 272 149 360 314 c 1,67,68
 327 309 327 309 280 309 c 128,-1,69
 233 309 233 309 184 326.5 c 128,-1,70
 135 344 135 344 106 373.5 c 128,-1,71
 77 403 77 403 59.5 441 c 128,-1,72
 42 479 42 479 42 521 c 128,-1,73
 42 563 42 563 51 605 c 128,-1,74
 60 647 60 647 83.5 685 c 128,-1,75
 107 723 107 723 137 752 c 0,76,77
 204 817 204 817 300 817 c 0,78,79
 352 817 352 817 397.5 799 c 128,-1,80
 443 781 443 781 488.5 754.5 c 128,-1,81
 534 728 534 728 565 718 c 1,82,83
 635 831 635 831 698 831 c 0,0,1
164 360 m 0,84,85
 219 332 219 332 278.5 332 c 128,-1,86
 338 332 338 332 374 341 c 1,87,88
 400 390 400 390 455.5 507 c 128,-1,89
 511 624 511 624 540 675 c 1,90,91
 498 685 498 685 449.5 712.5 c 128,-1,92
 401 740 401 740 356.5 760.5 c 128,-1,93
 312 781 312 781 269 781 c 0,94,95
 178 781 178 781 116 695 c 0,96,97
 63 622 63 622 63 537 c 0,98,99
 63 412 63 412 164 360 c 0,84,85
-89 80 m 0,100,101
 -89 59 -89 59 -60 38 c 128,-1,102
 -31 17 -31 17 29.5 17 c 128,-1,103
 90 17 90 17 143 48 c 1,104,105
 95 88 95 88 56.5 108.5 c 128,-1,106
 18 129 18 129 -26.5 129 c 128,-1,107
 -71 129 -71 129 -85 98 c 0,108,109
 -89 89 -89 89 -89 80 c 0,100,101
718 782 m 0,110,111
 718 802 718 802 696 802 c 0,112,113
 649 802 649 802 593 711 c 1,114,115
 611 708 611 708 630 708 c 0,116,117
 676 708 676 708 704 749 c 0,118,119
 718 768 718 768 718 782 c 0,110,111
EndSplineSet
EndChar

StartChar: bracketleft
Encoding: 91 91 62
Width: 302
GlyphClass: 2
Flags: W
LayerCount: 2
Fore
SplineSet
31 -86 m 1,0,-1
 73 -86 l 2,1,2
 104 -86 104 -86 124 -92 c 128,-1,3
 144 -98 144 -98 148 -104 c 2,4,-1
 153 -111 l 1,5,-1
 -20 -111 l 1,6,7
 11 47 11 47 122 785 c 1,8,-1
 295 785 l 1,9,10
 292 776 292 776 270 768 c 128,-1,11
 248 760 248 760 217 760 c 2,12,-1
 170 760 l 1,13,14
 162 709 162 709 101 339.5 c 128,-1,15
 40 -30 40 -30 31 -86 c 1,0,-1
EndSplineSet
EndChar

StartChar: backslash
Encoding: 92 92 63
Width: 457
GlyphClass: 2
Flags: W
LayerCount: 2
Fore
SplineSet
180.5 269.5 m 128,-1,1
 107 572 107 572 99.5 604 c 128,-1,2
 92 636 92 636 92 666 c 128,-1,3
 92 696 92 696 111 696 c 0,4,5
 131 696 131 696 137 669 c 128,-1,6
 143 642 143 642 209 320 c 128,-1,7
 275 -2 275 -2 286 -48 c 128,-1,8
 297 -94 297 -94 297 -113 c 128,-1,9
 297 -132 297 -132 283 -132 c 0,10,11
 275 -132 275 -132 271 -114 c 0,12,0
 254 -33 254 -33 180.5 269.5 c 128,-1,1
EndSplineSet
EndChar

StartChar: bracketright
Encoding: 93 93 64
Width: 328
GlyphClass: 2
Flags: W
LayerCount: 2
Fore
SplineSet
244 760 m 1,0,-1
 202 760 l 2,1,2
 171 760 171 760 151 766 c 128,-1,3
 131 772 131 772 126 778 c 1,4,-1
 122 785 l 1,5,-1
 295 785 l 1,6,7
 264 627 264 627 153 -111 c 1,8,-1
 -20 -111 l 1,9,10
 -17 -102 -17 -102 5 -94 c 128,-1,11
 27 -86 27 -86 58 -86 c 2,12,-1
 105 -86 l 1,13,14
 113 -35 113 -35 174 334.5 c 128,-1,15
 235 704 235 704 244 760 c 1,0,-1
EndSplineSet
EndChar

StartChar: asciicircum
Encoding: 94 94 65
Width: 413
GlyphClass: 2
Flags: W
LayerCount: 2
Fore
SplineSet
414 387 m 1,0,-1
 383 387 l 1,1,-1
 247 514 l 1,2,-1
 34 387 l 1,3,-1
 2 387 l 1,4,-1
 216 540 l 1,5,-1
 261 540 l 1,6,-1
 414 387 l 1,0,-1
EndSplineSet
EndChar

StartChar: underscore
Encoding: 95 95 66
Width: 655
GlyphClass: 2
Flags: W
LayerCount: 2
Fore
SplineSet
492 -65 m 2,0,-1
 -12 -67 l 2,1,2
 -23 -67 -23 -67 -23 -59 c 0,3,4
 -23 -36 -23 -36 27 -36 c 2,5,-1
 524 -45 l 2,6,7
 534 -45 534 -45 534 -50 c 0,8,9
 534 -64 534 -64 492 -65 c 2,0,-1
EndSplineSet
EndChar

StartChar: grave
Encoding: 96 96 67
Width: 396
GlyphClass: 2
Flags: W
LayerCount: 2
Fore
SplineSet
179 637 m 0,0,1
 215 604 215 604 247.5 564.5 c 128,-1,2
 280 525 280 525 280 515.5 c 128,-1,3
 280 506 280 506 269.5 506 c 128,-1,4
 259 506 259 506 224 531 c 0,5,6
 138 593 138 593 138 619 c 0,7,8
 138 626 138 626 144 636 c 128,-1,9
 150 646 150 646 159.5 646 c 128,-1,10
 169 646 169 646 179 637 c 0,0,1
EndSplineSet
EndChar

StartChar: a
Encoding: 97 97 68
Width: 462
GlyphClass: 2
Flags: W
LayerCount: 2
Fore
SplineSet
28 -1 m 0,0,1
 -51 -1 -51 -1 -51 118 c 0,2,3
 -51 187 -51 187 -15 269 c 0,4,5
 35 380 35 380 112 414 c 0,6,7
 139 425 139 425 166.5 425 c 128,-1,8
 194 425 194 425 210 409 c 128,-1,9
 226 393 226 393 226 378.5 c 128,-1,10
 226 364 226 364 216.5 364.5 c 128,-1,11
 207 365 207 365 207 374 c 128,-1,12
 207 383 207 383 197.5 390.5 c 128,-1,13
 188 398 188 398 170 398 c 0,14,15
 107 398 107 398 59 292 c 0,16,17
 8 180 8 180 8 86 c 0,18,19
 8 28 8 28 33.5 28 c 128,-1,20
 59 28 59 28 95.5 71.5 c 128,-1,21
 132 115 132 115 163 173 c 0,22,23
 230 295 230 295 242 330 c 128,-1,24
 254 365 254 365 268 365 c 0,25,26
 293 365 293 365 293 323 c 0,27,28
 293 310 293 310 275 221 c 0,29,30
 252 112 252 112 252 68 c 128,-1,31
 252 24 252 24 275 24 c 0,32,33
 301 24 301 24 348 93 c 128,-1,34
 395 162 395 162 429 231 c 2,35,-1
 463 300 l 1,36,-1
 490 300 l 1,37,38
 484 288 484 288 474.5 267.5 c 128,-1,39
 465 247 465 247 437 194.5 c 128,-1,40
 409 142 409 142 383.5 102 c 128,-1,41
 358 62 358 62 326.5 29.5 c 128,-1,42
 295 -3 295 -3 272 -3 c 0,43,44
 198 -3 198 -3 198 105 c 0,45,46
 198 141 198 141 206 189 c 1,47,-1
 199 189 l 1,48,49
 97 -1 97 -1 28 -1 c 0,0,1
EndSplineSet
EndChar

StartChar: b
Encoding: 98 98 69
Width: 371
GlyphClass: 2
Flags: W
LayerCount: 2
Fore
SplineSet
214 443 m 0,0,1
 259 443 259 443 259 349 c 0,2,3
 259 339 259 339 258 328 c 1,4,5
 270 324 270 324 293 324 c 128,-1,6
 316 324 316 324 334 343 c 128,-1,7
 352 362 352 362 352 372 c 128,-1,8
 352 382 352 382 357 383.5 c 128,-1,9
 362 385 362 385 366.5 383 c 128,-1,10
 371 381 371 381 371 377 c 0,11,12
 371 348 371 348 346.5 322 c 128,-1,13
 322 296 322 296 281 296 c 0,14,15
 270 296 270 296 256 298 c 1,16,17
 238 143 238 143 160 48 c 0,18,19
 121 0 121 0 79 0 c 0,20,21
 -20 0 -20 0 -20 137 c 0,22,23
 -20 222 -20 222 16.5 381.5 c 128,-1,24
 53 541 53 541 114 678 c 128,-1,25
 175 815 175 815 230 815 c 0,26,27
 272 815 272 815 272 763 c 0,28,29
 272 745 272 745 267 721 c 0,30,31
 248 626 248 626 187.5 537.5 c 128,-1,32
 127 449 127 449 84 431 c 1,33,34
 33 208 33 208 33 117.5 c 128,-1,35
 33 27 33 27 81 27 c 0,36,37
 133 27 133 27 175.5 116 c 128,-1,38
 218 205 218 205 233 306 c 1,39,40
 201 322 201 322 190.5 349 c 128,-1,41
 180 376 180 376 180 390.5 c 128,-1,42
 180 405 180 405 184 416 c 0,43,44
 192 443 192 443 214 443 c 0,0,1
91 461 m 1,45,46
 146 497 146 497 198 605 c 128,-1,47
 250 713 250 713 250 752 c 128,-1,48
 250 791 250 791 232 792 c 1,49,50
 201 792 201 792 163 697 c 128,-1,51
 125 602 125 602 91 461 c 1,45,46
EndSplineSet
EndChar

StartChar: c
Encoding: 99 99 70
Width: 339
GlyphClass: 2
Flags: W
LayerCount: 2
Fore
SplineSet
24 142 m 0,0,1
 24 25 24 25 105 25 c 0,2,3
 137 25 137 25 172.5 53.5 c 128,-1,4
 208 82 208 82 237 122 c 0,5,6
 301 214 301 214 327 272 c 2,7,-1
 340 300 l 1,8,-1
 367 300 l 1,9,10
 350 260 350 260 317 201.5 c 128,-1,11
 284 143 284 143 254 103 c 128,-1,12
 224 63 224 63 183 30.5 c 128,-1,13
 142 -2 142 -2 105 -2 c 0,14,15
 1 -2 1 -2 -27 93 c 0,16,17
 -36 123 -36 123 -36 168.5 c 128,-1,18
 -36 214 -36 214 -8 280 c 0,19,20
 33 378 33 378 104 412 c 0,21,22
 132 425 132 425 159.5 425 c 128,-1,23
 187 425 187 425 203.5 409.5 c 128,-1,24
 220 394 220 394 221 380.5 c 128,-1,25
 222 367 222 367 222 356 c 128,-1,26
 222 345 222 345 217 325 c 128,-1,27
 212 305 212 305 196.5 289.5 c 128,-1,28
 181 274 181 274 169 274 c 0,29,30
 154 274 154 274 150 285 c 1,31,32
 158 285 158 285 171.5 313.5 c 128,-1,33
 185 342 185 342 185 370 c 128,-1,34
 185 398 185 398 161 398 c 0,35,36
 109 398 109 398 66.5 311 c 128,-1,37
 24 224 24 224 24 142 c 0,0,1
EndSplineSet
EndChar

StartChar: d
Encoding: 100 100 71
Width: 469
GlyphClass: 2
Flags: W
LayerCount: 2
Fore
SplineSet
311.5 386.5 m 128,-1,1
 295 317 295 317 275.5 225.5 c 128,-1,2
 256 134 256 134 256 79 c 128,-1,3
 256 24 256 24 282 24 c 128,-1,4
 308 24 308 24 355.5 93 c 128,-1,5
 403 162 403 162 437 231 c 2,6,-1
 470 300 l 1,7,-1
 497 300 l 1,8,9
 491 288 491 288 481.5 267.5 c 128,-1,10
 472 247 472 247 444 194.5 c 128,-1,11
 416 142 416 142 390.5 102 c 128,-1,12
 365 62 365 62 333 29.5 c 128,-1,13
 301 -3 301 -3 278 -3 c 0,14,15
 206 -3 206 -3 206 103 c 0,16,17
 206 142 206 142 217 205 c 1,18,-1
 209 205 l 1,19,20
 98 -1 98 -1 29 -1 c 0,21,22
 -50 -1 -50 -1 -50 118 c 0,23,24
 -50 187 -50 187 -14 269 c 0,25,26
 36 380 36 380 113 414 c 0,27,28
 140 425 140 425 167.5 425 c 128,-1,29
 195 425 195 425 211 409 c 128,-1,30
 227 393 227 393 227 378.5 c 128,-1,31
 227 364 227 364 217.5 364.5 c 128,-1,32
 208 365 208 365 208 374 c 128,-1,33
 208 383 208 383 198.5 390.5 c 128,-1,34
 189 398 189 398 171 398 c 0,35,36
 108 398 108 398 60 292 c 0,37,38
 9 180 9 180 9 86 c 0,39,40
 9 28 9 28 34 28 c 0,41,42
 68 28 68 28 119 102 c 128,-1,43
 170 176 170 176 208.5 261 c 128,-1,44
 247 346 247 346 263.5 416.5 c 128,-1,45
 280 487 280 487 314 609 c 0,46,47
 336 688 336 688 372 688 c 0,48,49
 390 688 390 688 386 668 c 0,50,51
 386 666 386 666 357 561 c 128,-1,0
 328 456 328 456 311.5 386.5 c 128,-1,1
EndSplineSet
EndChar

StartChar: e
Encoding: 101 101 72
Width: 345
GlyphClass: 2
Flags: W
LayerCount: 2
Fore
SplineSet
25 146 m 0,0,1
 25 25 25 25 111 25 c 0,2,3
 143 25 143 25 178.5 53.5 c 128,-1,4
 214 82 214 82 243 122 c 0,5,6
 307 214 307 214 333 272 c 2,7,-1
 346 300 l 1,8,-1
 373 300 l 1,9,10
 356 260 356 260 323 201.5 c 128,-1,11
 290 143 290 143 260 103 c 128,-1,12
 230 63 230 63 189 30.5 c 128,-1,13
 148 -2 148 -2 111 -2 c 0,14,15
 -37 -2 -37 -2 -37 164 c 0,16,17
 -37 241 -37 241 8 318 c 0,18,19
 70 425 70 425 161 425 c 0,20,21
 225 425 225 425 225 355 c 0,22,23
 225 303 225 303 177 237 c 128,-1,24
 129 171 129 171 54 170 c 0,25,26
 43 170 43 170 39 184 c 1,27,28
 91 184 91 184 138.5 252.5 c 128,-1,29
 186 321 186 321 186 367 c 0,30,31
 186 398 186 398 162 398 c 0,32,33
 109 398 109 398 67 312 c 128,-1,34
 25 226 25 226 25 146 c 0,0,1
EndSplineSet
EndChar

StartChar: f
Encoding: 102 102 73
Width: 282
GlyphClass: 2
Flags: W
LayerCount: 2
Fore
SplineSet
168 270 m 0,0,1
 168 181 168 181 196 181 c 1,2,3
 195 169 195 169 174.5 169 c 128,-1,4
 154 169 154 169 141.5 199.5 c 128,-1,5
 129 230 129 230 129 276 c 1,6,7
 89 259 89 259 46 256 c 1,8,9
 -8 -81 -8 -81 -46 -205 c 1,10,11
 -104 -400 -104 -400 -185 -400 c 0,12,13
 -239 -400 -239 -400 -239 -344 c 0,14,15
 -239 -319 -239 -319 -228 -282 c 0,16,17
 -197 -178 -197 -178 -113 -65 c 0,18,19
 -74 -13 -74 -13 -45 10 c 1,20,21
 -39 48 -39 48 -26 130.5 c 128,-1,22
 -13 213 -13 213 -6 256 c 1,23,-1
 -33 256 l 2,24,25
 -38 256 -38 256 -38 265.5 c 128,-1,26
 -38 275 -38 275 -33 275 c 2,27,-1
 -3 275 l 1,28,29
 46 588 46 588 101 706 c 0,30,31
 122 753 122 753 151 784 c 128,-1,32
 180 815 180 815 214 815 c 0,33,34
 277 815 277 815 277 723 c 0,35,36
 277 648 277 648 231 561 c 0,37,38
 175 456 175 456 97 432 c 1,39,-1
 74 427 l 1,40,41
 65 378 65 378 49 276 c 1,42,43
 91 279 91 279 130 298 c 1,44,45
 135 351 135 351 154.5 388.5 c 128,-1,46
 174 426 174 426 204 426 c 0,47,48
 228 426 228 426 228 398 c 0,49,50
 228 345 228 345 169 300 c 1,51,52
 168 285 168 285 168 270 c 0,0,1
205 575 m 0,53,54
 250 662 250 662 250 727 c 128,-1,55
 250 792 250 792 218 792 c 0,56,57
 173 792 173 792 141 704.5 c 128,-1,58
 109 617 109 617 79 453 c 1,59,60
 151 469 151 469 205 575 c 0,53,54
-50 -19 m 1,61,62
 -107 -78 -107 -78 -159 -188 c 128,-1,63
 -211 -298 -211 -298 -211 -335.5 c 128,-1,64
 -211 -373 -211 -373 -189 -373 c 0,65,66
 -143 -373 -143 -373 -111 -281 c 128,-1,67
 -79 -189 -79 -189 -50 -19 c 1,61,62
203 407 m 1,68,69
 181 407 181 407 172 327 c 1,70,71
 190 344 190 344 199.5 363 c 128,-1,72
 209 382 209 382 209 393.5 c 128,-1,73
 209 405 209 405 203 407 c 1,68,69
EndSplineSet
EndChar

StartChar: g
Encoding: 103 103 74
Width: 388
GlyphClass: 2
Flags: W
LayerCount: 2
Fore
SplineSet
268 365 m 0,0,1
 293 365 293 365 293 323 c 0,2,3
 293 293 293 293 260 149.5 c 128,-1,4
 227 6 227 6 201 -88 c 128,-1,5
 175 -182 175 -182 152 -227.5 c 128,-1,6
 129 -273 129 -273 96.5 -319 c 128,-1,7
 64 -365 64 -365 25 -382 c 128,-1,8
 -14 -399 -14 -399 -65 -399 c 0,9,10
 -160 -399 -160 -399 -160 -302 c 0,11,12
 -160 -245 -160 -245 -117 -179 c 0,13,14
 -55 -82 -55 -82 49 -51 c 0,15,16
 86 -40 86 -40 126 -40 c 0,17,18
 133 -40 133 -40 133 -54 c 128,-1,19
 133 -68 133 -68 126 -68 c 0,20,21
 8 -68 8 -68 -72 -161 c 0,22,23
 -131 -231 -131 -231 -131 -296 c 128,-1,24
 -131 -361 -131 -361 -81 -371 c 1,25,-1
 -65 -372 l 1,26,27
 17 -372 17 -372 65 -304 c 0,28,29
 114 -235 114 -235 136 -152 c 0,30,31
 170 -24 170 -24 214 202 c 1,32,-1
 206 202 l 1,33,34
 98 -1 98 -1 28 -1 c 0,35,36
 -51 -1 -51 -1 -51 118 c 0,37,38
 -51 187 -51 187 -15 269 c 0,39,40
 35 380 35 380 112 414 c 0,41,42
 139 425 139 425 166.5 425 c 128,-1,43
 194 425 194 425 210 409 c 128,-1,44
 226 393 226 393 226 378.5 c 128,-1,45
 226 364 226 364 216.5 364.5 c 128,-1,46
 207 365 207 365 207 374 c 128,-1,47
 207 383 207 383 197.5 390.5 c 128,-1,48
 188 398 188 398 170 398 c 0,49,50
 107 398 107 398 59 292 c 0,51,52
 8 180 8 180 8 86 c 0,53,54
 8 28 8 28 33 28 c 0,55,56
 66 28 66 28 119 106 c 0,57,58
 199 224 199 224 244 337 c 0,59,60
 256 365 256 365 268 365 c 0,0,1
EndSplineSet
EndChar

StartChar: h
Encoding: 104 104 75
Width: 410
GlyphClass: 2
Flags: W
LayerCount: 2
Fore
SplineSet
26.5 102.5 m 128,-1,1
 10 56 10 56 1.5 28 c 128,-1,2
 -7 0 -7 0 -21.5 0 c 128,-1,3
 -36 0 -36 0 -43 17 c 128,-1,4
 -50 34 -50 34 -50 47.5 c 128,-1,5
 -50 61 -50 61 -42 97.5 c 128,-1,6
 -34 134 -34 134 -15.5 226 c 128,-1,7
 3 318 3 318 16 378.5 c 128,-1,8
 29 439 29 439 46 514.5 c 128,-1,9
 63 590 63 590 78.5 637.5 c 128,-1,10
 94 685 94 685 114 729 c 0,11,12
 152 815 152 815 201 815 c 0,13,14
 246 815 246 815 246 755 c 0,15,16
 246 740 246 740 243 720 c 0,17,18
 228 625 228 625 173 538 c 128,-1,19
 118 451 118 451 77 432 c 1,20,21
 57 324 57 324 42 236 c 1,22,-1
 49 236 l 1,23,24
 133 423 133 423 219 423 c 0,25,26
 250 423 250 423 267.5 404 c 128,-1,27
 285 385 285 385 285 352 c 128,-1,28
 285 319 285 319 259 207.5 c 128,-1,29
 233 96 233 96 233 41.5 c 128,-1,30
 233 -13 233 -13 257 -13 c 1,31,32
 257 -20 257 -20 248 -27 c 128,-1,33
 239 -34 239 -34 227 -34 c 0,34,35
 169 -34 169 -34 169 57 c 0,36,37
 169 113 169 113 198.5 223.5 c 128,-1,38
 228 334 228 334 228 366 c 128,-1,39
 228 398 228 398 203 398 c 0,40,41
 174 398 174 398 139 349 c 128,-1,42
 104 300 104 300 73.5 224.5 c 128,-1,0
 43 149 43 149 26.5 102.5 c 128,-1,1
205 792 m 1,43,44
 146 792 146 792 83 462 c 1,45,46
 123 490 123 490 166 574 c 0,47,48
 223 687 223 687 223 753 c 0,49,50
 223 785 223 785 205 792 c 1,43,44
EndSplineSet
EndChar

StartChar: i
Encoding: 105 105 76
Width: 230
GlyphClass: 2
Flags: W
LayerCount: 2
Fore
SplineSet
107 599 m 0,0,1
 130 599 130 599 130 568 c 128,-1,2
 130 537 130 537 100 518 c 0,3,4
 72 500 72 500 59 511 c 0,5,6
 56 514 56 514 54 521 c 1,7,8
 63 521 63 521 67 540.5 c 128,-1,9
 71 560 71 560 79.5 579.5 c 128,-1,10
 88 599 88 599 107 599 c 0,0,1
43 24 m 0,11,12
 69 24 69 24 116 93 c 128,-1,13
 163 162 163 162 197 231 c 2,14,-1
 231 300 l 1,15,-1
 258 300 l 1,16,17
 252 288 252 288 242.5 267.5 c 128,-1,18
 233 247 233 247 205 194.5 c 128,-1,19
 177 142 177 142 151.5 102 c 128,-1,20
 126 62 126 62 94.5 29.5 c 128,-1,21
 63 -3 63 -3 40 -3 c 0,22,23
 -34 -3 -34 -3 -34 93 c 0,24,25
 -34 165 -34 165 7 327 c 0,26,27
 11 344 11 344 13.5 353 c 128,-1,28
 16 362 16 362 19 376.5 c 128,-1,29
 22 391 22 391 25 403 c 0,30,31
 30 424 30 424 43 424 c 0,32,33
 61 424 61 424 69 398 c 0,34,35
 73 386 73 386 73 369 c 128,-1,36
 73 352 73 352 69 333.5 c 128,-1,37
 65 315 65 315 56 279 c 128,-1,38
 47 243 47 243 42 220 c 128,-1,39
 37 197 37 197 31 164 c 0,40,41
 20 109 20 109 20 66.5 c 128,-1,42
 20 24 20 24 43 24 c 0,11,12
EndSplineSet
EndChar

StartChar: j
Encoding: 106 106 77
Width: 174
GlyphClass: 2
Flags: W
LayerCount: 2
Fore
SplineSet
20 403 m 0,0,1
 23 424 23 424 38 424 c 0,2,3
 56 424 56 424 64 398 c 0,4,5
 68 386 68 386 68 369 c 128,-1,6
 68 352 68 352 58 311.5 c 128,-1,7
 48 271 48 271 28.5 184 c 128,-1,8
 9 97 9 97 -5 36 c 128,-1,9
 -19 -25 -19 -25 -38 -98.5 c 128,-1,10
 -57 -172 -57 -172 -75 -221 c 128,-1,11
 -93 -270 -93 -270 -115 -314 c 0,12,13
 -159 -400 -159 -400 -215 -400 c 128,-1,14
 -271 -400 -271 -400 -271 -348 c 0,15,16
 -271 -323 -271 -323 -258 -284 c 0,17,18
 -224 -182 -224 -182 -136 -69 c 1,19,20
 -89 -7 -89 -7 -55 14 c 1,21,22
 -38 91 -38 91 20 403 c 0,0,1
-243 -344 m 0,23,24
 -243 -373 -243 -373 -222 -373 c 0,25,26
 -142 -373 -142 -373 -61 -13 c 1,27,28
 -117 -62 -117 -62 -180 -179 c 128,-1,29
 -243 -296 -243 -296 -243 -344 c 0,23,24
87 599 m 0,30,31
 110 599 110 599 110 568 c 128,-1,32
 110 537 110 537 80 518 c 0,33,34
 52 500 52 500 39 511 c 0,35,36
 36 514 36 514 34 521 c 1,37,38
 43 521 43 521 47 540.5 c 128,-1,39
 51 560 51 560 59.5 579.5 c 128,-1,40
 68 599 68 599 87 599 c 0,30,31
EndSplineSet
EndChar

StartChar: k
Encoding: 107 107 78
Width: 381
GlyphClass: 2
Flags: W
LayerCount: 2
Fore
SplineSet
196 260 m 0,0,1
 235 317 235 317 235 358 c 128,-1,2
 235 399 235 399 208 399 c 0,3,4
 176 399 176 399 138 345.5 c 128,-1,5
 100 292 100 292 70 218 c 0,6,7
 12 75 12 75 -1 20 c 1,8,9
 -7 0 -7 0 -21.5 0 c 128,-1,10
 -36 0 -36 0 -43 17 c 128,-1,11
 -50 34 -50 34 -50 47.5 c 128,-1,12
 -50 61 -50 61 -42 97.5 c 128,-1,13
 -34 134 -34 134 -15.5 226 c 128,-1,14
 3 318 3 318 16 378.5 c 128,-1,15
 29 439 29 439 46 514.5 c 128,-1,16
 63 590 63 590 78.5 637.5 c 128,-1,17
 94 685 94 685 114 729 c 0,18,19
 152 815 152 815 201 815 c 0,20,21
 246 815 246 815 246 755 c 0,22,23
 246 740 246 740 243 720 c 0,24,25
 228 625 228 625 173 538 c 128,-1,26
 118 451 118 451 77 432 c 1,27,28
 70 395 70 395 58 326 c 128,-1,29
 46 257 46 257 41 230 c 1,30,-1
 46 230 l 1,31,32
 131 423 131 423 219 423 c 0,33,34
 285 423 285 423 285 350 c 0,35,36
 285 302 285 302 244.5 246 c 128,-1,37
 204 190 204 190 136 174 c 1,38,39
 170 161 170 161 193.5 128.5 c 128,-1,40
 217 96 217 96 226 66 c 0,41,42
 249 -13 249 -13 272 -13 c 1,43,44
 272 -20 272 -20 263 -27 c 128,-1,45
 254 -34 254 -34 242 -34 c 0,46,47
 208 -34 208 -34 188.5 -2 c 128,-1,48
 169 30 169 30 163 68 c 128,-1,49
 157 106 157 106 141 138 c 128,-1,50
 125 170 125 170 97 170 c 2,51,-1
 95 170 l 2,52,53
 86 170 86 170 82 184 c 1,54,55
 144 184 144 184 196 260 c 0,0,1
205 792 m 1,56,57
 146 792 146 792 83 462 c 1,58,59
 123 490 123 490 166 574 c 0,60,61
 223 687 223 687 223 753 c 0,62,63
 223 785 223 785 205 792 c 1,56,57
EndSplineSet
EndChar

StartChar: l
Encoding: 108 108 79
Width: 237
GlyphClass: 2
Flags: W
LayerCount: 2
Fore
SplineSet
72 310 m 0,0,1
 67 304 67 304 67 314 c 0,2,3
 66 333 66 333 76 347 c 0,4,5
 158 470 158 470 206.5 595.5 c 128,-1,6
 255 721 255 721 255 755 c 128,-1,7
 255 789 255 789 238 791 c 1,8,9
 191 791 191 791 140.5 640.5 c 128,-1,10
 90 490 90 490 61.5 328.5 c 128,-1,11
 33 167 33 167 33 100 c 0,12,13
 33 -13 33 -13 89 -13 c 1,14,15
 89 -20 89 -20 80 -27 c 128,-1,16
 71 -34 71 -34 59 -34 c 0,17,18
 -23 -34 -23 -34 -23 113 c 0,19,20
 -23 167 -23 167 -3 278.5 c 128,-1,21
 17 390 17 390 49 512 c 128,-1,22
 81 634 81 634 132 724.5 c 128,-1,23
 183 815 183 815 236 815 c 0,24,25
 278 815 278 815 278 762 c 0,26,27
 278 722 278 722 253 650 c 0,28,29
 205 510 205 510 115 370 c 0,30,31
 91 333 91 333 72 310 c 0,0,1
EndSplineSet
EndChar

StartChar: m
Encoding: 109 109 80
Width: 617
GlyphClass: 2
Flags: W
LayerCount: 2
Fore
SplineSet
-15 0 m 0,0,1
 -43 0 -43 0 -43 43 c 0,2,3
 -43 66 -43 66 13 378 c 0,4,5
 16 399 16 399 31 399 c 0,6,7
 49 399 49 399 58 373 c 0,8,9
 63 359 63 359 63 342.5 c 128,-1,10
 63 326 63 326 59 307 c 2,11,-1
 44 231 l 1,12,-1
 50 231 l 1,13,14
 138 429 138 429 220 429 c 0,15,16
 248 429 248 429 264.5 409 c 128,-1,17
 281 389 281 389 281 349 c 128,-1,18
 281 309 281 309 265 231 c 1,19,-1
 269 231 l 1,20,21
 354 416 354 416 436 416 c 0,22,23
 463 416 463 416 480 396 c 128,-1,24
 497 376 497 376 497 343 c 128,-1,25
 497 310 497 310 471.5 203 c 128,-1,26
 446 96 446 96 446 41.5 c 128,-1,27
 446 -13 446 -13 470 -13 c 1,28,29
 470 -20 470 -20 461 -27 c 128,-1,30
 452 -34 452 -34 440 -34 c 0,31,32
 382 -34 382 -34 382 57 c 0,33,34
 382 114 382 114 411 221.5 c 128,-1,35
 440 329 440 329 440 359.5 c 128,-1,36
 440 390 440 390 420 390 c 0,37,38
 383 390 383 390 333.5 300.5 c 128,-1,39
 284 211 284 211 254.5 129 c 128,-1,40
 225 47 225 47 220 23.5 c 128,-1,41
 215 0 215 0 202 0 c 0,42,43
 174 0 174 0 174 43 c 0,44,45
 174 59 174 59 191 156 c 0,46,47
 224 334 224 334 224 368.5 c 128,-1,48
 224 403 224 403 204 403 c 0,49,50
 177 403 177 403 141 347.5 c 128,-1,51
 105 292 105 292 76 219 c 0,52,53
 13 65 13 65 2 20 c 0,54,55
 -2 0 -2 0 -15 0 c 0,0,1
EndSplineSet
EndChar

StartChar: n
Encoding: 110 110 81
Width: 407
GlyphClass: 2
Flags: W
LayerCount: 2
Fore
SplineSet
-15 0 m 0,0,1
 -43 0 -43 0 -43 43 c 0,2,3
 -43 66 -43 66 13 378 c 0,4,5
 16 399 16 399 31 399 c 0,6,7
 49 399 49 399 58 373 c 0,8,9
 63 359 63 359 63 342.5 c 128,-1,10
 63 326 63 326 59 307 c 2,11,-1
 43 227 l 1,12,-1
 49 227 l 1,13,14
 139 429 139 429 221 429 c 0,15,16
 253 429 253 429 270 409.5 c 128,-1,17
 287 390 287 390 287 356 c 128,-1,18
 287 322 287 322 260 209 c 128,-1,19
 233 96 233 96 233 41.5 c 128,-1,20
 233 -13 233 -13 257 -13 c 1,21,22
 257 -20 257 -20 248 -27 c 128,-1,23
 239 -34 239 -34 227 -34 c 0,24,25
 169 -34 169 -34 169 57 c 0,26,27
 169 113 169 113 199.5 226.5 c 128,-1,28
 230 340 230 340 230 371.5 c 128,-1,29
 230 403 230 403 205 403 c 0,30,31
 169 403 169 403 118.5 309 c 128,-1,32
 68 215 68 215 37.5 129.5 c 128,-1,33
 7 44 7 44 2.5 22 c 128,-1,34
 -2 0 -2 0 -15 0 c 0,0,1
EndSplineSet
EndChar

StartChar: o
Encoding: 111 111 82
Width: 393
GlyphClass: 2
Flags: W
LayerCount: 2
Fore
SplineSet
23 132 m 0,0,1
 23 27 23 27 79 27 c 0,2,3
 117 27 117 27 150 74 c 0,4,5
 213 162 213 162 227 306 c 1,6,7
 192 321 192 321 178 355 c 0,8,9
 169 376 169 376 169 390.5 c 128,-1,10
 169 405 169 405 173 416 c 0,11,12
 182 443 182 443 206 443 c 128,-1,13
 230 443 230 443 242.5 412.5 c 128,-1,14
 255 382 255 382 255 357 c 128,-1,15
 255 332 255 332 255 328 c 1,16,17
 267 324 267 324 290.5 324 c 128,-1,18
 314 324 314 324 332 343 c 128,-1,19
 350 362 350 362 350 372 c 128,-1,20
 350 382 350 382 355 383.5 c 128,-1,21
 360 385 360 385 364.5 383 c 128,-1,22
 369 381 369 381 369 377 c 0,23,24
 369 348 369 348 344.5 322 c 128,-1,25
 320 296 320 296 279 296 c 0,26,27
 269 296 269 296 253 298 c 1,28,29
 239 142 239 142 162 48 c 0,30,31
 122 0 122 0 76 0 c 0,32,33
 -11 0 -11 0 -31 93 c 0,34,35
 -36 120 -36 120 -36 148 c 0,36,37
 -36 211 -36 211 -2.5 294 c 128,-1,38
 31 377 31 377 87 400 c 1,39,40
 116 410 116 410 127 403 c 128,-1,41
 138 396 138 396 141 387 c 1,42,43
 95 387 95 387 59 301 c 128,-1,44
 23 215 23 215 23 132 c 0,0,1
EndSplineSet
EndChar

StartChar: p
Encoding: 112 112 83
Width: 405
GlyphClass: 2
Flags: W
LayerCount: 2
Fore
SplineSet
88 60 m 0,0,1
 93 27 93 27 122 27 c 0,2,3
 160 27 160 27 205 130 c 1,4,5
 251 239 251 239 251 329 c 0,6,7
 251 391 251 391 219 392 c 0,8,9
 188 392 188 392 148.5 342 c 128,-1,10
 109 292 109 292 77 224 c 0,11,12
 8 75 8 75 -9 1 c 0,13,14
 -62 -239 -62 -239 -82 -297 c 0,15,16
 -117 -399 -117 -399 -162 -399 c 0,17,18
 -197 -399 -197 -399 -197 -351 c 0,19,20
 -197 -323 -197 -323 -185 -277 c 0,21,22
 -154 -166 -154 -166 -88 -64 c 1,23,-1
 -61 -27 l 1,24,25
 -52 18 -52 18 -37 103 c 0,26,27
 -7 274 -7 274 6.5 329.5 c 128,-1,28
 20 385 20 385 38.5 405.5 c 128,-1,29
 57 426 57 426 70 426 c 0,30,31
 95 426 95 426 88 406 c 0,32,33
 63 324 63 324 36 212 c 1,34,-1
 43 212 l 1,35,36
 141 425 141 425 220 425 c 0,37,38
 284 425 284 425 300 343 c 0,39,40
 305 317 305 317 305 290 c 0,41,42
 305 224 305 224 275 147 c 0,43,44
 233 37 233 37 163 8 c 0,45,46
 142 -1 142 -1 121 -1 c 0,47,48
 72 -1 72 -1 64 53 c 0,49,50
 63 62 63 62 68 67 c 128,-1,51
 73 72 73 72 80 70 c 128,-1,52
 87 68 87 68 88 60 c 0,0,1
-165 -372 m 0,53,54
 -126 -372 -126 -372 -69 -70 c 1,55,56
 -128 -162 -128 -162 -164 -274 c 0,57,58
 -180 -324 -180 -324 -180 -348 c 128,-1,59
 -180 -372 -180 -372 -165 -372 c 0,53,54
EndSplineSet
EndChar

StartChar: q
Encoding: 113 113 84
Width: 388
GlyphClass: 2
Flags: W
LayerCount: 2
Fore
SplineSet
172 431 m 1,0,1
 181 458 181 458 204 458 c 0,2,3
 262 458 262 458 278 383 c 0,4,5
 284 356 284 356 284 326 c 0,6,7
 284 258 284 258 253 177 c 0,8,9
 199 39 199 39 95 -20 c 0,10,11
 51 -46 51 -46 1 -52 c 1,12,13
 4 -53 4 -53 24.5 -65 c 128,-1,14
 45 -77 45 -77 55 -81 c 128,-1,15
 65 -85 65 -85 86 -92 c 1,16,17
 122 -106 122 -106 178.5 -106 c 128,-1,18
 235 -106 235 -106 254 -64 c 0,19,20
 265 -41 265 -41 255 -34 c 0,21,22
 253 -33 253 -33 251 -33 c 1,23,24
 253 -20 253 -20 266 -20 c 0,25,26
 283 -20 283 -20 283 -44 c 0,27,28
 283 -96 283 -96 236 -132 c 0,29,30
 204 -157 204 -157 156 -157 c 128,-1,31
 108 -157 108 -157 64 -132 c 128,-1,32
 20 -107 20 -107 -16 -82 c 128,-1,33
 -52 -57 -52 -57 -83 -57 c 1,34,35
 -79 -35 -79 -35 -60 -35 c 0,36,37
 74 -35 74 -35 159 98 c 0,38,39
 229 206 229 206 229 328 c 0,40,41
 229 407 229 407 191 426 c 0,42,43
 182 431 182 431 172 431 c 1,0,1
166 406 m 1,44,45
 110 406 110 406 67.5 317 c 128,-1,46
 25 228 25 228 25 140 c 128,-1,47
 25 52 25 52 77 52 c 1,48,49
 75 36 75 36 54 36 c 0,50,51
 -32 36 -32 36 -32 160 c 0,52,53
 -32 223 -32 223 -1 295 c 0,54,55
 40 391 40 391 103 414 c 0,56,57
 119 419 119 419 131 419 c 0,58,59
 153 419 153 419 166 406 c 1,44,45
EndSplineSet
EndChar

StartChar: r
Encoding: 114 114 85
Width: 322
GlyphClass: 2
Flags: W
LayerCount: 2
Fore
SplineSet
-14 0 m 0,0,1
 -42 0 -42 0 -42 43 c 0,2,3
 -42 66 -42 66 14 378 c 0,4,5
 18 399 18 399 32 399 c 0,6,7
 50 399 50 399 59 373 c 0,8,9
 64 359 64 359 64 342.5 c 128,-1,10
 64 326 64 326 60 307 c 2,11,-1
 44 225 l 1,12,-1
 49 225 l 1,13,14
 135 425 135 425 207 425 c 0,15,16
 247 425 247 425 260 386 c 0,17,18
 265 371 265 371 265 351.5 c 128,-1,19
 265 332 265 332 254 309 c 0,20,21
 235 270 235 270 197 270 c 0,22,23
 181 270 181 270 180 282 c 1,24,-1
 179 285 l 1,25,26
 187 285 187 285 200 314 c 0,27,28
 234 391 234 391 198 398 c 1,29,30
 163 398 163 398 115 307 c 128,-1,31
 67 216 67 216 38 133 c 128,-1,32
 9 50 9 50 4 25 c 128,-1,33
 -1 0 -1 0 -14 0 c 0,0,1
EndSplineSet
EndChar

StartChar: s
Encoding: 115 115 86
Width: 317
GlyphClass: 2
Flags: W
LayerCount: 2
Fore
SplineSet
3 56 m 0,0,1
 3 6 3 6 36 6 c 0,2,3
 80 6 80 6 105 65 c 128,-1,4
 130 124 130 124 130 189.5 c 128,-1,5
 130 255 130 255 123.5 295 c 128,-1,6
 117 335 117 335 105.5 376.5 c 128,-1,7
 94 418 94 418 92 428 c 1,8,9
 62 371 62 371 27 300 c 1,10,-1
 0 300 l 1,11,12
 57 413 57 413 88 470 c 1,13,14
 92 534 92 534 123 534 c 2,15,-1
 125 534 l 1,16,17
 134 533 134 533 139 526 c 128,-1,18
 144 519 144 519 144 511.5 c 128,-1,19
 144 504 144 504 130.5 480 c 128,-1,20
 117 456 117 456 117 441.5 c 128,-1,21
 117 427 117 427 121 414.5 c 128,-1,22
 125 402 125 402 146 354 c 0,23,24
 192 249 192 249 192 166.5 c 128,-1,25
 192 84 192 84 147.5 30 c 128,-1,26
 103 -24 103 -24 41.5 -24 c 128,-1,27
 -20 -24 -20 -24 -20 50.5 c 128,-1,28
 -20 125 -20 125 33 210 c 0,29,30
 64 259 64 259 100 284 c 0,31,32
 110 291 110 291 113.5 281 c 128,-1,33
 117 271 117 271 109 265 c 0,34,35
 51 223 51 223 19 132 c 0,36,37
 3 86 3 86 3 56 c 0,0,1
EndSplineSet
EndChar

StartChar: t
Encoding: 116 116 87
Width: 247
GlyphClass: 2
Flags: W
LayerCount: 2
Fore
SplineSet
-28 437 m 0,0,1
 -28 448 -28 448 -14 448 c 2,2,-1
 38 448 l 1,3,4
 43 468 43 468 51 498 c 2,5,-1
 65 550 l 2,6,7
 71 573 71 573 75.5 592 c 128,-1,8
 80 611 80 611 93 611 c 0,9,10
 110 611 110 611 117 585 c 0,11,12
 120 574 120 574 120 558 c 128,-1,13
 120 542 120 542 114 517 c 2,14,-1
 95 448 l 1,15,-1
 157 448 l 2,16,17
 166 448 166 448 169.5 442 c 128,-1,18
 173 436 173 436 169.5 430.5 c 128,-1,19
 166 425 166 425 157 425 c 2,20,-1
 89 425 l 1,21,22
 27 192 27 192 27 95 c 0,23,24
 27 24 27 24 59 24 c 0,25,26
 85 24 85 24 132 93 c 128,-1,27
 179 162 179 162 213 231 c 2,28,-1
 247 300 l 1,29,-1
 274 300 l 1,30,31
 268 288 268 288 258.5 267.5 c 128,-1,32
 249 247 249 247 221 194.5 c 128,-1,33
 193 142 193 142 167.5 102 c 128,-1,34
 142 62 142 62 110.5 29.5 c 128,-1,35
 79 -3 79 -3 52 -3 c 128,-1,36
 25 -3 25 -3 6 14 c 0,37,38
 -25 41 -25 41 -25 125.5 c 128,-1,39
 -25 210 -25 210 31 425 c 1,40,-1
 -14 425 l 2,41,42
 -22 425 -22 425 -25 429.5 c 128,-1,43
 -28 434 -28 434 -28 437 c 0,0,1
EndSplineSet
EndChar

StartChar: u
Encoding: 117 117 88
Width: 467
GlyphClass: 2
Flags: W
LayerCount: 2
Fore
SplineSet
279 24 m 0,0,1
 305 24 305 24 352 93 c 128,-1,2
 399 162 399 162 433 231 c 2,3,-1
 467 300 l 1,4,-1
 494 300 l 1,5,6
 488 288 488 288 478.5 267.5 c 128,-1,7
 469 247 469 247 441 194.5 c 128,-1,8
 413 142 413 142 387.5 102 c 128,-1,9
 362 62 362 62 330.5 29.5 c 128,-1,10
 299 -3 299 -3 271 -3 c 128,-1,11
 243 -3 243 -3 225 14.5 c 128,-1,12
 207 32 207 32 205 56.5 c 128,-1,13
 203 81 203 81 203 113.5 c 128,-1,14
 203 146 203 146 222 236 c 1,15,-1
 215 236 l 1,16,17
 100 0 100 0 24 0 c 0,18,19
 -43 0 -43 0 -43 87 c 0,20,21
 -43 102 -43 102 -39 141 c 128,-1,22
 -35 180 -35 180 -6 280.5 c 128,-1,23
 23 381 23 381 29 402.5 c 128,-1,24
 35 424 35 424 48 424 c 0,25,26
 66 424 66 424 74 398 c 0,27,28
 78 387 78 387 78 370.5 c 128,-1,29
 78 354 78 354 73 334.5 c 128,-1,30
 68 315 68 315 52 260 c 0,31,32
 9 112 9 112 9 70 c 128,-1,33
 9 28 9 28 29 28 c 0,34,35
 61 28 61 28 120 120 c 0,36,37
 173 201 173 201 234 345 c 0,38,39
 243 365 243 365 251 383.5 c 128,-1,40
 259 402 259 402 259 403 c 0,41,42
 268 424 268 424 279 424 c 0,43,44
 297 424 297 424 305 398 c 0,45,46
 309 386 309 386 309 369 c 128,-1,47
 309 352 309 352 305 333.5 c 128,-1,48
 301 315 301 315 292 279 c 128,-1,49
 283 243 283 243 278 220 c 128,-1,50
 273 197 273 197 266 164 c 0,51,52
 256 109 256 109 256 66.5 c 128,-1,53
 256 24 256 24 279 24 c 0,0,1
EndSplineSet
EndChar

StartChar: v
Encoding: 118 118 89
Width: 362
GlyphClass: 2
Flags: W
LayerCount: 2
Fore
SplineSet
205 443 m 0,0,1
 248 443 248 443 248 360 c 0,2,3
 248 345 248 345 246 329 c 1,4,5
 263 324 263 324 285 324 c 128,-1,6
 307 324 307 324 325 343 c 128,-1,7
 343 362 343 362 343 372 c 128,-1,8
 343 382 343 382 348 383.5 c 128,-1,9
 353 385 353 385 357.5 383 c 128,-1,10
 362 381 362 381 362 377 c 0,11,12
 362 348 362 348 337.5 322 c 128,-1,13
 313 296 313 296 272 296 c 0,14,15
 256 296 256 296 243 299 c 1,16,17
 217 139 217 139 139 48 c 0,18,19
 98 0 98 0 59 0 c 0,20,21
 -13 0 -13 0 -29 48 c 0,22,23
 -38 74 -38 74 -38 103 c 128,-1,24
 -38 132 -38 132 -30 172 c 0,25,26
 -17 237 -17 237 24 381 c 0,27,28
 30 402 30 402 43 402 c 0,29,30
 61 402 61 402 69 376 c 0,31,32
 73 365 73 365 73 348.5 c 128,-1,33
 73 332 73 332 67 309 c 0,34,35
 29 166 29 166 24 136.5 c 128,-1,36
 19 107 19 107 19 86 c 0,37,38
 19 27 19 27 56 27 c 0,39,40
 110 27 110 27 156.5 117 c 128,-1,41
 203 207 203 207 220 308 c 1,42,43
 190 324 190 324 180.5 350.5 c 128,-1,44
 171 377 171 377 171 391.5 c 128,-1,45
 171 406 171 406 175 417 c 0,46,47
 183 443 183 443 205 443 c 0,0,1
EndSplineSet
EndChar

StartChar: w
Encoding: 119 119 90
Width: 574
GlyphClass: 2
Flags: W
LayerCount: 2
Fore
SplineSet
277 27 m 0,0,1
 314 27 314 27 348 74 c 0,2,3
 409 160 409 160 430 306 c 1,4,5
 398 322 398 322 387.5 349 c 128,-1,6
 377 376 377 376 377 391 c 0,7,8
 377 443 377 443 411 443 c 0,9,10
 453 443 453 443 453 350 c 0,11,12
 453 340 453 340 453 329 c 1,13,14
 468 324 468 324 490.5 324 c 128,-1,15
 513 324 513 324 531 343 c 128,-1,16
 549 362 549 362 549 372 c 128,-1,17
 549 382 549 382 553.5 383.5 c 128,-1,18
 558 385 558 385 563 383 c 128,-1,19
 568 381 568 381 568 377 c 0,20,21
 568 348 568 348 543.5 322 c 128,-1,22
 519 296 519 296 478 296 c 0,23,24
 463 296 463 296 451 299 c 1,25,26
 433 141 433 141 358 48 c 0,27,28
 319 0 319 0 275 0 c 0,29,30
 205 0 205 0 181 74 c 1,31,32
 122 0 122 0 68 0 c 0,33,34
 -8 0 -8 0 -26 52 c 0,35,36
 -36 80 -36 80 -36 112 c 128,-1,37
 -36 144 -36 144 -29 183 c 0,38,39
 -14 257 -14 257 29 404 c 0,40,41
 35 425 35 425 48 425 c 0,42,43
 66 425 66 425 74 400 c 0,44,45
 78 388 78 388 78 371.5 c 128,-1,46
 78 355 78 355 73 337 c 128,-1,47
 68 319 68 319 61 293 c 128,-1,48
 54 267 54 267 49 249 c 128,-1,49
 44 231 44 231 37.5 205 c 128,-1,50
 31 179 31 179 27.5 160 c 128,-1,51
 24 141 24 141 21.5 119 c 128,-1,52
 19 97 19 97 21 81.5 c 128,-1,53
 23 66 23 66 28 53 c 0,54,55
 38 27 38 27 70 27 c 0,56,57
 118 27 118 27 173 106 c 1,58,59
 169 130 169 130 169 176 c 128,-1,60
 169 222 169 222 194 298 c 0,61,62
 229 402 229 402 265 402 c 0,63,64
 294 402 294 402 294 357 c 0,65,66
 294 339 294 339 289 315 c 0,67,68
 274 230 274 230 223 139 c 1,69,70
 232 27 232 27 277 27 c 0,0,1
266 368 m 1,71,72
 249 368 249 368 236 312.5 c 128,-1,73
 223 257 223 257 222 190 c 1,74,75
 274 296 274 296 274 350 c 0,76,77
 274 366 274 366 266 368 c 1,71,72
EndSplineSet
EndChar

StartChar: x
Encoding: 120 120 91
Width: 392
GlyphClass: 2
Flags: W
LayerCount: 2
Fore
SplineSet
279 -13 m 1,0,1
 276 -34 276 -34 249.5 -34 c 128,-1,2
 223 -34 223 -34 201.5 -16.5 c 128,-1,3
 180 1 180 1 162 36 c 0,4,5
 133 92 133 92 106 185 c 1,6,7
 47 112 47 112 9 61 c 128,-1,8
 -29 10 -29 10 -33 5 c 128,-1,9
 -37 0 -37 0 -41 8.5 c 128,-1,10
 -45 17 -45 17 -45 24.5 c 128,-1,11
 -45 32 -45 32 -40 38.5 c 128,-1,12
 -35 45 -35 45 -16 72 c 0,13,14
 32 138 32 138 95 221 c 1,15,16
 55 353 55 353 39.5 370 c 128,-1,17
 24 387 24 387 11 387 c 1,18,19
 19 411 19 411 49 411 c 0,20,21
 92 411 92 411 139 275 c 1,22,23
 261 425 261 425 301 425 c 0,24,25
 311 425 311 425 318 418.5 c 128,-1,26
 325 412 325 412 328 399 c 1,27,28
 286 399 286 399 150 239 c 1,29,30
 154 226 154 226 162.5 200 c 128,-1,31
 171 174 171 174 175.5 159.5 c 128,-1,32
 180 145 180 145 188 122 c 128,-1,33
 196 99 196 99 201.5 85.5 c 128,-1,34
 207 72 207 72 215 54 c 128,-1,35
 223 36 223 36 230 26 c 128,-1,36
 237 16 237 16 245 6 c 0,37,38
 260 -13 260 -13 279 -13 c 1,0,1
EndSplineSet
EndChar

StartChar: y
Encoding: 121 121 92
Width: 404
GlyphClass: 2
Flags: W
LayerCount: 2
Fore
SplineSet
-56 -399 m 0,0,1
 -151 -399 -151 -399 -151 -302 c 0,2,3
 -151 -245 -151 -245 -108 -179 c 0,4,5
 -46 -82 -46 -82 58 -51 c 0,6,7
 95 -40 95 -40 135 -40 c 0,8,9
 142 -40 142 -40 142 -54 c 128,-1,10
 142 -68 142 -68 135 -68 c 0,11,12
 17 -68 17 -68 -63 -161 c 0,13,14
 -122 -231 -122 -231 -122 -296 c 128,-1,15
 -122 -361 -122 -361 -72 -371 c 1,16,-1
 -56 -372 l 1,17,18
 27 -372 27 -372 77 -302 c 0,19,20
 145 -205 145 -205 193 49 c 0,21,22
 199 84 199 84 211.5 149.5 c 128,-1,23
 224 215 224 215 231 253 c 1,24,-1
 225 253 l 1,25,26
 104 0 104 0 26 0 c 0,27,28
 -41 0 -41 0 -41 87 c 0,29,30
 -41 102 -41 102 -37 141 c 128,-1,31
 -33 180 -33 180 -4 280.5 c 128,-1,32
 25 381 25 381 31 402.5 c 128,-1,33
 37 424 37 424 50 424 c 0,34,35
 68 424 68 424 76 398 c 0,36,37
 80 387 80 387 80 370.5 c 128,-1,38
 80 354 80 354 75 334.5 c 128,-1,39
 70 315 70 315 54 260 c 0,40,41
 11 112 11 112 11 70 c 128,-1,42
 11 28 11 28 31 28 c 0,43,44
 55 28 55 28 90.5 73 c 128,-1,45
 126 118 126 118 160 183 c 0,46,47
 222 301 222 301 261 403 c 0,48,49
 269 424 269 424 281 424 c 0,50,51
 298 424 298 424 306 398 c 0,52,53
 310 384 310 384 310 367 c 128,-1,54
 310 350 310 350 293.5 269 c 128,-1,55
 277 188 277 188 260.5 114 c 128,-1,56
 244 40 244 40 217.5 -60 c 128,-1,57
 191 -160 191 -160 167.5 -209 c 128,-1,58
 144 -258 144 -258 110.5 -309 c 128,-1,59
 77 -360 77 -360 36 -379.5 c 128,-1,60
 -5 -399 -5 -399 -56 -399 c 0,0,1
EndSplineSet
EndChar

StartChar: z
Encoding: 122 122 93
Width: 409
GlyphClass: 2
Flags: W
LayerCount: 2
Fore
SplineSet
-8.5 24.5 m 128,-1,1
 -27 0 -27 0 -42 0 c 128,-1,2
 -57 0 -57 0 -57 7 c 0,3,4
 -57 10 -57 10 -55 12 c 0,5,6
 80 182 80 182 219 329 c 1,7,8
 189 321 189 321 159 321 c 0,9,10
 72 321 72 321 50 372 c 0,11,12
 45 385 45 385 45 400.5 c 128,-1,13
 45 416 45 416 59.5 432.5 c 128,-1,14
 74 449 74 449 92 449 c 0,15,16
 124 449 124 449 129 430 c 1,17,-1
 130 423 l 1,18,19
 110 423 110 423 110 400 c 0,20,21
 110 359 110 359 184 359 c 0,22,23
 227 359 227 359 261 372 c 1,24,25
 316 425 316 425 332 425 c 0,26,27
 340 425 340 425 340 419 c 128,-1,28
 340 413 340 413 325 392 c 128,-1,29
 310 371 310 371 268 348 c 1,30,31
 194 266 194 266 34 76 c 1,32,33
 38 77 38 77 50.5 77 c 128,-1,34
 63 77 63 77 103.5 58 c 128,-1,35
 144 39 144 39 176 39 c 0,36,37
 234 39 234 39 254 86 c 0,38,39
 260 101 260 101 260 114.5 c 128,-1,40
 260 128 260 128 253 137 c 128,-1,41
 246 146 246 146 236 146 c 1,42,43
 238 159 238 159 251 159 c 0,44,45
 288 159 288 159 288 101 c 0,46,47
 288 59 288 59 256 18 c 128,-1,48
 224 -23 224 -23 166 -23 c 0,49,50
 114 -23 114 -23 82.5 13 c 128,-1,51
 51 49 51 49 30.5 49 c 128,-1,0
 10 49 10 49 -8.5 24.5 c 128,-1,1
EndSplineSet
EndChar

StartChar: braceleft
Encoding: 123 123 94
Width: 403
GlyphClass: 2
Flags: W
LayerCount: 2
Fore
SplineSet
60 358 m 0,0,1
 52 358 52 358 52 371.5 c 128,-1,2
 52 385 52 385 59 385 c 0,3,4
 97 385 97 385 118.5 429.5 c 128,-1,5
 140 474 140 474 151.5 537 c 128,-1,6
 163 600 163 600 178.5 663.5 c 128,-1,7
 194 727 194 727 232.5 771.5 c 128,-1,8
 271 816 271 816 334 816 c 0,9,10
 348 816 348 816 354 799 c 1,11,12
 302 799 302 799 270.5 771.5 c 128,-1,13
 239 744 239 744 229 702.5 c 128,-1,14
 219 661 219 661 211 609.5 c 128,-1,15
 203 558 203 558 198 511 c 128,-1,16
 193 464 193 464 173 424.5 c 128,-1,17
 153 385 153 385 118 369 c 1,18,19
 140 348 140 348 140 302 c 128,-1,20
 140 256 140 256 131 211 c 0,21,22
 103 74 103 74 103 22 c 128,-1,23
 103 -30 103 -30 121 -56.5 c 128,-1,24
 139 -83 139 -83 182 -83 c 1,25,26
 178 -100 178 -100 162 -100 c 0,27,28
 71 -100 71 -100 71 36 c 0,29,30
 71 84 71 84 81.5 164.5 c 128,-1,31
 92 245 92 245 92 271.5 c 128,-1,32
 92 298 92 298 91 311 c 0,33,34
 88 358 88 358 60 358 c 0,0,1
EndSplineSet
EndChar

StartChar: bar
Encoding: 124 124 95
Width: 404
GlyphClass: 2
Flags: W
LayerCount: 2
Fore
SplineSet
153 -141 m 0,0,1
 145 -141 145 -141 143 -121 c 1,2,3
 149 357 149 357 159 619 c 1,4,5
 160 701 160 701 196 701 c 0,6,7
 212 701 212 701 212 677 c 0,8,9
 212 667 212 667 194 325 c 128,-1,10
 176 -17 176 -17 174 -77 c 0,11,12
 172 -141 172 -141 153 -141 c 0,0,1
EndSplineSet
EndChar

StartChar: braceright
Encoding: 125 125 96
Width: 356
GlyphClass: 2
Flags: W
LayerCount: 2
Fore
SplineSet
161 816 m 0,0,1
 252 816 252 816 252 678 c 0,2,3
 252 627 252 627 242 549 c 128,-1,4
 232 471 232 471 232 444.5 c 128,-1,5
 232 418 232 418 232 405 c 1,6,7
 236 358 236 358 264 358 c 0,8,9
 272 358 272 358 272 344.5 c 128,-1,10
 272 331 272 331 264 331 c 0,11,12
 226 331 226 331 204.5 286.5 c 128,-1,13
 183 242 183 242 171.5 179 c 128,-1,14
 160 116 160 116 144.5 52.5 c 128,-1,15
 129 -11 129 -11 90.5 -55.5 c 128,-1,16
 52 -100 52 -100 -10 -100 c 0,17,18
 -24 -100 -24 -100 -30 -83 c 1,19,20
 31 -83 31 -83 63 -45.5 c 128,-1,21
 95 -8 95 -8 104 49 c 128,-1,22
 113 106 113 106 118 165 c 0,23,24
 132 313 132 313 205 346 c 1,25,26
 182 368 182 368 182 414.5 c 128,-1,27
 182 461 182 461 191 505 c 0,28,29
 220 646 220 646 220 696 c 128,-1,30
 220 746 220 746 202 772.5 c 128,-1,31
 184 799 184 799 141 799 c 1,32,33
 145 816 145 816 161 816 c 0,0,1
EndSplineSet
EndChar

StartChar: asciitilde
Encoding: 126 126 97
Width: 496
GlyphClass: 2
Flags: W
LayerCount: 2
Fore
SplineSet
374 410 m 0,0,1
 371 410 371 410 367 410 c 0,2,3
 330 410 330 410 268 390 c 128,-1,4
 206 370 206 370 178 370 c 128,-1,5
 150 370 150 370 128 384 c 128,-1,6
 106 398 106 398 96 412 c 2,7,-1
 87 425 l 1,8,-1
 113 425 l 1,9,10
 130 402 130 402 163 402 c 128,-1,11
 196 402 196 402 259 426.5 c 128,-1,12
 322 451 322 451 358 451 c 128,-1,13
 394 451 394 451 428.5 431.5 c 128,-1,14
 463 412 463 412 480 392 c 2,15,-1
 496 373 l 1,16,-1
 470 373 l 1,17,18
 429 410 429 410 374 410 c 0,0,1
EndSplineSet
EndChar

StartChar: exclamdown
Encoding: 161 161 98
Width: 459
GlyphClass: 2
Flags: W
LayerCount: 2
Fore
SplineSet
257 426 m 0,0,1
 281 426 281 426 281 395 c 128,-1,2
 281 364 281 364 252 345 c 0,3,4
 238 335 238 335 227 335 c 0,5,6
 211 335 211 335 207 348 c 1,7,8
 221 348 221 348 223 375 c 0,9,10
 228 426 228 426 257 426 c 0,0,1
193 241 m 0,11,12
 193 254 193 254 212.5 254 c 128,-1,13
 232 254 232 254 232 241 c 0,14,15
 232 150 232 150 128 48 c 0,16,17
 84 5 84 5 40.5 -38.5 c 128,-1,18
 -3 -82 -3 -82 -33.5 -139 c 128,-1,19
 -64 -196 -64 -196 -64 -258 c 0,20,21
 -64 -349 -64 -349 23 -349 c 0,22,23
 98 -349 98 -349 139 -268 c 1,24,25
 162 -220 162 -220 162 -189 c 0,26,27
 162 -87 162 -87 108 -87 c 1,28,29
 108 -73 108 -73 130 -73 c 0,30,31
 192 -73 192 -73 210 -134 c 0,32,33
 216 -154 216 -154 216 -186.5 c 128,-1,34
 216 -219 216 -219 189 -268 c 0,35,36
 130 -374 130 -374 8 -374 c 0,37,38
 -60 -374 -60 -374 -95 -341.5 c 128,-1,39
 -130 -309 -130 -309 -130 -258.5 c 128,-1,40
 -130 -208 -130 -208 -112 -166.5 c 128,-1,41
 -94 -125 -94 -125 -65.5 -92 c 128,-1,42
 -37 -59 -37 -59 -2.5 -27 c 128,-1,43
 32 5 32 5 66 36 c 128,-1,44
 100 67 100 67 128 98 c 0,45,46
 193 168 193 168 193 241 c 0,11,12
EndSplineSet
EndChar

StartChar: cent
Encoding: 162 162 99
Width: 339
GlyphClass: 2
Flags: W
LayerCount: 2
Fore
SplineSet
90 -114 m 0,0,1
 77 -114 77 -114 77 -87 c 0,2,3
 77 -79 77 -79 78 -70 c 2,4,-1
 87 -1 l 1,5,6
 -6 7 -6 7 -30 98 c 0,7,8
 -38 127 -38 127 -38 172.5 c 128,-1,9
 -38 218 -38 218 -9 285 c 0,10,11
 34 382 34 382 109 414 c 0,12,13
 128 422 128 422 149 424 c 1,14,-1
 164 523 l 2,15,16
 166 534 166 534 169 534 c 0,17,18
 187 534 187 534 187 501 c 0,19,20
 187 492 187 492 186 481 c 2,21,-1
 178 424 l 1,22,23
 210 418 210 418 222 392 c 0,24,25
 230 377 230 377 230 365 c 128,-1,26
 230 353 230 353 226 344 c 0,27,28
 218 320 218 320 199 320 c 0,29,30
 191 320 191 320 187 331 c 1,31,32
 192 331 192 331 196 345.5 c 128,-1,33
 200 360 200 360 195 376.5 c 128,-1,34
 190 393 190 393 174 397 c 1,35,-1
 115 26 l 1,36,37
 142 30 142 30 168 52 c 128,-1,38
 194 74 194 74 206 94 c 2,39,-1
 219 114 l 1,40,-1
 246 114 l 1,41,42
 211 43 211 43 157 13 c 0,43,44
 134 0 134 0 111 -2 c 1,45,46
 97 -95 97 -95 95.5 -104.5 c 128,-1,47
 94 -114 94 -114 90 -114 c 0,0,1
145 395 m 1,48,49
 94 378 94 378 58 297 c 128,-1,50
 22 216 22 216 22 142 c 0,51,52
 22 34 22 34 91 25 c 1,53,54
 117 211 117 211 145 395 c 1,48,49
EndSplineSet
EndChar

StartChar: sterling
Encoding: 163 163 100
Width: 697
GlyphClass: 2
Flags: W
LayerCount: 2
Fore
SplineSet
193 275 m 2,0,1
 181 275 181 275 182 282 c 0,2,3
 184 296 184 296 219 299 c 2,4,-1
 232 300 l 1,5,-1
 293 300 l 1,6,7
 323 457 323 457 346 512 c 0,8,9
 394 629 394 629 494 629 c 0,10,11
 577 629 577 629 607 563 c 0,12,13
 619 537 619 537 619 511 c 128,-1,14
 619 485 619 485 606 458 c 1,15,16
 581 411 581 411 530 410 c 0,17,18
 511 410 511 410 500 429 c 1,19,20
 526 429 526 429 545 447 c 0,21,22
 576 475 576 475 576 525 c 0,23,24
 576 564 576 564 552.5 583.5 c 128,-1,25
 529 603 529 603 502.5 603 c 128,-1,26
 476 603 476 603 460.5 598 c 128,-1,27
 445 593 445 593 433 581.5 c 128,-1,28
 421 570 421 570 412 559 c 128,-1,29
 403 548 403 548 395 526 c 128,-1,30
 387 504 387 504 382 489 c 128,-1,31
 377 474 377 474 371 445 c 128,-1,32
 365 416 365 416 363 400 c 0,33,34
 352 329 352 329 346 298 c 1,35,36
 381 297 381 297 486 297 c 0,37,38
 497 297 497 297 496 291 c 0,39,40
 492 277 492 277 454 277 c 0,41,42
 374 277 374 277 342 276 c 1,43,44
 310 93 310 93 241 28 c 1,45,46
 345 -29 345 -29 410.5 -29 c 128,-1,47
 476 -29 476 -29 499 22 c 0,48,49
 506 38 506 38 506 52 c 128,-1,50
 506 66 506 66 498.5 75.5 c 128,-1,51
 491 85 491 85 481 85 c 1,52,53
 484 97 484 97 496 97 c 0,54,55
 530 97 530 97 541 59 c 0,56,57
 545 46 545 46 545 25 c 128,-1,58
 545 4 545 4 522 -22 c 0,59,60
 490 -60 490 -60 427 -60 c 0,61,62
 355 -60 355 -60 283 -24 c 0,63,64
 259 -11 259 -11 220 11 c 1,65,66
 171 -24 171 -24 91.5 -24 c 128,-1,67
 12 -24 12 -24 -7 18 c 0,68,69
 -11 28 -11 28 -11 42.5 c 128,-1,70
 -11 57 -11 57 12.5 76 c 128,-1,71
 36 95 36 95 79.5 95 c 128,-1,72
 123 95 123 95 206 49 c 1,73,74
 255 104 255 104 289 275 c 1,75,-1
 193 275 l 2,0,1
17 35 m 0,76,77
 17 20 17 20 40 10 c 128,-1,78
 63 0 63 0 107 0 c 128,-1,79
 151 0 151 0 187 30 c 1,80,81
 116 70 116 70 73 70 c 128,-1,82
 30 70 30 70 19 45 c 0,83,84
 17 40 17 40 17 35 c 0,76,77
EndSplineSet
EndChar

StartChar: currency
Encoding: 164 164 101
Width: 576
GlyphClass: 2
Flags: W
LayerCount: 2
Fore
SplineSet
414 407 m 0,0,1
 425 407 425 407 425 397 c 0,2,3
 425 391 425 391 420 385 c 2,4,-1
 360 325 l 1,5,6
 377 297 377 297 377 257 c 0,7,8
 377 182 377 182 333 116 c 1,9,-1
 399 50 l 2,10,11
 405 44 405 44 403.5 37.5 c 128,-1,12
 402 31 402 31 396 29.5 c 128,-1,13
 390 28 390 28 383 34 c 2,14,-1
 319 98 l 1,15,16
 272 41 272 41 215 41 c 128,-1,17
 158 41 158 41 132 78 c 1,18,-1
 84 30 l 2,19,20
 79 25 79 25 74 25 c 0,21,22
 63 25 63 25 63 35 c 0,23,24
 63 40 63 40 68 46 c 2,25,-1
 121 99 l 1,26,27
 113 120 113 120 113 150 c 128,-1,28
 113 180 113 180 132 220 c 0,29,30
 164 287 164 287 222 301 c 0,31,32
 228 302 228 302 231 298 c 128,-1,33
 234 294 234 294 233 289 c 128,-1,34
 232 284 232 284 229 283 c 0,35,36
 196 274 196 274 180 228 c 128,-1,37
 164 182 164 182 164 147 c 0,38,39
 164 61 164 61 215 61 c 128,-1,40
 266 61 266 61 298 127 c 128,-1,41
 330 193 330 193 330 254 c 0,42,43
 330 343 330 343 278 343 c 0,44,45
 246 343 246 343 225.5 325 c 128,-1,46
 205 307 205 307 191 311 c 0,47,48
 186 312 186 312 189 316 c 1,49,-1
 121 384 l 2,50,51
 115 390 115 390 116.5 397 c 128,-1,52
 118 404 118 404 124.5 405 c 128,-1,53
 131 406 131 406 138 400 c 2,54,-1
 205 332 l 1,55,56
 241 363 241 363 281.5 363 c 128,-1,57
 322 363 322 363 345 343 c 1,58,-1
 404 402 l 2,59,60
 409 407 409 407 414 407 c 0,0,1
EndSplineSet
EndChar

StartChar: yen
Encoding: 165 165 102
Width: 626
GlyphClass: 2
Flags: W
LayerCount: 2
Fore
SplineSet
277 71 m 2,0,1
 265 71 265 71 266 77 c 1,2,3
 278 91 278 91 316 93 c 1,4,-1
 350 93 l 1,5,6
 368 147 368 147 381 217 c 1,7,8
 313 146 313 146 263 146 c 0,9,10
 175 146 175 146 175 231 c 0,11,12
 175 279 175 279 209 382 c 128,-1,13
 243 485 243 485 243 541 c 0,14,15
 243 627 243 627 164 627 c 0,16,17
 97 627 97 627 57 558 c 0,18,19
 30 512 30 512 30 478 c 0,20,21
 30 354 30 354 127 354 c 1,22,23
 125 337 125 337 100 337 c 0,24,25
 30 337 30 337 9 407 c 0,26,27
 2 432 2 432 2 467.5 c 128,-1,28
 2 503 2 503 24 551 c 0,29,30
 71 651 71 651 164 651 c 0,31,32
 226 651 226 651 260 612.5 c 128,-1,33
 294 574 294 574 294 516 c 128,-1,34
 294 458 294 458 261 353.5 c 128,-1,35
 228 249 228 249 228 210 c 128,-1,36
 228 171 228 171 262 171 c 0,37,38
 318 171 318 171 388 258 c 1,39,40
 419 472 419 472 456 514 c 0,41,42
 471 530 471 530 491 530 c 0,43,44
 525 530 525 530 525 491 c 0,45,46
 525 472 525 472 511.5 426 c 128,-1,47
 498 380 498 380 449 304 c 1,48,49
 433 170 433 170 408 91 c 1,50,-1
 459 90 l 2,51,52
 470 90 470 90 469 85 c 0,53,54
 467 73 467 73 427 73 c 1,55,56
 415 72 415 72 402 72 c 1,57,-1
 384 28 l 1,58,-1
 439 27 l 2,59,60
 450 27 450 27 449 22 c 0,61,62
 447 10 447 10 419.5 9.5 c 128,-1,63
 392 9 392 9 374 9 c 1,64,65
 308 -115 308 -115 181 -115 c 0,66,67
 86 -115 86 -115 59 -52 c 0,68,69
 51 -33 51 -33 51 -11.5 c 128,-1,70
 51 10 51 10 68.5 36 c 128,-1,71
 86 62 86 62 118 62 c 0,72,73
 137 62 137 62 141 50 c 2,74,-1
 143 45 l 1,75,76
 101 45 101 45 86 6 c 0,77,78
 80 -8 80 -8 80 -26.5 c 128,-1,79
 80 -45 80 -45 100.5 -68 c 128,-1,80
 121 -91 121 -91 166 -91 c 0,81,82
 260 -91 260 -91 315 8 c 1,83,-1
 257 8 l 2,84,85
 245 8 245 8 246 14 c 1,86,87
 258 28 258 28 296 30 c 1,88,-1
 326 30 l 1,89,90
 336 53 336 53 343 71 c 1,91,-1
 277 71 l 2,0,1
454 359 m 1,92,93
 498 441 498 441 498 469.5 c 128,-1,94
 498 498 498 498 486 498 c 128,-1,95
 474 498 474 498 468 468 c 0,96,97
 454 396 454 396 454 359 c 1,92,93
EndSplineSet
EndChar

StartChar: brokenbar
Encoding: 166 166 103
Width: 413
GlyphClass: 2
Flags: W
LayerCount: 2
Fore
SplineSet
196 701 m 0,0,1
 212 701 212 701 212 673 c 128,-1,2
 212 645 212 645 195 342 c 1,3,-1
 152 342 l 1,4,5
 158 604 158 604 159 619 c 0,6,7
 160 701 160 701 196 701 c 0,0,1
153 -141 m 0,8,9
 145 -141 145 -141 143 -121 c 1,10,11
 144 -48 144 -48 150 246 c 1,12,-1
 190 246 l 1,13,14
 187 188 187 188 183 114 c 0,15,16
 176 -22 176 -22 174 -79 c 0,17,18
 172 -141 172 -141 153 -141 c 0,8,9
EndSplineSet
EndChar

StartChar: section
Encoding: 167 167 104
Width: 583
GlyphClass: 2
Flags: W
LayerCount: 2
Fore
SplineSet
45 91 m 0,0,1
 45 42 45 42 68 14.5 c 128,-1,2
 91 -13 91 -13 153.5 -13 c 128,-1,3
 216 -13 216 -13 253 30 c 128,-1,4
 290 73 290 73 290 122.5 c 128,-1,5
 290 172 290 172 270 206.5 c 128,-1,6
 250 241 250 241 221.5 267 c 128,-1,7
 193 293 193 293 164 320 c 0,8,9
 96 383 96 383 96 461 c 0,10,11
 96 515 96 515 131.5 553 c 128,-1,12
 167 591 167 591 230 598 c 1,13,14
 209 637 209 637 209 688.5 c 128,-1,15
 209 740 209 740 251.5 779.5 c 128,-1,16
 294 819 294 819 357 819 c 128,-1,17
 420 819 420 819 451 793.5 c 128,-1,18
 482 768 482 768 482 729 c 0,19,20
 482 710 482 710 451.5 710 c 128,-1,21
 421 710 421 710 421 729 c 0,22,23
 421 795 421 795 356 795 c 0,24,25
 316 795 316 795 291.5 768.5 c 128,-1,26
 267 742 267 742 267 704 c 128,-1,27
 267 666 267 666 287.5 634 c 128,-1,28
 308 602 308 602 337 575 c 128,-1,29
 366 548 366 548 395 520 c 0,30,31
 465 451 465 451 465 372 c 0,32,33
 465 313 465 313 431.5 264.5 c 128,-1,34
 398 216 398 216 347 195 c 1,35,36
 352 173 352 173 352 153 c 0,37,38
 352 73 352 73 294.5 18 c 128,-1,39
 237 -37 237 -37 152.5 -37 c 128,-1,40
 68 -37 68 -37 26.5 1 c 128,-1,41
 -15 39 -15 39 -15 95 c 0,42,43
 -15 111 -15 111 0 118 c 128,-1,44
 15 125 15 125 30 117.5 c 128,-1,45
 45 110 45 110 45 91 c 0,0,1
178.5 549.5 m 128,-1,47
 154 523 154 523 154 484.5 c 128,-1,48
 154 446 154 446 176.5 411.5 c 128,-1,49
 199 377 199 377 228 352 c 0,50,51
 311 280 311 280 337 222 c 1,52,53
 366 241 366 241 384.5 277 c 128,-1,54
 403 313 403 313 403 350.5 c 128,-1,55
 403 388 403 388 385.5 420.5 c 128,-1,56
 368 453 368 453 346 474 c 128,-1,57
 324 495 324 495 293 524.5 c 128,-1,58
 262 554 262 554 245 576 c 1,59,-1
 243 576 l 2,60,46
 203 576 203 576 178.5 549.5 c 128,-1,47
EndSplineSet
EndChar

StartChar: dieresis
Encoding: 168 168 105
Width: 303
GlyphClass: 2
Flags: W
LayerCount: 2
Fore
SplineSet
106 599 m 0,0,1
 129 599 129 599 129 568 c 128,-1,2
 129 537 129 537 99 518 c 0,3,4
 71 500 71 500 58 511 c 0,5,6
 55 514 55 514 53 521 c 1,7,8
 62 521 62 521 66 540.5 c 128,-1,9
 70 560 70 560 78.5 579.5 c 128,-1,10
 87 599 87 599 106 599 c 0,0,1
232 599 m 0,11,12
 255 599 255 599 255 568 c 128,-1,13
 255 537 255 537 225 518 c 0,14,15
 197 500 197 500 184 511 c 0,16,17
 181 514 181 514 179 521 c 1,18,19
 188 521 188 521 192 540.5 c 128,-1,20
 196 560 196 560 204.5 579.5 c 128,-1,21
 213 599 213 599 232 599 c 0,11,12
EndSplineSet
EndChar

StartChar: copyright
Encoding: 169 169 106
Width: 773
GlyphClass: 2
Flags: W
LayerCount: 2
Fore
SplineSet
285 192 m 0,0,1
 285 104 285 104 347 104 c 0,2,3
 366 104 366 104 385.5 117 c 128,-1,4
 405 130 405 130 414 143 c 2,5,-1
 424 156 l 1,6,-1
 443 150 l 1,7,8
 427 124 427 124 399 103.5 c 128,-1,9
 371 83 371 83 347 83 c 0,10,11
 240 83 240 83 240 206 c 0,12,13
 240 264 240 264 274 323 c 0,14,15
 321 403 321 403 388 403 c 0,16,17
 408 403 408 403 420.5 391.5 c 128,-1,18
 433 380 433 380 434.5 363 c 128,-1,19
 436 346 436 346 432 329.5 c 128,-1,20
 428 313 428 313 416 301.5 c 128,-1,21
 404 290 404 290 395 290 c 0,22,23
 383 290 383 290 381 298 c 1,24,25
 387 298 387 298 397 319.5 c 128,-1,26
 407 341 407 341 407 362 c 128,-1,27
 407 383 407 383 389 383 c 0,28,29
 350 383 350 383 317.5 318 c 128,-1,30
 285 253 285 253 285 192 c 0,0,1
98 240 m 0,31,32
 96 224 96 224 96 209 c 0,33,34
 96 121 96 121 159.5 50 c 128,-1,35
 223 -21 223 -21 331 -21 c 128,-1,36
 439 -21 439 -21 524 56 c 0,37,38
 622 144 622 144 622 269 c 0,39,40
 622 359 622 359 557.5 430 c 128,-1,41
 493 501 493 501 385 501 c 128,-1,42
 277 501 277 501 192.5 424.5 c 128,-1,43
 108 348 108 348 98 240 c 0,31,32
78 240 m 0,44,45
 89 356 89 356 180 438.5 c 128,-1,46
 271 521 271 521 387 521 c 128,-1,47
 503 521 503 521 572 444 c 128,-1,48
 641 367 641 367 641 269 c 0,49,50
 641 255 641 255 640 240 c 0,51,52
 627 124 627 124 536 41.5 c 128,-1,53
 445 -41 445 -41 329 -41 c 128,-1,54
 213 -41 213 -41 144.5 35.5 c 128,-1,55
 76 112 76 112 76 206 c 0,56,57
 76 223 76 223 78 240 c 0,44,45
EndSplineSet
EndChar

StartChar: ordfeminine
Encoding: 170 170 107
Width: 583
GlyphClass: 2
Flags: W
LayerCount: 2
Fore
SplineSet
350 634 m 1,0,1
 328 531 328 531 328 486 c 128,-1,2
 328 441 328 441 352 441 c 0,3,4
 371 441 371 441 396.5 490 c 128,-1,5
 422 539 422 539 437 588 c 2,6,-1
 453 637 l 1,7,-1
 474 637 l 1,8,9
 471 628 471 628 466.5 613.5 c 128,-1,10
 462 599 462 599 448 562 c 128,-1,11
 434 525 434 525 420 496.5 c 128,-1,12
 406 468 406 468 386.5 445 c 128,-1,13
 367 422 367 422 350 422 c 0,14,15
 285 422 285 422 285 517 c 0,16,17
 285 533 285 533 287 552 c 1,18,-1
 281 552 l 1,19,20
 212 424 212 424 163 424 c 0,21,22
 99 424 99 424 99 513 c 0,23,24
 99 571 99 571 133 634 c 0,25,26
 185 728 185 728 261 728 c 0,27,28
 281 728 281 728 292.5 716.5 c 128,-1,29
 304 705 304 705 304 696 c 128,-1,30
 304 687 304 687 298 684 c 128,-1,31
 292 681 292 681 286.5 681.5 c 128,-1,32
 281 682 281 682 281 686 c 0,33,34
 281 703 281 703 261 703 c 0,35,36
 220 703 220 703 187 637 c 0,37,38
 151 567 151 567 151 512 c 128,-1,39
 151 457 151 457 168 449 c 1,40,41
 208 449 208 449 291 621 c 0,42,43
 303 647 303 647 311.5 666 c 128,-1,44
 320 685 320 685 333 685 c 0,45,46
 359 685 359 685 350 634 c 1,0,1
EndSplineSet
EndChar

StartChar: guillemotleft
Encoding: 171 171 108
Width: 537
GlyphClass: 2
Flags: W
LayerCount: 2
Fore
SplineSet
170 68 m 1,0,1
 38 221 38 221 38 232 c 0,2,3
 38 238 38 238 44 242 c 2,4,-1
 222 355 l 1,5,-1
 222 330 l 1,6,-1
 83 223 l 1,7,-1
 170 95 l 1,8,-1
 170 68 l 1,0,1
348 68 m 1,9,10
 216 221 216 221 216 232 c 0,11,12
 216 238 216 238 222 242 c 2,13,-1
 400 355 l 1,14,-1
 400 330 l 1,15,-1
 261 223 l 1,16,-1
 348 95 l 1,17,-1
 348 68 l 1,9,10
EndSplineSet
EndChar

StartChar: logicalnot
Encoding: 172 172 109
Width: 768
GlyphClass: 2
Flags: W
LayerCount: 2
Fore
SplineSet
528 284 m 1,0,-1
 70 293 l 1,1,-1
 70 314 l 1,2,-1
 544 328 l 2,3,4
 546 328 546 328 556.5 328 c 128,-1,5
 567 328 567 328 574 319.5 c 128,-1,6
 581 311 581 311 581 304 c 128,-1,7
 581 297 581 297 579 291 c 2,8,-1
 497 102 l 1,9,-1
 473 102 l 1,10,-1
 528 284 l 1,0,-1
EndSplineSet
EndChar

StartChar: uni00AD
Encoding: 173 173 110
Width: 609
GlyphClass: 2
Flags: W
LayerCount: 2
Fore
SplineSet
423 285 m 2,0,-1
 106 283 l 2,1,2
 95 283 95 283 95 291 c 0,3,4
 95 314 95 314 145 314 c 1,5,-1
 455 305 l 2,6,7
 465 305 465 305 465 300 c 0,8,9
 465 286 465 286 423 285 c 2,0,-1
EndSplineSet
EndChar

StartChar: registered
Encoding: 174 174 111
Width: 546
GlyphClass: 2
Flags: W
LayerCount: 2
Fore
SplineSet
130 566 m 0,0,1
 130 646 130 646 186 698 c 128,-1,2
 242 750 242 750 309.5 750 c 128,-1,3
 377 750 377 750 417.5 705 c 128,-1,4
 458 660 458 660 458 601 c 0,5,6
 458 594 458 594 457 587 c 0,7,8
 449 519 449 519 396.5 471.5 c 128,-1,9
 344 424 344 424 276.5 424 c 128,-1,10
 209 424 209 424 169.5 468 c 128,-1,11
 130 512 130 512 130 566 c 0,0,1
373 467 m 1,12,13
 446 519 446 519 446 603 c 0,14,15
 446 655 446 655 408.5 696.5 c 128,-1,16
 371 738 371 738 308.5 738 c 128,-1,17
 246 738 246 738 197 694 c 0,18,19
 141 643 141 643 141 569 c 0,20,21
 141 518 141 518 178 477 c 128,-1,22
 215 436 215 436 268 436 c 128,-1,23
 321 436 321 436 363 460 c 1,24,25
 340 463 340 463 331 481 c 128,-1,26
 322 499 322 499 320 536.5 c 128,-1,27
 318 574 318 574 316 583 c 1,28,29
 305 579 305 579 290 579 c 2,30,-1
 288 579 l 1,31,32
 276 481 276 481 217 481 c 0,33,34
 187 481 187 481 178 502 c 0,35,36
 174 512 174 512 174 522.5 c 128,-1,37
 174 533 174 533 184 550 c 128,-1,38
 194 567 194 567 216 567 c 1,39,-1
 226 560 l 1,40,41
 195 560 195 560 187 531 c 0,42,43
 185 524 185 524 185 512.5 c 128,-1,44
 185 501 185 501 195.5 496 c 128,-1,45
 206 491 206 491 213 491 c 0,46,47
 238 491 238 491 250.5 515 c 128,-1,48
 263 539 263 539 270 582 c 1,49,50
 250 590 250 590 252.5 607.5 c 128,-1,51
 255 625 255 625 277 626 c 1,52,53
 288 683 288 683 312 683 c 0,54,55
 319 683 319 683 319 678 c 2,56,-1
 319 677 l 1,57,58
 299 677 299 677 294 624 c 1,59,60
 314 620 314 620 326 600 c 1,61,62
 357 622 357 622 357 659 c 0,63,64
 357 672 357 672 348.5 688 c 128,-1,65
 340 704 340 704 311 704 c 0,66,67
 251 704 251 704 228 653 c 0,68,69
 219 634 219 634 219 619 c 128,-1,70
 219 604 219 604 227 593.5 c 128,-1,71
 235 583 235 583 247 583 c 1,72,73
 245 575 245 575 236 575 c 0,74,75
 205 575 205 575 205 615.5 c 128,-1,76
 205 656 205 656 234.5 685 c 128,-1,77
 264 714 264 714 309.5 714 c 128,-1,78
 355 714 355 714 371 689 c 0,79,80
 380 675 380 675 380 661 c 128,-1,81
 380 647 380 647 374 634 c 0,82,83
 361 603 361 603 331 588 c 1,84,85
 337 572 337 572 341 540.5 c 128,-1,86
 345 509 345 509 351.5 489.5 c 128,-1,87
 358 470 358 470 373 467 c 1,12,13
293 616 m 1,88,-1
 289 588 l 1,89,90
 301 588 301 588 314 593 c 1,91,92
 308 610 308 610 293 616 c 1,88,-1
272 591 m 1,93,94
 274 609 274 609 276 618 c 1,95,96
 262 616 262 616 262 603 c 0,97,98
 262 595 262 595 272 591 c 1,93,94
EndSplineSet
EndChar

StartChar: degree
Encoding: 176 176 112
Width: 349
GlyphClass: 2
Flags: W
LayerCount: 2
Fore
SplineSet
98 557 m 128,-1,1
 121 580 121 580 155.5 580 c 128,-1,2
 190 580 190 580 213 557 c 128,-1,3
 236 534 236 534 236 500 c 128,-1,4
 236 466 236 466 213 443 c 128,-1,5
 190 420 190 420 155.5 420 c 128,-1,6
 121 420 121 420 98 443.5 c 128,-1,7
 75 467 75 467 75 500.5 c 128,-1,0
 75 534 75 534 98 557 c 128,-1,1
154 446 m 128,-1,9
 176 446 176 446 192.5 462 c 128,-1,10
 209 478 209 478 209 500.5 c 128,-1,11
 209 523 209 523 193 539 c 128,-1,12
 177 555 177 555 154 555 c 128,-1,13
 131 555 131 555 115.5 539 c 128,-1,14
 100 523 100 523 100 500.5 c 128,-1,15
 100 478 100 478 116 462 c 128,-1,8
 132 446 132 446 154 446 c 128,-1,9
EndSplineSet
EndChar

StartChar: plusminus
Encoding: 177 177 113
Width: 702
GlyphClass: 2
Flags: W
LayerCount: 2
Fore
SplineSet
447 266 m 2,0,-1
 319 265 l 1,1,-1
 308 182 l 1,2,3
 305 167 305 167 298 176 c 128,-1,4
 291 185 291 185 291 215 c 1,5,6
 293 236 293 236 296 265 c 1,7,8
 239 264 239 264 130 264 c 0,9,10
 118 264 118 264 119 273 c 0,11,12
 121 289 121 289 151 294 c 1,13,-1
 169 295 l 1,14,15
 202 295 202 295 298 291 c 1,16,17
 313 437 313 437 313.5 447.5 c 128,-1,18
 314 458 314 458 320 458 c 0,19,20
 322 458 322 458 325 456 c 0,21,22
 340 450 340 450 340 420 c 0,23,24
 340 413 340 413 339 405 c 2,25,-1
 323 290 l 1,26,27
 439 286 439 286 464 286 c 128,-1,28
 489 286 489 286 489 281 c 0,29,30
 489 267 489 267 447 266 c 2,0,-1
423 109 m 2,31,-1
 106 107 l 2,32,33
 95 107 95 107 95 115 c 0,34,35
 95 138 95 138 145 138 c 1,36,-1
 455 129 l 2,37,38
 465 129 465 129 465 124 c 0,39,40
 465 110 465 110 423 109 c 2,31,-1
EndSplineSet
EndChar

StartChar: twosuperior
Encoding: 178 178 114
Width: 535
GlyphClass: 2
Flags: W
LayerCount: 2
Fore
SplineSet
239 615 m 0,0,1
 182 615 182 615 182 684 c 0,2,3
 182 723 182 723 211 761 c 0,4,5
 251 815 251 815 320 815 c 0,6,7
 365 815 365 815 388.5 793 c 128,-1,8
 412 771 412 771 412 738 c 128,-1,9
 412 705 412 705 398 675.5 c 128,-1,10
 384 646 384 646 356.5 617.5 c 128,-1,11
 329 589 329 589 306.5 569 c 128,-1,12
 284 549 284 549 247 520.5 c 128,-1,13
 210 492 210 492 197 481 c 1,14,-1
 199 481 l 2,15,16
 215 481 215 481 247 463.5 c 128,-1,17
 279 446 279 446 308 446 c 0,18,19
 357 446 357 446 377 489 c 1,20,21
 385 503 385 503 385 514 c 128,-1,22
 385 525 385 525 379 529.5 c 128,-1,23
 373 534 373 534 368 534 c 1,24,25
 370 547 370 547 382 547 c 0,26,27
 406 547 406 547 406 502 c 128,-1,28
 406 457 406 457 374.5 425.5 c 128,-1,29
 343 394 343 394 307.5 394 c 128,-1,30
 272 394 272 394 251 410 c 128,-1,31
 230 426 230 426 216 442 c 128,-1,32
 202 458 202 458 186 458 c 128,-1,33
 170 458 170 458 160 444.5 c 128,-1,34
 150 431 150 431 150 422 c 128,-1,35
 150 413 150 413 135.5 413 c 128,-1,36
 121 413 121 413 121 421 c 0,37,38
 121 435 121 435 146.5 459.5 c 128,-1,39
 172 484 172 484 207.5 514 c 128,-1,40
 243 544 243 544 278.5 578 c 128,-1,41
 314 612 314 612 339 654.5 c 128,-1,42
 364 697 364 697 364 731.5 c 128,-1,43
 364 766 364 766 352 780 c 128,-1,44
 340 794 340 794 310 794 c 0,45,46
 259 794 259 794 234 736 c 0,47,48
 222 707 222 707 222 686 c 0,49,50
 222 628 222 628 258 628 c 1,51,52
 254 615 254 615 239 615 c 0,0,1
EndSplineSet
EndChar

StartChar: threesuperior
Encoding: 179 179 115
Width: 498
GlyphClass: 2
Flags: W
LayerCount: 2
Fore
SplineSet
358 653 m 1,0,1
 397 621 397 621 397 558 c 0,2,3
 397 474 397 474 326 424 c 0,4,5
 282 393 282 393 217 393 c 128,-1,6
 152 393 152 393 127 439 c 0,7,8
 116 461 116 461 116 484 c 128,-1,9
 116 507 116 507 130 531 c 0,10,11
 157 577 157 577 211 577 c 0,12,13
 222 577 222 577 227.5 571.5 c 128,-1,14
 233 566 233 566 233 560 c 2,15,-1
 233 555 l 1,16,17
 225 559 225 559 209 559 c 128,-1,18
 193 559 193 559 177 544 c 0,19,20
 152 522 152 522 152 482 c 0,21,22
 152 474 152 474 154 459 c 128,-1,23
 156 444 156 444 174.5 429 c 128,-1,24
 193 414 193 414 228.5 414 c 128,-1,25
 264 414 264 414 295 440 c 0,26,27
 351 486 351 486 351 567 c 0,28,29
 351 608 351 608 333 634 c 1,30,31
 302 614 302 614 260 614 c 128,-1,32
 218 614 218 614 218 640 c 0,33,34
 218 660 218 660 246 671 c 0,35,36
 262 677 262 677 282.5 677 c 128,-1,37
 303 677 303 677 326 670 c 1,38,39
 350 704 350 704 350 732 c 0,40,41
 350 798 350 798 295 798 c 0,42,43
 252 798 252 798 237 758 c 0,44,45
 232 744 232 744 232 732 c 128,-1,46
 232 720 232 720 239 713.5 c 128,-1,47
 246 707 246 707 253 707 c 1,48,49
 249 694 249 694 233 694 c 0,50,51
 199 694 199 694 199 737 c 0,52,53
 199 767 199 767 227 793 c 128,-1,54
 255 819 255 819 305 819 c 128,-1,55
 355 819 355 819 376.5 793 c 128,-1,56
 398 767 398 767 398 738 c 0,57,58
 398 691 398 691 358 653 c 1,0,1
237 641 m 0,59,60
 237 632 237 632 262.5 632 c 128,-1,61
 288 632 288 632 312 653 c 1,62,63
 298 661 298 661 272 661 c 128,-1,64
 246 661 246 661 238 646 c 0,65,66
 237 643 237 643 237 641 c 0,59,60
EndSplineSet
EndChar

StartChar: acute
Encoding: 180 180 116
Width: 388
GlyphClass: 2
Flags: W
LayerCount: 2
Fore
SplineSet
271 617 m 1,0,1
 241 580 241 580 203.5 545 c 128,-1,2
 166 510 166 510 155.5 510 c 128,-1,3
 145 510 145 510 145 521 c 128,-1,4
 145 532 145 532 168.5 568.5 c 128,-1,5
 192 605 192 605 214.5 631 c 128,-1,6
 237 657 237 657 248 657 c 128,-1,7
 259 657 259 657 269 652.5 c 128,-1,8
 279 648 279 648 279 638.5 c 128,-1,9
 279 629 279 629 271 617 c 1,0,1
EndSplineSet
EndChar

StartChar: mu
Encoding: 181 181 117
AltUni2: 0003bc.ffffffff.0
Width: 467
GlyphClass: 2
Flags: W
LayerCount: 2
Fore
SplineSet
279 24 m 0,0,1
 305 24 305 24 352 93 c 128,-1,2
 399 162 399 162 433 231 c 2,3,-1
 467 300 l 1,4,-1
 494 300 l 1,5,6
 488 288 488 288 478.5 267.5 c 128,-1,7
 469 247 469 247 441 194.5 c 128,-1,8
 413 142 413 142 387.5 102 c 128,-1,9
 362 62 362 62 330.5 29.5 c 128,-1,10
 299 -3 299 -3 275.5 -3 c 128,-1,11
 252 -3 252 -3 236 6 c 0,12,13
 202 25 202 25 202 94 c 0,14,15
 202 143 202 143 228 264 c 1,16,17
 104 0 104 0 24 0 c 0,18,19
 -14 0 -14 0 -29 24 c 1,20,21
 -59 -120 -59 -120 -59 -212 c 128,-1,22
 -59 -304 -59 -304 -27 -304 c 1,23,24
 -37 -324 -37 -324 -56 -324 c 0,25,26
 -113 -324 -113 -324 -113 -217 c 128,-1,27
 -113 -110 -113 -110 -55 105 c 0,28,29
 -38 169 -38 169 -17.5 240 c 128,-1,30
 3 311 3 311 29 403 c 0,31,32
 35 424 35 424 48 424 c 0,33,34
 66 424 66 424 74 398 c 0,35,36
 78 387 78 387 78 370.5 c 128,-1,37
 78 354 78 354 73 334.5 c 128,-1,38
 68 315 68 315 52 260 c 0,39,40
 9 112 9 112 9 70 c 128,-1,41
 9 28 9 28 29 28 c 0,42,43
 64 28 64 28 122 121.5 c 128,-1,44
 180 215 180 215 220 309 c 2,45,-1
 261 403 l 1,46,47
 266 424 266 424 279 424 c 0,48,49
 297 424 297 424 305 398 c 0,50,51
 309 386 309 386 309 369 c 128,-1,52
 309 352 309 352 305 333.5 c 128,-1,53
 301 315 301 315 292 279 c 128,-1,54
 283 243 283 243 278 220 c 128,-1,55
 273 197 273 197 266 164 c 0,56,57
 256 109 256 109 256 66.5 c 128,-1,58
 256 24 256 24 279 24 c 0,0,1
EndSplineSet
EndChar

StartChar: paragraph
Encoding: 182 182 118
Width: 756
GlyphClass: 2
Flags: W
LayerCount: 2
Fore
SplineSet
439 -29 m 1,0,1
 503 -29 503 -29 532 129 c 0,2,3
 553 245 553 245 569 408.5 c 128,-1,4
 585 572 585 572 595 637 c 1,5,6
 564 549 564 549 537 340 c 0,7,8
 527 263 527 263 503.5 177.5 c 128,-1,9
 480 92 480 92 447.5 30 c 128,-1,10
 415 -32 415 -32 353.5 -72.5 c 128,-1,11
 292 -113 292 -113 207 -113 c 0,12,13
 65 -113 65 -113 16 -27 c 0,14,15
 -4 8 -4 8 -4 40 c 128,-1,16
 -4 72 -4 72 8 101 c 0,17,18
 37 171 37 171 104 171 c 0,19,20
 124 171 124 171 132 157 c 1,21,-1
 134 152 l 1,22,23
 87 152 87 152 61 100 c 0,24,25
 46 70 46 70 46 42 c 128,-1,26
 46 14 46 14 57 -12 c 1,27,28
 92 -87 92 -87 207 -87 c 0,29,30
 291 -87 291 -87 349.5 -42.5 c 128,-1,31
 408 2 408 2 436.5 70.5 c 128,-1,32
 465 139 465 139 486 229 c 128,-1,33
 507 319 507 319 517 402 c 0,34,35
 542 610 542 610 593 695 c 1,36,37
 521 724 521 724 474 724 c 0,38,39
 372 724 372 724 304 622 c 0,40,41
 248 538 248 538 248 442 c 0,42,43
 248 340 248 340 312 311 c 0,44,45
 332 301 332 301 358 301 c 1,46,47
 356 285 356 285 335 285 c 0,48,49
 231 285 231 285 187 373 c 0,50,51
 165 418 165 418 165 464 c 128,-1,52
 165 510 165 510 179 555 c 0,53,54
 214 664 214 664 312 716 c 0,55,56
 374 748 374 748 446.5 748 c 128,-1,57
 519 748 519 748 606 714 c 1,58,-1
 609 717 l 1,59,60
 646 900 646 900 721 900 c 0,61,62
 735 900 735 900 741 883 c 1,63,64
 670 883 670 883 637 743 c 1,65,66
 669 763 669 763 711 763 c 128,-1,67
 753 763 753 763 763 730 c 0,68,69
 766 723 766 723 766 717 c 0,70,71
 766 696 766 696 744.5 681 c 128,-1,72
 723 666 723 666 695.5 666 c 128,-1,73
 668 666 668 666 625 682 c 1,74,75
 614 614 614 614 605.5 501.5 c 128,-1,76
 597 389 597 389 590 301 c 128,-1,77
 583 213 583 213 570 126 c 0,78,79
 541 -56 541 -56 456 -56 c 0,80,81
 445 -56 445 -56 441 -49 c 128,-1,82
 437 -42 437 -42 439 -29 c 1,0,1
630 704 m 1,83,84
 668 689 668 689 700.5 689 c 128,-1,85
 733 689 733 689 739 712 c 0,86,87
 740 716 740 716 740 719 c 0,88,89
 740 741 740 741 699.5 741 c 128,-1,90
 659 741 659 741 630 704 c 1,83,84
EndSplineSet
EndChar

StartChar: periodcentered
Encoding: 183 183 119
Width: 369
GlyphClass: 2
Flags: W
LayerCount: 2
Fore
SplineSet
177 302 m 0,0,1
 200 302 200 302 200 271 c 128,-1,2
 200 240 200 240 170 221 c 0,3,4
 155 211 155 211 144 211 c 0,5,6
 128 211 128 211 124 224 c 1,7,8
 133 224 133 224 137 243.5 c 128,-1,9
 141 263 141 263 149.5 282.5 c 128,-1,10
 158 302 158 302 177 302 c 0,0,1
EndSplineSet
EndChar

StartChar: cedilla
Encoding: 184 184 120
Width: 339
GlyphClass: 2
Flags: W
LayerCount: 2
Fore
SplineSet
16 -64 m 0,0,1
 16 -43 16 -43 65 26 c 1,2,-1
 86 26 l 1,3,-1
 42 -52 l 1,4,5
 66 -39 66 -39 98 -39 c 0,6,7
 147 -39 147 -39 156 -76 c 0,8,9
 157 -83 157 -83 157 -90 c 0,10,11
 157 -119 157 -119 124 -147.5 c 128,-1,12
 91 -176 91 -176 34 -176 c 128,-1,13
 -23 -176 -23 -176 -23 -139 c 0,14,15
 -23 -124 -23 -124 -10 -118 c 0,16,17
 -6 -116 -6 -116 -1 -116 c 0,18,19
 10 -116 10 -116 12 -128 c 1,20,21
 -1 -128 -1 -128 -3 -140 c 0,22,23
 -5 -157 -5 -157 17 -162 c 1,24,-1
 30 -163 l 1,25,26
 88 -163 88 -163 113 -120 c 0,27,28
 123 -104 123 -104 123 -91 c 128,-1,29
 123 -78 123 -78 113.5 -67.5 c 128,-1,30
 104 -57 104 -57 81.5 -57 c 128,-1,31
 59 -57 59 -57 27 -73 c 1,32,-1
 25 -73 l 2,33,34
 16 -73 16 -73 16 -64 c 0,0,1
EndSplineSet
EndChar

StartChar: onesuperior
Encoding: 185 185 121
Width: 430
GlyphClass: 2
Flags: W
LayerCount: 2
Fore
SplineSet
278 388 m 0,0,1
 239 388 239 388 239 470 c 0,2,3
 239 566 239 566 290 695 c 1,4,5
 236 665 236 665 204 630 c 128,-1,6
 172 595 172 595 172 545 c 0,7,8
 172 533 172 533 177 530 c 128,-1,9
 182 527 182 527 183 527 c 1,10,11
 183 515 183 515 170.5 515 c 128,-1,12
 158 515 158 515 148.5 526.5 c 128,-1,13
 139 538 139 538 139 562 c 128,-1,14
 139 586 139 586 153 611.5 c 128,-1,15
 167 637 167 637 195 658 c 0,16,17
 234 689 234 689 303 723 c 1,18,19
 346 816 346 816 385 816 c 0,20,21
 410 816 410 816 410 791 c 0,22,23
 410 771 410 771 390.5 754.5 c 128,-1,24
 371 738 371 738 331 717 c 1,25,26
 300 628 300 628 288 518 c 0,27,28
 285 482 285 482 285 444.5 c 128,-1,29
 285 407 285 407 301 405 c 1,30,31
 298 388 298 388 278 388 c 0,0,1
385 797 m 0,32,33
 364 797 364 797 341 742 c 1,34,35
 393 770 393 770 393 788 c 0,36,37
 393 797 393 797 385 797 c 0,32,33
EndSplineSet
EndChar

StartChar: ordmasculine
Encoding: 186 186 122
Width: 420
GlyphClass: 2
Flags: W
LayerCount: 2
Fore
SplineSet
276 737 m 0,0,1
 313 737 313 737 313 662 c 0,2,3
 313 659 313 659 313 655 c 1,4,5
 322 652 322 652 338.5 652 c 128,-1,6
 355 652 355 652 367.5 665.5 c 128,-1,7
 380 679 380 679 380 686.5 c 128,-1,8
 380 694 380 694 383 695 c 0,9,10
 394 698 394 698 394 690 c 0,11,12
 394 669 394 669 376.5 650.5 c 128,-1,13
 359 632 359 632 338 632 c 128,-1,14
 317 632 317 632 311 633 c 1,15,16
 304 556 304 556 269 489 c 128,-1,17
 234 422 234 422 185 422 c 0,18,19
 105 422 105 422 105 530 c 0,20,21
 105 584 105 584 131 638 c 0,22,23
 166 710 166 710 212 710 c 0,24,25
 230 710 230 710 235 698 c 1,26,-1
 236 693 l 1,27,28
 203 693 203 693 178 632.5 c 128,-1,29
 153 572 153 572 153 508.5 c 128,-1,30
 153 445 153 445 187 445 c 0,31,32
 213 445 213 445 235 478 c 0,33,34
 279 542 279 542 290 640 c 1,35,36
 252 660 252 660 252 702 c 0,37,38
 252 710 252 710 255 718 c 0,39,40
 261 737 261 737 276 737 c 0,0,1
EndSplineSet
EndChar

StartChar: guillemotright
Encoding: 187 187 123
Width: 557
GlyphClass: 2
Flags: W
LayerCount: 2
Fore
SplineSet
306 355 m 1,0,1
 438 202 438 202 438 191 c 0,2,3
 438 185 438 185 432 181 c 2,4,-1
 254 68 l 1,5,-1
 254 93 l 1,6,-1
 393 200 l 1,7,-1
 306 328 l 1,8,-1
 306 355 l 1,0,1
128 355 m 1,9,10
 260 202 260 202 260 191 c 0,11,12
 260 185 260 185 254 181 c 2,13,-1
 76 68 l 1,14,-1
 76 93 l 1,15,-1
 215 200 l 1,16,-1
 128 328 l 1,17,-1
 128 355 l 1,9,10
EndSplineSet
EndChar

StartChar: onequarter
Encoding: 188 188 124
Width: 954
GlyphClass: 2
Flags: W
LayerCount: 2
Fore
SplineSet
749 322 m 0,0,1
 763 322 763 322 763 312 c 2,2,-1
 763 309 l 1,3,4
 743 309 743 309 721 244 c 128,-1,5
 699 179 699 179 688 103 c 1,6,-1
 691 103 l 2,7,8
 727 103 727 103 736 125 c 0,9,10
 747 151 747 151 727 151 c 1,11,12
 729 165 729 165 746 165 c 128,-1,13
 763 165 763 165 763 137 c 128,-1,14
 763 109 763 109 734 93 c 0,15,16
 717 84 717 84 692 84 c 2,17,-1
 686 84 l 1,18,19
 683 56 683 56 683 23.5 c 128,-1,20
 683 -9 683 -9 698 -9 c 1,21,22
 696 -26 696 -26 675 -26 c 0,23,24
 639 -26 639 -26 639 42 c 0,25,26
 639 63 639 63 642 89 c 1,27,28
 636 90 636 90 542 116 c 1,29,30
 511 80 511 80 475.5 80 c 128,-1,31
 440 80 440 80 440 107 c 0,32,33
 440 125 440 125 465 135 c 0,34,35
 479 141 479 141 495.5 141 c 128,-1,36
 512 141 512 141 526 138 c 1,37,38
 546 176 546 176 557 231.5 c 128,-1,39
 568 287 568 287 568 336.5 c 128,-1,40
 568 386 568 386 551 386 c 1,41,42
 555 403 555 403 575 403 c 0,43,44
 614 403 614 403 614 327 c 0,45,46
 614 289 614 289 599 233 c 128,-1,47
 584 177 584 177 553 132 c 1,48,49
 634 109 634 109 645 107 c 1,50,51
 658 185 658 185 689.5 253.5 c 128,-1,52
 721 322 721 322 749 322 c 0,0,1
245 -87 m 0,53,54
 238 -102 238 -102 229 -102 c 128,-1,55
 220 -102 220 -102 220 -87 c 128,-1,56
 220 -72 220 -72 239 -32 c 128,-1,57
 258 8 258 8 324.5 152.5 c 128,-1,58
 391 297 391 297 465 459.5 c 128,-1,59
 539 622 539 622 550 646 c 1,60,61
 562 667 562 667 578.5 667 c 128,-1,62
 595 667 595 667 595 642 c 0,63,64
 595 615 595 615 574 575 c 0,65,66
 571 568 571 568 426 279.5 c 128,-1,67
 281 -9 281 -9 245 -87 c 0,53,54
261 194 m 0,68,69
 222 194 222 194 222 276 c 0,70,71
 222 372 222 372 273 501 c 1,72,73
 219 471 219 471 187 436 c 128,-1,74
 155 401 155 401 155 351 c 0,75,76
 155 339 155 339 160 336 c 128,-1,77
 165 333 165 333 166 333 c 1,78,79
 166 321 166 321 153.5 321 c 128,-1,80
 141 321 141 321 131.5 332.5 c 128,-1,81
 122 344 122 344 122 368 c 128,-1,82
 122 392 122 392 136 417.5 c 128,-1,83
 150 443 150 443 178 464 c 0,84,85
 217 495 217 495 286 529 c 1,86,87
 329 622 329 622 368 622 c 0,88,89
 393 622 393 622 393 597 c 0,90,91
 393 577 393 577 373.5 560.5 c 128,-1,92
 354 544 354 544 314 523 c 1,93,94
 283 434 283 434 272 324 c 0,95,96
 268 288 268 288 268 250.5 c 128,-1,97
 268 213 268 213 284 211 c 1,98,99
 281 194 281 194 261 194 c 0,68,69
368 603 m 0,100,101
 347 603 347 603 324 548 c 1,102,103
 376 576 376 576 376 594 c 0,104,105
 376 603 376 603 368 603 c 0,100,101
516 123 m 1,106,107
 502 125 502 125 497 125 c 0,108,109
 467 125 467 125 462 111 c 1,110,111
 462 100 462 100 480.5 99 c 128,-1,112
 499 98 499 98 516 123 c 1,106,107
EndSplineSet
EndChar

StartChar: onehalf
Encoding: 189 189 125
Width: 947
GlyphClass: 2
Flags: W
LayerCount: 2
Fore
SplineSet
574 192 m 0,0,1
 517 192 517 192 517 261 c 0,2,3
 517 300 517 300 552 345.5 c 128,-1,4
 587 391 587 391 655 392 c 0,5,6
 700 392 700 392 723.5 370 c 128,-1,7
 747 348 747 348 747 315 c 128,-1,8
 747 282 747 282 733 252.5 c 128,-1,9
 719 223 719 223 691.5 194.5 c 128,-1,10
 664 166 664 166 641.5 146 c 128,-1,11
 619 126 619 126 582 97.5 c 128,-1,12
 545 69 545 69 532 58 c 1,13,-1
 534 58 l 2,14,15
 550 58 550 58 582 40.5 c 128,-1,16
 614 23 614 23 643 23 c 0,17,18
 692 23 692 23 712 66 c 1,19,20
 720 80 720 80 720 91 c 128,-1,21
 720 102 720 102 714 106.5 c 128,-1,22
 708 111 708 111 703 111 c 1,23,24
 705 124 705 124 717 124 c 0,25,26
 741 124 741 124 741 79 c 128,-1,27
 741 34 741 34 709.5 2.5 c 128,-1,28
 678 -29 678 -29 642.5 -29 c 128,-1,29
 607 -29 607 -29 586 -13 c 128,-1,30
 565 3 565 3 551 19 c 128,-1,31
 537 35 537 35 523 35 c 128,-1,32
 509 35 509 35 499.5 25.5 c 128,-1,33
 490 16 490 16 485 -2 c 1,34,35
 485 -10 485 -10 470.5 -10 c 128,-1,36
 456 -10 456 -10 456 -2 c 0,37,38
 456 23 456 23 578 122 c 0,39,40
 623 159 623 159 661 212.5 c 128,-1,41
 699 266 699 266 699 315 c 0,42,43
 699 343 699 343 687 357 c 128,-1,44
 675 371 675 371 645 371 c 0,45,46
 594 371 594 371 569 313 c 0,47,48
 557 284 557 284 557 263 c 0,49,50
 557 205 557 205 593 205 c 1,51,52
 589 192 589 192 574 192 c 0,0,1
245 -87 m 0,53,54
 238 -102 238 -102 229 -102 c 128,-1,55
 220 -102 220 -102 220 -87 c 128,-1,56
 220 -72 220 -72 239 -32 c 128,-1,57
 258 8 258 8 324.5 152.5 c 128,-1,58
 391 297 391 297 465 459.5 c 128,-1,59
 539 622 539 622 550 646 c 1,60,61
 562 667 562 667 578.5 667 c 128,-1,62
 595 667 595 667 595 642 c 0,63,64
 595 615 595 615 574 575 c 0,65,66
 571 568 571 568 426 279.5 c 128,-1,67
 281 -9 281 -9 245 -87 c 0,53,54
261 194 m 0,68,69
 222 194 222 194 222 276 c 0,70,71
 222 372 222 372 273 501 c 1,72,73
 219 471 219 471 187 436 c 128,-1,74
 155 401 155 401 155 351 c 0,75,76
 155 339 155 339 160 336 c 128,-1,77
 165 333 165 333 166 333 c 1,78,79
 166 321 166 321 153.5 321 c 128,-1,80
 141 321 141 321 131.5 332.5 c 128,-1,81
 122 344 122 344 122 368 c 128,-1,82
 122 392 122 392 136 417.5 c 128,-1,83
 150 443 150 443 178 464 c 0,84,85
 217 495 217 495 286 529 c 1,86,87
 329 622 329 622 368 622 c 0,88,89
 393 622 393 622 393 597 c 0,90,91
 393 577 393 577 373.5 560.5 c 128,-1,92
 354 544 354 544 314 523 c 1,93,94
 283 434 283 434 272 324 c 0,95,96
 268 288 268 288 268 250.5 c 128,-1,97
 268 213 268 213 284 211 c 1,98,99
 281 194 281 194 261 194 c 0,68,69
368 603 m 0,100,101
 347 603 347 603 324 548 c 1,102,103
 376 576 376 576 376 594 c 0,104,105
 376 603 376 603 368 603 c 0,100,101
EndSplineSet
EndChar

StartChar: threequarters
Encoding: 190 190 126
Width: 957
GlyphClass: 2
Flags: W
LayerCount: 2
Fore
SplineSet
298 454 m 1,0,1
 337 422 337 422 337 359 c 0,2,3
 337 275 337 275 266 225 c 0,4,5
 222 194 222 194 157 194 c 128,-1,6
 92 194 92 194 67 240 c 0,7,8
 56 262 56 262 56 285 c 128,-1,9
 56 308 56 308 70 332 c 0,10,11
 97 378 97 378 151 378 c 0,12,13
 162 378 162 378 167.5 372.5 c 128,-1,14
 173 367 173 367 173 362 c 2,15,-1
 173 356 l 1,16,17
 165 360 165 360 149 360 c 128,-1,18
 133 360 133 360 117 345 c 0,19,20
 92 323 92 323 92 283 c 0,21,22
 92 275 92 275 94 260 c 128,-1,23
 96 245 96 245 114.5 230 c 128,-1,24
 133 215 133 215 168.5 215 c 128,-1,25
 204 215 204 215 235 240 c 0,26,27
 291 287 291 287 291 368 c 0,28,29
 291 409 291 409 273 435 c 1,30,31
 242 415 242 415 200 415 c 128,-1,32
 158 415 158 415 158 441 c 0,33,34
 158 461 158 461 186 472 c 0,35,36
 202 478 202 478 222.5 478 c 128,-1,37
 243 478 243 478 266 471 c 1,38,39
 290 505 290 505 290 533 c 0,40,41
 290 599 290 599 235 599 c 0,42,43
 192 599 192 599 177 559 c 0,44,45
 172 545 172 545 172 533 c 128,-1,46
 172 521 172 521 179 514.5 c 128,-1,47
 186 508 186 508 193 508 c 1,48,49
 189 495 189 495 173 495 c 0,50,51
 139 495 139 495 139 538 c 0,52,53
 139 568 139 568 167 594 c 128,-1,54
 195 620 195 620 245 620 c 128,-1,55
 295 620 295 620 316.5 594 c 128,-1,56
 338 568 338 568 338 539 c 0,57,58
 338 492 338 492 298 454 c 1,0,1
748 322 m 0,59,60
 762 322 762 322 762 312 c 2,61,-1
 762 309 l 1,62,63
 742 309 742 309 720 244 c 128,-1,64
 698 179 698 179 687 103 c 1,65,-1
 690 103 l 2,66,67
 726 103 726 103 735 125 c 0,68,69
 746 151 746 151 726 151 c 1,70,71
 728 165 728 165 745 165 c 128,-1,72
 762 165 762 165 762 137 c 128,-1,73
 762 109 762 109 733 93 c 0,74,75
 716 84 716 84 691 84 c 2,76,-1
 685 84 l 1,77,78
 682 56 682 56 682 23.5 c 128,-1,79
 682 -9 682 -9 697 -9 c 1,80,81
 695 -26 695 -26 674 -26 c 0,82,83
 638 -26 638 -26 638 42 c 0,84,85
 638 63 638 63 641 89 c 1,86,87
 635 90 635 90 541 116 c 1,88,89
 510 80 510 80 474.5 80 c 128,-1,90
 439 80 439 80 439 107 c 0,91,92
 439 125 439 125 464 135 c 0,93,94
 478 141 478 141 494.5 141 c 128,-1,95
 511 141 511 141 525 138 c 1,96,97
 545 176 545 176 556 231.5 c 128,-1,98
 567 287 567 287 567 336.5 c 128,-1,99
 567 386 567 386 550 386 c 1,100,101
 554 403 554 403 574 403 c 0,102,103
 613 403 613 403 613 327 c 0,104,105
 613 289 613 289 598 233 c 128,-1,106
 583 177 583 177 552 132 c 1,107,108
 633 109 633 109 644 107 c 1,109,110
 657 185 657 185 688.5 253.5 c 128,-1,111
 720 322 720 322 748 322 c 0,59,60
244 -87 m 0,112,113
 237 -102 237 -102 228 -102 c 128,-1,114
 219 -102 219 -102 219 -87 c 128,-1,115
 219 -72 219 -72 238 -32 c 128,-1,116
 257 8 257 8 323.5 152.5 c 128,-1,117
 390 297 390 297 464 459.5 c 128,-1,118
 538 622 538 622 549 646 c 1,119,120
 561 667 561 667 577.5 667 c 128,-1,121
 594 667 594 667 594 642 c 0,122,123
 594 615 594 615 573 575 c 0,124,125
 570 568 570 568 425 279.5 c 128,-1,126
 280 -9 280 -9 244 -87 c 0,112,113
177 442 m 0,127,128
 177 433 177 433 202.5 433 c 128,-1,129
 228 433 228 433 252 454 c 1,130,131
 238 462 238 462 212 462 c 128,-1,132
 186 462 186 462 178 447 c 0,133,134
 177 444 177 444 177 442 c 0,127,128
515 123 m 1,135,136
 501 125 501 125 496 125 c 0,137,138
 466 125 466 125 461 111 c 1,139,140
 461 100 461 100 479.5 99 c 128,-1,141
 498 98 498 98 515 123 c 1,135,136
EndSplineSet
EndChar

StartChar: questiondown
Encoding: 191 191 127
Width: 469
GlyphClass: 2
Flags: W
LayerCount: 2
Fore
SplineSet
190 72 m 0,0,1
 214 72 214 72 214 41 c 128,-1,2
 214 10 214 10 185 -9 c 0,3,4
 171 -19 171 -19 160 -19 c 0,5,6
 144 -19 144 -19 140 -6 c 1,7,8
 154 -6 154 -6 156 21 c 0,9,10
 161 72 161 72 190 72 c 0,0,1
216 161 m 0,11,12
 216 148 216 148 196.5 148 c 128,-1,13
 177 148 177 148 177 161 c 0,14,15
 177 252 177 252 282 354 c 0,16,17
 325 397 325 397 368.5 440.5 c 128,-1,18
 412 484 412 484 442.5 541 c 128,-1,19
 473 598 473 598 473 660 c 0,20,21
 473 751 473 751 386 751 c 0,22,23
 311 751 311 751 270 670 c 1,24,25
 247 622 247 622 247 591 c 0,26,27
 247 489 247 489 301 489 c 1,28,29
 301 475 301 475 279 475 c 0,30,31
 217 475 217 475 199 536 c 0,32,33
 193 556 193 556 193 588.5 c 128,-1,34
 193 621 193 621 220 670 c 0,35,36
 279 776 279 776 401 776 c 0,37,38
 469 776 469 776 504 743.5 c 128,-1,39
 539 711 539 711 539 660.5 c 128,-1,40
 539 610 539 610 521 568.5 c 128,-1,41
 503 527 503 527 474.5 494 c 128,-1,42
 446 461 446 461 412 429 c 128,-1,43
 378 397 378 397 343.5 366 c 128,-1,44
 309 335 309 335 280 304 c 0,45,46
 216 234 216 234 216 161 c 0,11,12
EndSplineSet
EndChar

StartChar: Agrave
Encoding: 192 192 128
Width: 1005
GlyphClass: 2
Flags: W
LayerCount: 2
Fore
SplineSet
869 1007 m 0,0,1
 905 974 905 974 937.5 934.5 c 128,-1,2
 970 895 970 895 970 885.5 c 128,-1,3
 970 876 970 876 959.5 876 c 128,-1,4
 949 876 949 876 914 901 c 0,5,6
 828 963 828 963 828 989 c 0,7,8
 828 996 828 996 834 1006 c 128,-1,9
 840 1016 840 1016 849.5 1016 c 128,-1,10
 859 1016 859 1016 869 1007 c 0,0,1
414 23 m 1,11,12
 337 105 337 105 337 228 c 0,13,14
 337 325 337 325 397 386 c 0,15,16
 441 430 441 430 504.5 430 c 128,-1,17
 568 430 568 430 619 399 c 1,18,19
 708 606 708 606 763 686 c 1,20,21
 756 688 756 688 711.5 705 c 128,-1,22
 667 722 667 722 655 726 c 2,23,-1
 607 742 l 2,24,25
 523 770 523 770 459 770 c 0,26,27
 329 770 329 770 267 672 c 1,28,29
 231 617 231 617 231 558 c 0,30,31
 231 462 231 462 293 445 c 0,32,33
 302 442 302 442 312 442 c 1,34,35
 306 420 306 420 279 420 c 0,36,37
 218 420 218 420 193 485 c 0,38,39
 181 516 181 516 181 554 c 128,-1,40
 181 592 181 592 201 639 c 0,41,42
 243 740 243 740 349 777 c 0,43,44
 399 794 399 794 442.5 794 c 128,-1,45
 486 794 486 794 514.5 789.5 c 128,-1,46
 543 785 543 785 583 772.5 c 128,-1,47
 623 760 623 760 641.5 754 c 128,-1,48
 660 748 660 748 713.5 727.5 c 128,-1,49
 767 707 767 707 775 704 c 1,50,51
 861 818 861 818 963 818 c 0,52,53
 971 818 971 818 975 813 c 128,-1,54
 979 808 979 808 980 799 c 1,55,56
 876 799 876 799 798 696 c 1,57,58
 850 677 850 677 899 666 c 1,59,60
 953 736 953 736 998 736 c 0,61,62
 1008 736 1008 736 1015 730.5 c 128,-1,63
 1022 725 1022 725 1025 714 c 1,64,65
 986 714 986 714 944 659 c 1,66,67
 951 658 951 658 965 658 c 0,68,69
 1064 658 1064 658 1104 717 c 1,70,71
 1121 740 1121 740 1121 756 c 0,72,73
 1121 801 1121 801 1081 801 c 1,74,75
 1090 815 1090 815 1110 815 c 0,76,77
 1149 815 1149 815 1161 776 c 0,78,79
 1164 764 1164 764 1164 753 c 0,80,81
 1164 720 1164 720 1136 688 c 0,82,83
 1087 634 1087 634 985 634 c 0,84,85
 955 634 955 634 931 638 c 1,86,87
 864 531 864 531 823 334 c 0,88,89
 794 197 794 197 794 130.5 c 128,-1,90
 794 64 794 64 799 32 c 1,91,92
 856 76 856 76 908 143 c 128,-1,93
 960 210 960 210 983 255 c 2,94,-1
 1006 300 l 1,95,-1
 1033 300 l 1,96,97
 1025 279 1025 279 998.5 233.5 c 128,-1,98
 972 188 972 188 947 154 c 1,99,100
 883 62 883 62 805 6 c 1,101,102
 818 -32 818 -32 842 -32 c 1,103,104
 832 -52 832 -52 806.5 -52 c 128,-1,105
 781 -52 781 -52 760 -22 c 1,106,107
 688 -59 688 -59 620 -59 c 0,108,109
 521 -59 521 -59 449 -7 c 1,110,111
 344 -127 344 -127 196 -127 c 128,-1,112
 48 -127 48 -127 -19 -22 c 0,113,114
 -56 37 -56 37 -56 105 c 0,115,116
 -56 133 -56 133 -50 162 c 0,117,118
 -29 259 -29 259 45 300 c 0,119,120
 84 322 84 322 132 322 c 0,121,122
 235 322 235 322 271 242 c 0,123,124
 286 209 286 209 286 174.5 c 128,-1,125
 286 140 286 140 272 105 c 0,126,127
 238 21 238 21 161 21 c 0,128,129
 149 21 149 21 141 26.5 c 128,-1,130
 133 32 133 32 129 43 c 1,131,132
 156 43 156 43 180 57 c 0,133,134
 220 81 220 81 243 144 c 1,135,136
 249 165 249 165 249 178.5 c 128,-1,137
 249 192 249 192 247 209.5 c 128,-1,138
 245 227 245 227 234 250 c 128,-1,139
 223 273 223 273 196 287 c 128,-1,140
 169 301 169 301 132 301 c 0,141,142
 37 301 37 301 -8 217 c 0,143,144
 -34 169 -34 169 -34 126 c 128,-1,145
 -34 83 -34 83 -25 49 c 0,146,147
 1 -46 1 -46 84 -82 c 0,148,149
 123 -99 123 -99 170 -99 c 0,150,151
 305 -99 305 -99 414 23 c 1,11,12
748 -1 m 1,152,153
 731 39 731 39 731 96.5 c 128,-1,154
 731 154 731 154 707 229.5 c 128,-1,155
 683 305 683 305 637 353 c 1,156,157
 546 113 546 113 467 13 c 1,158,159
 529 -36 529 -36 606 -36 c 128,-1,160
 683 -36 683 -36 748 -1 c 1,152,153
609 377 m 1,161,162
 571 404 571 404 520.5 404 c 128,-1,163
 470 404 470 404 431 366 c 1,164,165
 375 309 375 309 375 217 c 0,166,167
 375 115 375 115 432 46 c 1,168,169
 496 128 496 128 555 255 c 0,170,171
 576 302 576 302 609 377 c 1,161,162
739 218 m 1,172,173
 755 336 755 336 795 453.5 c 128,-1,174
 835 571 835 571 886 647 c 1,175,176
 844 657 844 657 785 678 c 1,177,178
 738 608 738 608 691 493 c 0,179,180
 677 457 677 457 647 378 c 1,181,182
 709 323 709 323 739 218 c 1,172,173
EndSplineSet
EndChar

StartChar: Aacute
Encoding: 193 193 129
Width: 1005
GlyphClass: 2
Flags: W
LayerCount: 2
Fore
SplineSet
1097 987 m 1,0,1
 1067 950 1067 950 1029.5 915 c 128,-1,2
 992 880 992 880 981.5 880 c 128,-1,3
 971 880 971 880 971 891 c 128,-1,4
 971 902 971 902 994.5 938.5 c 128,-1,5
 1018 975 1018 975 1040.5 1001 c 128,-1,6
 1063 1027 1063 1027 1074 1027 c 128,-1,7
 1085 1027 1085 1027 1095 1022.5 c 128,-1,8
 1105 1018 1105 1018 1105 1008.5 c 128,-1,9
 1105 999 1105 999 1097 987 c 1,0,1
414 23 m 1,10,11
 337 105 337 105 337 228 c 0,12,13
 337 325 337 325 397 386 c 0,14,15
 441 430 441 430 504.5 430 c 128,-1,16
 568 430 568 430 619 399 c 1,17,18
 708 606 708 606 763 686 c 1,19,20
 756 688 756 688 711.5 705 c 128,-1,21
 667 722 667 722 655 726 c 2,22,-1
 607 742 l 2,23,24
 523 770 523 770 459 770 c 0,25,26
 329 770 329 770 267 672 c 1,27,28
 231 617 231 617 231 558 c 0,29,30
 231 462 231 462 293 445 c 0,31,32
 302 442 302 442 312 442 c 1,33,34
 306 420 306 420 279 420 c 0,35,36
 218 420 218 420 193 485 c 0,37,38
 181 516 181 516 181 554 c 128,-1,39
 181 592 181 592 201 639 c 0,40,41
 243 740 243 740 349 777 c 0,42,43
 399 794 399 794 442.5 794 c 128,-1,44
 486 794 486 794 514.5 789.5 c 128,-1,45
 543 785 543 785 583 772.5 c 128,-1,46
 623 760 623 760 641.5 754 c 128,-1,47
 660 748 660 748 713.5 727.5 c 128,-1,48
 767 707 767 707 775 704 c 1,49,50
 861 818 861 818 963 818 c 0,51,52
 971 818 971 818 975 813 c 128,-1,53
 979 808 979 808 980 799 c 1,54,55
 876 799 876 799 798 696 c 1,56,57
 850 677 850 677 899 666 c 1,58,59
 953 736 953 736 998 736 c 0,60,61
 1008 736 1008 736 1015 730.5 c 128,-1,62
 1022 725 1022 725 1025 714 c 1,63,64
 986 714 986 714 944 659 c 1,65,66
 951 658 951 658 965 658 c 0,67,68
 1064 658 1064 658 1104 717 c 1,69,70
 1121 740 1121 740 1121 756 c 0,71,72
 1121 801 1121 801 1081 801 c 1,73,74
 1090 815 1090 815 1110 815 c 0,75,76
 1149 815 1149 815 1161 776 c 0,77,78
 1164 764 1164 764 1164 753 c 0,79,80
 1164 720 1164 720 1136 688 c 0,81,82
 1087 634 1087 634 985 634 c 0,83,84
 955 634 955 634 931 638 c 1,85,86
 864 531 864 531 823 334 c 0,87,88
 794 197 794 197 794 130.5 c 128,-1,89
 794 64 794 64 799 32 c 1,90,91
 856 76 856 76 908 143 c 128,-1,92
 960 210 960 210 983 255 c 2,93,-1
 1006 300 l 1,94,-1
 1033 300 l 1,95,96
 1025 279 1025 279 998.5 233.5 c 128,-1,97
 972 188 972 188 947 154 c 1,98,99
 883 62 883 62 805 6 c 1,100,101
 818 -32 818 -32 842 -32 c 1,102,103
 832 -52 832 -52 806.5 -52 c 128,-1,104
 781 -52 781 -52 760 -22 c 1,105,106
 688 -59 688 -59 620 -59 c 0,107,108
 521 -59 521 -59 449 -7 c 1,109,110
 344 -127 344 -127 196 -127 c 128,-1,111
 48 -127 48 -127 -19 -22 c 0,112,113
 -56 37 -56 37 -56 105 c 0,114,115
 -56 133 -56 133 -50 162 c 0,116,117
 -29 259 -29 259 45 300 c 0,118,119
 84 322 84 322 132 322 c 0,120,121
 235 322 235 322 271 242 c 0,122,123
 286 209 286 209 286 174.5 c 128,-1,124
 286 140 286 140 272 105 c 0,125,126
 238 21 238 21 161 21 c 0,127,128
 149 21 149 21 141 26.5 c 128,-1,129
 133 32 133 32 129 43 c 1,130,131
 156 43 156 43 180 57 c 0,132,133
 220 81 220 81 243 144 c 1,134,135
 249 165 249 165 249 178.5 c 128,-1,136
 249 192 249 192 247 209.5 c 128,-1,137
 245 227 245 227 234 250 c 128,-1,138
 223 273 223 273 196 287 c 128,-1,139
 169 301 169 301 132 301 c 0,140,141
 37 301 37 301 -8 217 c 0,142,143
 -34 169 -34 169 -34 126 c 128,-1,144
 -34 83 -34 83 -25 49 c 0,145,146
 1 -46 1 -46 84 -82 c 0,147,148
 123 -99 123 -99 170 -99 c 0,149,150
 305 -99 305 -99 414 23 c 1,10,11
748 -1 m 1,151,152
 731 39 731 39 731 96.5 c 128,-1,153
 731 154 731 154 707 229.5 c 128,-1,154
 683 305 683 305 637 353 c 1,155,156
 546 113 546 113 467 13 c 1,157,158
 529 -36 529 -36 606 -36 c 128,-1,159
 683 -36 683 -36 748 -1 c 1,151,152
609 377 m 1,160,161
 571 404 571 404 520.5 404 c 128,-1,162
 470 404 470 404 431 366 c 1,163,164
 375 309 375 309 375 217 c 0,165,166
 375 115 375 115 432 46 c 1,167,168
 496 128 496 128 555 255 c 0,169,170
 576 302 576 302 609 377 c 1,160,161
739 218 m 1,171,172
 755 336 755 336 795 453.5 c 128,-1,173
 835 571 835 571 886 647 c 1,174,175
 844 657 844 657 785 678 c 1,176,177
 738 608 738 608 691 493 c 0,178,179
 677 457 677 457 647 378 c 1,180,181
 709 323 709 323 739 218 c 1,171,172
EndSplineSet
EndChar

StartChar: Acircumflex
Encoding: 194 194 130
Width: 1005
GlyphClass: 2
Flags: W
LayerCount: 2
Fore
SplineSet
1026 878 m 1,0,-1
 1002 878 l 1,1,-1
 964 942 l 1,2,-1
 855 878 l 1,3,-1
 830 878 l 1,4,5
 911 945 911 945 935.5 964.5 c 128,-1,6
 960 984 960 984 966.5 984 c 128,-1,7
 973 984 973 984 976 977 c 2,8,-1
 1026 878 l 1,0,-1
414 23 m 1,9,10
 337 105 337 105 337 228 c 0,11,12
 337 325 337 325 397 386 c 0,13,14
 441 430 441 430 504.5 430 c 128,-1,15
 568 430 568 430 619 399 c 1,16,17
 708 606 708 606 763 686 c 1,18,19
 756 688 756 688 711.5 705 c 128,-1,20
 667 722 667 722 655 726 c 2,21,-1
 607 742 l 2,22,23
 523 770 523 770 459 770 c 0,24,25
 329 770 329 770 267 672 c 1,26,27
 231 617 231 617 231 558 c 0,28,29
 231 462 231 462 293 445 c 0,30,31
 302 442 302 442 312 442 c 1,32,33
 306 420 306 420 279 420 c 0,34,35
 218 420 218 420 193 485 c 0,36,37
 181 516 181 516 181 554 c 128,-1,38
 181 592 181 592 201 639 c 0,39,40
 243 740 243 740 349 777 c 0,41,42
 399 794 399 794 442.5 794 c 128,-1,43
 486 794 486 794 514.5 789.5 c 128,-1,44
 543 785 543 785 583 772.5 c 128,-1,45
 623 760 623 760 641.5 754 c 128,-1,46
 660 748 660 748 713.5 727.5 c 128,-1,47
 767 707 767 707 775 704 c 1,48,49
 861 818 861 818 963 818 c 0,50,51
 971 818 971 818 975 813 c 128,-1,52
 979 808 979 808 980 799 c 1,53,54
 876 799 876 799 798 696 c 1,55,56
 850 677 850 677 899 666 c 1,57,58
 953 736 953 736 998 736 c 0,59,60
 1008 736 1008 736 1015 730.5 c 128,-1,61
 1022 725 1022 725 1025 714 c 1,62,63
 986 714 986 714 944 659 c 1,64,65
 951 658 951 658 965 658 c 0,66,67
 1064 658 1064 658 1104 717 c 1,68,69
 1121 740 1121 740 1121 756 c 0,70,71
 1121 801 1121 801 1081 801 c 1,72,73
 1090 815 1090 815 1110 815 c 0,74,75
 1149 815 1149 815 1161 776 c 0,76,77
 1164 764 1164 764 1164 753 c 0,78,79
 1164 720 1164 720 1136 688 c 0,80,81
 1087 634 1087 634 985 634 c 0,82,83
 955 634 955 634 931 638 c 1,84,85
 864 531 864 531 823 334 c 0,86,87
 794 197 794 197 794 130.5 c 128,-1,88
 794 64 794 64 799 32 c 1,89,90
 856 76 856 76 908 143 c 128,-1,91
 960 210 960 210 983 255 c 2,92,-1
 1006 300 l 1,93,-1
 1033 300 l 1,94,95
 1025 279 1025 279 998.5 233.5 c 128,-1,96
 972 188 972 188 947 154 c 1,97,98
 883 62 883 62 805 6 c 1,99,100
 818 -32 818 -32 842 -32 c 1,101,102
 832 -52 832 -52 806.5 -52 c 128,-1,103
 781 -52 781 -52 760 -22 c 1,104,105
 688 -59 688 -59 620 -59 c 0,106,107
 521 -59 521 -59 449 -7 c 1,108,109
 344 -127 344 -127 196 -127 c 128,-1,110
 48 -127 48 -127 -19 -22 c 0,111,112
 -56 37 -56 37 -56 105 c 0,113,114
 -56 133 -56 133 -50 162 c 0,115,116
 -29 259 -29 259 45 300 c 0,117,118
 84 322 84 322 132 322 c 0,119,120
 235 322 235 322 271 242 c 0,121,122
 286 209 286 209 286 174.5 c 128,-1,123
 286 140 286 140 272 105 c 0,124,125
 238 21 238 21 161 21 c 0,126,127
 149 21 149 21 141 26.5 c 128,-1,128
 133 32 133 32 129 43 c 1,129,130
 156 43 156 43 180 57 c 0,131,132
 220 81 220 81 243 144 c 1,133,134
 249 165 249 165 249 178.5 c 128,-1,135
 249 192 249 192 247 209.5 c 128,-1,136
 245 227 245 227 234 250 c 128,-1,137
 223 273 223 273 196 287 c 128,-1,138
 169 301 169 301 132 301 c 0,139,140
 37 301 37 301 -8 217 c 0,141,142
 -34 169 -34 169 -34 126 c 128,-1,143
 -34 83 -34 83 -25 49 c 0,144,145
 1 -46 1 -46 84 -82 c 0,146,147
 123 -99 123 -99 170 -99 c 0,148,149
 305 -99 305 -99 414 23 c 1,9,10
748 -1 m 1,150,151
 731 39 731 39 731 96.5 c 128,-1,152
 731 154 731 154 707 229.5 c 128,-1,153
 683 305 683 305 637 353 c 1,154,155
 546 113 546 113 467 13 c 1,156,157
 529 -36 529 -36 606 -36 c 128,-1,158
 683 -36 683 -36 748 -1 c 1,150,151
609 377 m 1,159,160
 571 404 571 404 520.5 404 c 128,-1,161
 470 404 470 404 431 366 c 1,162,163
 375 309 375 309 375 217 c 0,164,165
 375 115 375 115 432 46 c 1,166,167
 496 128 496 128 555 255 c 0,168,169
 576 302 576 302 609 377 c 1,159,160
739 218 m 1,170,171
 755 336 755 336 795 453.5 c 128,-1,172
 835 571 835 571 886 647 c 1,173,174
 844 657 844 657 785 678 c 1,175,176
 738 608 738 608 691 493 c 0,177,178
 677 457 677 457 647 378 c 1,179,180
 709 323 709 323 739 218 c 1,170,171
EndSplineSet
EndChar

StartChar: Atilde
Encoding: 195 195 131
Width: 1005
GlyphClass: 2
Flags: W
LayerCount: 2
Fore
SplineSet
871 920 m 0,0,1
 846 920 846 920 822 878 c 1,2,-1
 799 878 l 1,3,4
 801 884 801 884 811.5 899.5 c 128,-1,5
 822 915 822 915 832 924 c 0,6,7
 858 949 858 949 885 949 c 128,-1,8
 912 949 912 949 940 929.5 c 128,-1,9
 968 910 968 910 991.5 910 c 128,-1,10
 1015 910 1015 910 1035 946 c 1,11,-1
 1057 946 l 1,12,13
 1047 919 1047 919 1021 897 c 128,-1,14
 995 875 995 875 970.5 875 c 128,-1,15
 946 875 946 875 916 897.5 c 128,-1,16
 886 920 886 920 871 920 c 0,0,1
414 23 m 1,17,18
 337 105 337 105 337 228 c 0,19,20
 337 325 337 325 397 386 c 0,21,22
 441 430 441 430 504.5 430 c 128,-1,23
 568 430 568 430 619 399 c 1,24,25
 708 606 708 606 763 686 c 1,26,27
 756 688 756 688 711.5 705 c 128,-1,28
 667 722 667 722 655 726 c 2,29,-1
 607 742 l 2,30,31
 523 770 523 770 459 770 c 0,32,33
 329 770 329 770 267 672 c 1,34,35
 231 617 231 617 231 558 c 0,36,37
 231 462 231 462 293 445 c 0,38,39
 302 442 302 442 312 442 c 1,40,41
 306 420 306 420 279 420 c 0,42,43
 218 420 218 420 193 485 c 0,44,45
 181 516 181 516 181 554 c 128,-1,46
 181 592 181 592 201 639 c 0,47,48
 243 740 243 740 349 777 c 0,49,50
 399 794 399 794 442.5 794 c 128,-1,51
 486 794 486 794 514.5 789.5 c 128,-1,52
 543 785 543 785 583 772.5 c 128,-1,53
 623 760 623 760 641.5 754 c 128,-1,54
 660 748 660 748 713.5 727.5 c 128,-1,55
 767 707 767 707 775 704 c 1,56,57
 861 818 861 818 963 818 c 0,58,59
 971 818 971 818 975 813 c 128,-1,60
 979 808 979 808 980 799 c 1,61,62
 876 799 876 799 798 696 c 1,63,64
 850 677 850 677 899 666 c 1,65,66
 953 736 953 736 998 736 c 0,67,68
 1008 736 1008 736 1015 730.5 c 128,-1,69
 1022 725 1022 725 1025 714 c 1,70,71
 986 714 986 714 944 659 c 1,72,73
 951 658 951 658 965 658 c 0,74,75
 1064 658 1064 658 1104 717 c 1,76,77
 1121 740 1121 740 1121 756 c 0,78,79
 1121 801 1121 801 1081 801 c 1,80,81
 1090 815 1090 815 1110 815 c 0,82,83
 1149 815 1149 815 1161 776 c 0,84,85
 1164 764 1164 764 1164 753 c 0,86,87
 1164 720 1164 720 1136 688 c 0,88,89
 1087 634 1087 634 985 634 c 0,90,91
 955 634 955 634 931 638 c 1,92,93
 864 531 864 531 823 334 c 0,94,95
 794 197 794 197 794 130.5 c 128,-1,96
 794 64 794 64 799 32 c 1,97,98
 856 76 856 76 908 143 c 128,-1,99
 960 210 960 210 983 255 c 2,100,-1
 1006 300 l 1,101,-1
 1033 300 l 1,102,103
 1025 279 1025 279 998.5 233.5 c 128,-1,104
 972 188 972 188 947 154 c 1,105,106
 883 62 883 62 805 6 c 1,107,108
 818 -32 818 -32 842 -32 c 1,109,110
 832 -52 832 -52 806.5 -52 c 128,-1,111
 781 -52 781 -52 760 -22 c 1,112,113
 688 -59 688 -59 620 -59 c 0,114,115
 521 -59 521 -59 449 -7 c 1,116,117
 344 -127 344 -127 196 -127 c 128,-1,118
 48 -127 48 -127 -19 -22 c 0,119,120
 -56 37 -56 37 -56 105 c 0,121,122
 -56 133 -56 133 -50 162 c 0,123,124
 -29 259 -29 259 45 300 c 0,125,126
 84 322 84 322 132 322 c 0,127,128
 235 322 235 322 271 242 c 0,129,130
 286 209 286 209 286 174.5 c 128,-1,131
 286 140 286 140 272 105 c 0,132,133
 238 21 238 21 161 21 c 0,134,135
 149 21 149 21 141 26.5 c 128,-1,136
 133 32 133 32 129 43 c 1,137,138
 156 43 156 43 180 57 c 0,139,140
 220 81 220 81 243 144 c 1,141,142
 249 165 249 165 249 178.5 c 128,-1,143
 249 192 249 192 247 209.5 c 128,-1,144
 245 227 245 227 234 250 c 128,-1,145
 223 273 223 273 196 287 c 128,-1,146
 169 301 169 301 132 301 c 0,147,148
 37 301 37 301 -8 217 c 0,149,150
 -34 169 -34 169 -34 126 c 128,-1,151
 -34 83 -34 83 -25 49 c 0,152,153
 1 -46 1 -46 84 -82 c 0,154,155
 123 -99 123 -99 170 -99 c 0,156,157
 305 -99 305 -99 414 23 c 1,17,18
748 -1 m 1,158,159
 731 39 731 39 731 96.5 c 128,-1,160
 731 154 731 154 707 229.5 c 128,-1,161
 683 305 683 305 637 353 c 1,162,163
 546 113 546 113 467 13 c 1,164,165
 529 -36 529 -36 606 -36 c 128,-1,166
 683 -36 683 -36 748 -1 c 1,158,159
609 377 m 1,167,168
 571 404 571 404 520.5 404 c 128,-1,169
 470 404 470 404 431 366 c 1,170,171
 375 309 375 309 375 217 c 0,172,173
 375 115 375 115 432 46 c 1,174,175
 496 128 496 128 555 255 c 0,176,177
 576 302 576 302 609 377 c 1,167,168
739 218 m 1,178,179
 755 336 755 336 795 453.5 c 128,-1,180
 835 571 835 571 886 647 c 1,181,182
 844 657 844 657 785 678 c 1,183,184
 738 608 738 608 691 493 c 0,185,186
 677 457 677 457 647 378 c 1,187,188
 709 323 709 323 739 218 c 1,178,179
EndSplineSet
EndChar

StartChar: Adieresis
Encoding: 196 196 132
Width: 1005
GlyphClass: 2
Flags: W
LayerCount: 2
Fore
SplineSet
884 969 m 0,0,1
 907 969 907 969 907 938 c 128,-1,2
 907 907 907 907 877 888 c 0,3,4
 849 870 849 870 837 881 c 0,5,6
 833 884 833 884 831 891 c 1,7,8
 840 891 840 891 844 910.5 c 128,-1,9
 848 930 848 930 856.5 949.5 c 128,-1,10
 865 969 865 969 884 969 c 0,0,1
1010 969 m 0,11,12
 1033 969 1033 969 1033 938 c 128,-1,13
 1033 907 1033 907 1003 888 c 0,14,15
 975 870 975 870 963 881 c 0,16,17
 959 884 959 884 957 891 c 1,18,19
 966 891 966 891 970 910.5 c 128,-1,20
 974 930 974 930 982.5 949.5 c 128,-1,21
 991 969 991 969 1010 969 c 0,11,12
414 23 m 1,22,23
 337 105 337 105 337 228 c 0,24,25
 337 325 337 325 397 386 c 0,26,27
 441 430 441 430 504.5 430 c 128,-1,28
 568 430 568 430 619 399 c 1,29,30
 708 606 708 606 763 686 c 1,31,32
 756 688 756 688 711.5 705 c 128,-1,33
 667 722 667 722 655 726 c 2,34,-1
 607 742 l 2,35,36
 523 770 523 770 459 770 c 0,37,38
 329 770 329 770 267 672 c 1,39,40
 231 617 231 617 231 558 c 0,41,42
 231 462 231 462 293 445 c 0,43,44
 302 442 302 442 312 442 c 1,45,46
 306 420 306 420 279 420 c 0,47,48
 218 420 218 420 193 485 c 0,49,50
 181 516 181 516 181 554 c 128,-1,51
 181 592 181 592 201 639 c 0,52,53
 243 740 243 740 349 777 c 0,54,55
 399 794 399 794 442.5 794 c 128,-1,56
 486 794 486 794 514.5 789.5 c 128,-1,57
 543 785 543 785 583 772.5 c 128,-1,58
 623 760 623 760 641.5 754 c 128,-1,59
 660 748 660 748 713.5 727.5 c 128,-1,60
 767 707 767 707 775 704 c 1,61,62
 861 818 861 818 963 818 c 0,63,64
 971 818 971 818 975 813 c 128,-1,65
 979 808 979 808 980 799 c 1,66,67
 876 799 876 799 798 696 c 1,68,69
 850 677 850 677 899 666 c 1,70,71
 953 736 953 736 998 736 c 0,72,73
 1008 736 1008 736 1015 730.5 c 128,-1,74
 1022 725 1022 725 1025 714 c 1,75,76
 986 714 986 714 944 659 c 1,77,78
 951 658 951 658 965 658 c 0,79,80
 1064 658 1064 658 1104 717 c 1,81,82
 1121 740 1121 740 1121 756 c 0,83,84
 1121 801 1121 801 1081 801 c 1,85,86
 1090 815 1090 815 1110 815 c 0,87,88
 1149 815 1149 815 1161 776 c 0,89,90
 1164 764 1164 764 1164 753 c 0,91,92
 1164 720 1164 720 1136 688 c 0,93,94
 1087 634 1087 634 985 634 c 0,95,96
 955 634 955 634 931 638 c 1,97,98
 864 531 864 531 823 334 c 0,99,100
 794 197 794 197 794 130.5 c 128,-1,101
 794 64 794 64 799 32 c 1,102,103
 856 76 856 76 908 143 c 128,-1,104
 960 210 960 210 983 255 c 2,105,-1
 1006 300 l 1,106,-1
 1033 300 l 1,107,108
 1025 279 1025 279 998.5 233.5 c 128,-1,109
 972 188 972 188 947 154 c 1,110,111
 883 62 883 62 805 6 c 1,112,113
 818 -32 818 -32 842 -32 c 1,114,115
 832 -52 832 -52 806.5 -52 c 128,-1,116
 781 -52 781 -52 760 -22 c 1,117,118
 688 -59 688 -59 620 -59 c 0,119,120
 521 -59 521 -59 449 -7 c 1,121,122
 344 -127 344 -127 196 -127 c 128,-1,123
 48 -127 48 -127 -19 -22 c 0,124,125
 -56 37 -56 37 -56 105 c 0,126,127
 -56 133 -56 133 -50 162 c 0,128,129
 -29 259 -29 259 45 300 c 0,130,131
 84 322 84 322 132 322 c 0,132,133
 235 322 235 322 271 242 c 0,134,135
 286 209 286 209 286 174.5 c 128,-1,136
 286 140 286 140 272 105 c 0,137,138
 238 21 238 21 161 21 c 0,139,140
 149 21 149 21 141 26.5 c 128,-1,141
 133 32 133 32 129 43 c 1,142,143
 156 43 156 43 180 57 c 0,144,145
 220 81 220 81 243 144 c 1,146,147
 249 165 249 165 249 178.5 c 128,-1,148
 249 192 249 192 247 209.5 c 128,-1,149
 245 227 245 227 234 250 c 128,-1,150
 223 273 223 273 196 287 c 128,-1,151
 169 301 169 301 132 301 c 0,152,153
 37 301 37 301 -8 217 c 0,154,155
 -34 169 -34 169 -34 126 c 128,-1,156
 -34 83 -34 83 -25 49 c 0,157,158
 1 -46 1 -46 84 -82 c 0,159,160
 123 -99 123 -99 170 -99 c 0,161,162
 305 -99 305 -99 414 23 c 1,22,23
748 -1 m 1,163,164
 731 39 731 39 731 96.5 c 128,-1,165
 731 154 731 154 707 229.5 c 128,-1,166
 683 305 683 305 637 353 c 1,167,168
 546 113 546 113 467 13 c 1,169,170
 529 -36 529 -36 606 -36 c 128,-1,171
 683 -36 683 -36 748 -1 c 1,163,164
609 377 m 1,172,173
 571 404 571 404 520.5 404 c 128,-1,174
 470 404 470 404 431 366 c 1,175,176
 375 309 375 309 375 217 c 0,177,178
 375 115 375 115 432 46 c 1,179,180
 496 128 496 128 555 255 c 0,181,182
 576 302 576 302 609 377 c 1,172,173
739 218 m 1,183,184
 755 336 755 336 795 453.5 c 128,-1,185
 835 571 835 571 886 647 c 1,186,187
 844 657 844 657 785 678 c 1,188,189
 738 608 738 608 691 493 c 0,190,191
 677 457 677 457 647 378 c 1,192,193
 709 323 709 323 739 218 c 1,183,184
EndSplineSet
EndChar

